/* XPM */
static char *btn_rotate[] = {
/* columns rows colors chars-per-pixel */
"108 44 243 2 ",
"   c #3B779E",
".  c #3C7B9F",
"X  c #2F7AAF",
"o  c #3477A5",
"O  c #3976A2",
"+  c #357AA5",
"@  c #3C7AA5",
"#  c #347CAC",
"$  c #3C7DAB",
"%  c #347DB3",
"&  c #397DB2",
"*  c #49789A",
"=  c #507F9F",
"-  c #437AA3",
";  c #407EAA",
":  c #427CB2",
">  c #3D81A7",
",  c #3581AD",
"<  c #3C81AD",
"1  c #2E84B6",
"2  c #2F86BD",
"3  c #2F88BA",
"4  c #3582B4",
"5  c #3B83B4",
"6  c #3489B6",
"7  c #3A89B5",
"8  c #3484BB",
"9  c #3A84BB",
"0  c #3689BD",
"q  c #3B89BE",
"w  c #60829D",
"e  c #4381A5",
"r  c #4881A7",
"t  c #4382AC",
"y  c #4A84AC",
"u  c #4A88AE",
"i  c #5383A5",
"p  c #5F84A1",
"a  c #5488A6",
"s  c #5285AC",
"d  c #558AAC",
"f  c #5A8BAD",
"g  c #4385B5",
"h  c #4E86B3",
"j  c #4489B5",
"k  c #4B8CB3",
"l  c #4185B9",
"z  c #458BBC",
"x  c #4C8EBB",
"c  c #5184B2",
"v  c #538BB2",
"b  c #5D8EB1",
"n  c #5283BA",
"m  c #548EB9",
"M  c #5C8BB8",
"N  c #4F94BD",
"B  c #5491B4",
"V  c #5C94B3",
"C  c #5392BC",
"Z  c #5B95BC",
"A  c #5399BC",
"S  c #5C99BE",
"D  c #658BAA",
"F  c #6592AF",
"G  c #7093A9",
"H  c #7A9DAF",
"J  c #628EB2",
"K  c #6494B3",
"L  c #6499B6",
"P  c #6C9BB6",
"I  c #6296BA",
"U  c #6A97B9",
"Y  c #649CBC",
"T  c #6D9BBC",
"R  c #7097B2",
"E  c #719DB5",
"W  c #7B9DB4",
"Q  c #729DBB",
"!  c #65A1BE",
"~  c #6CA2BC",
"^  c #74A3B7",
"/  c #75A3BD",
"(  c #7EA7BF",
")  c #74A9BF",
"_  c #2F86C2",
"`  c #3586C1",
"'  c #3A86C2",
"]  c #368AC3",
"[  c #3B8BC4",
"{  c #378CC9",
"}  c #3B8DCA",
"|  c #3690C5",
" . c #3C90C5",
".. c #3792CD",
"X. c #3B91CD",
"o. c #3B98CD",
"O. c #3B8FD2",
"+. c #3795D1",
"@. c #3C95D3",
"#. c #3D98D6",
"$. c #3796D9",
"%. c #3E97D8",
"&. c #3D99D8",
"*. c #4187C3",
"=. c #418CC4",
"-. c #4A8CC1",
";. c #418FCB",
":. c #518FC3",
">. c #4191C4",
",. c #4B92C7",
"<. c #4195CE",
"1. c #5393C3",
"2. c #5198C2",
"3. c #5D9BC3",
"4. c #5199CB",
"5. c #5B9ACA",
"6. c #4195D1",
"7. c #4198D3",
"8. c #4196DA",
"9. c #6295C2",
"0. c #639CC2",
"q. c #6B9DC4",
"w. c #65A0C1",
"e. c #6CA3C2",
"r. c #6DA8C6",
"t. c #65A3CA",
"y. c #6EA7C9",
"u. c #6DA9CC",
"i. c #73A3C3",
"p. c #7AA7C5",
"a. c #76AAC5",
"s. c #7CACC4",
"d. c #72A6CA",
"f. c #75ACCB",
"g. c #7CADCC",
"h. c #7CB0C1",
"j. c #7BB2CD",
"k. c #63A8D3",
"l. c #6EACD5",
"z. c #71ADD6",
"x. c #7CB3D4",
"c. c #78B9D4",
"v. c #7EB5DB",
"b. c #819DB5",
"n. c #8FA7B5",
"m. c #83A4BC",
"M. c #84ACBF",
"N. c #85A7C2",
"B. c #84ABC5",
"V. c #89AAC6",
"C. c #83ABCB",
"Z. c #84B0C3",
"A. c #82B3CD",
"S. c #8CB4CB",
"D. c #8DBACD",
"F. c #90B1C4",
"G. c #93B5CC",
"H. c #99B4CC",
"J. c #90B8CA",
"K. c #85AED1",
"L. c #88AFD3",
"P. c #82B4D1",
"I. c #86BED2",
"U. c #8BBED2",
"Y. c #92BBD4",
"T. c #9BBED2",
"R. c #A3B3C0",
"E. c #8EC2D5",
"W. c #8EC4D9",
"Q. c #93C2D5",
"!. c #9BC3D5",
"~. c #95C4D9",
"^. c #99C2DD",
"/. c #91C9D9",
"(. c #9CCBD9",
"). c #A4C3D4",
"_. c #A0C8D4",
"`. c #A4C6DA",
"'. c #A8C6DC",
"]. c #A3CDDD",
"[. c #ACCDDC",
"{. c #B1CFDC",
"}. c #A2D1DF",
"|. c #ABD1DF",
" X c #B3D1DD",
".X c #B4D8DF",
"XX c #BCDADF",
"oX c #91C9E0",
"OX c #9DCFE0",
"+X c #ABCEE0",
"@X c #B3CEE0",
"#X c #A7D0E0",
"$X c #ACD5E3",
"%X c #ACD9E6",
"&X c #AFD8EC",
"*X c #B3D5E3",
"=X c #B9D5E1",
"-X c #B4DAE6",
";X c #BDDBE5",
":X c #B2D6E8",
">X c #B5DEEB",
",X c #BBDEEC",
"<X c #BAE0E6",
"1X c #BDE1ED",
"2X c #AFE1F3",
"3X c #CDD9DF",
"4X c #C2DDE4",
"5X c #CADEE5",
"6X c #C2DDEB",
"7X c #CBDEEB",
"8X c #C4E0E6",
"9X c #CFE1E7",
"0X c #C3E1ED",
"qX c #CBE2EC",
"wX c #CCEAEE",
"eX c #D4E3E7",
"rX c #D3E6EC",
"tX c #C5E5F1",
"yX c #C9E7F1",
"uX c #C6EAF1",
"iX c #CBECF3",
"pX c #D3EDF3",
"aX c #DAEEF5",
"sX c #DAEFF9",
"dX c #CFF0F6",
"fX c #C9F2FD",
"gX c #D5F3F7",
"hX c #DCF2F6",
"jX c #DBF4F9",
"kX c #DCF9FC",
"lX c #E3EAEE",
"zX c #EAEFF3",
"xX c #E3F1F5",
"cX c #EAF2F5",
"vX c #E4F6F9",
"bX c #EBF7F9",
"nX c #E5FCFE",
"mX c #ECFEFF",
"MX c #F0F6F7",
"NX c #F6FBF6",
"BX c #FBFBF5",
"VX c #F4FEFE",
"CX c #FCFEFE",
/* pixels */
"CXCXCXCXCXCXVXCXmX,XE.z.5.1.C C N N N 2.N N N N N N N N N N N N N N N N N 2.N 2.N N N N N N N N N N N N N N N N N N N N 2.2.N N N N N N N N N N N N N N N N N N N A N N N N N N N N N N N C A 5.z.E.0XmXCXCXCXVXCXCXBXCX",
"CXCXCXCXBXCXmX:Xy.N >.o.<.7.6.6.<.6.<.<.<.@.6.<.<.<.<.#.<.<.<.<.<.#.<.6.<.<.<.X.6.<.<.<.<.<.<.<.<.<.<.<.<.<.<.<.<.<.<.<.X.<.<.<.<.6.<.<.<.<.6.6.<.<.<.<.<.<.<.<.6.o.<.<.<.<.<.<.<.6.<.<.<.6.<.<.;.;.,.u.%XmXCXBXCXCXCXCX",
"CXCXCXCXCXpXs.-.;.<.#.#.#.@.8.&.#.#.%.%.&.8.7.%.8.%.#.7.%.#.8.&.#.8.7.%.#.8.&.&.7.#.%.%.#.7.&.8.&.7.7.&.%.8.8.7.&.8.#.8.7.8.&.&.7.#.%.%.7.&.7.7.8.&.#.#.7.&.%.%.7.%.#.#.8.&.#.#.o.&.&.#.7.#.&.#.8.8.8...j a.pXCXBXCXCXBX",
"CXCXVXVX1XS  .<.8.#.&.#.6.8.8.8.#.@.%.%.#.&.&.%.%.%.&.&.%.%.%.%.#.#.&.#.#.%.%.&.#.@.#.#.#.#.&.#.&.#.&.&.#.#.#.#.&.#.#.#.%.&.#.&.#.@.#.#.8.#.&.&.#.7.#.#.#.@.#.#.&.%.%.%.#.7.#.#.%.#.#.%.&.8.#.#.8.<.<.<.8.>.Y 0XVXCXCXCX",
"CXBXCX1XC O.&.o.@.%.%.%.%.8.%.%.#.&.&.#.&.#.&.#.&.&.#.#.&.&.#.#.#.&.#.o.%.&.&.&.#.#.&.&.&.&.#.#.%.#.#.#.#.&.#.+.&.&.#.#.#.#.#.&.#.&.#.%.#.#.%.%.&.&.#.#.o.&.@.&.&.#.&.#.&.&.&.#.%.%.%.@.%.#.%.#.&.#.6.@.#.8.>.C 1XCXCXBX",
"CXCXpX9.O.8.%.X.o.@.@.%.%.@.@.X.#.X.o.@.@.@.+.X.+.#.X.@.@.+.@.#.+.@.@.#.@.X.@.+.@.@.@.@.+.@.@.@.+.%.@.@.@.+.#.@.+.X.#.X.+.@.@.+.#.@.+.@.+.@.@.@.@.+.@.@.+.#.@.@.@.@.+.@.@.@.@.+.@.8.@.@.@.@.+.@.o.&.#.+.@.+.&.;.I pXVXCX",
"BXmXg.[ 8.8.6.8.X.#.%.@.+.#.o.#.@.@.#.@.@.#.@.@.%.@.@.#.#.@.@.@.@.@.X.#.@.#.#.X.@.#.@.@.@.@.@.@.@.@.@.@.%.@.@.@.#.@.@.#.@.@.@.@.@.@.@.@.@.@.@.@.#.@.@.@.@.@.@.@.@.@.@.#.@.@.@.@.6.O.6.6.%.@.@.6.8.@.o.o.X.6.%.8.=.g.mXBX",
"CX$Xz 6.X.o.@.O.%.@.O.@.+.#.O.%.@.@.@.@.@.X.@.@.+.@.X.X.o.X.@.@.@.@.@.@.@.@.@.@.@.@.@.@.@.@.%.O.@.@.@.@.@.@.@.@.@.@.@.@.@.@.@.@.@.@.@.@.@.@.@.@.@.@.@.@.@.@.@.%.@.@.@.@.@.@.@.@.@.@.@.@.@.@.@.@.@.@.%.#.+.#.X.@.#.j .XCX",
"mXr. .;.X.+.O.6.+.@.@.O.@.@.<.6.8.6.6.6.6.O.@.8.8.7.O.+.X.8.O.@.@.@.O.6.@.@.<.@.@.O.8.@.@.O.6.O.8.6.o.@.+.&.+.6.;.6.X.@.@.@.X.6.@.@.X.X.@.@.@.@.@.#.o.X.@.&.&.O.@.@.+.@.@.O.@.@.6.@.O.@.O.%.@.@.%.O.@.@.@.@.6.@.@. .r.nX",
"0Xx  .@.@.+.#.6.@.X.@. .z z k x z z z z x z z z l ' 8.$.+.;.8.@.@.o.@.@.O.O.%.+.X.+.@.@.@.@.+.@.;.6.X.X.;.} X.@.@.+.@.+.@.@.O.O.@.+.@.@.;.@.@.X.X.+.$.%.6. .X.+.@.@.@.@.@.@.O.6.O.@.@.@.X.X.X.@.@.O.+.O.@.@.X.+.X.;.m 1X",
"Q.q +.@.+.@.%.O.O.@. .k.2X,X,X>X,X6X,X,X,X,X6X*XT.g.:.} @.@.@.+.+.+.+.+.#.+.%.O.X.X.X.X.X.@.+.+.+.$.O.[ 2.4. .+.+.+.+.@.@.O.&.O.O.$.+.@.+.@.O.%.+.@.O.O.q 1.4.;.@.6.X.@.@.X.@.O.O.+.@.X.O.@.6.O.@.X.@.@.X.@.O.+.+.@.z E.",
"l. .+.O.@.O.O.O.6.X.q v.mXCXCXCXCXCXCXCXCXCXCXCXCXmXpXQ *.O.X.X.X.X.O.X.X.X.X.X.@.@.@.X.@.X.O.@.+.O.=.f.fXv.[ %.@.@.O.X.X.X.X.+.X.X.@.O.@.+.O.O.X.@.;.z g.fXv.[ O.O.X.X.X.X.@.+.@.X.@.O.@.O.+.+.@.X.X.@.X.+.O.O.@.@.{ l.",
"3. .#.O.X.X.O.X.+.+.0 x.VXCXCXMXmXnXnXnXnXmXmXmXCXBXCXxX9.} X.X.;.6.O.X.X.+.+.X.O.+.+.X.O.X.O.;.;.=.oXmXVXK.q ;.O.O.X.X.X.X.X.X. .X.X.X.X.O.O.O.X.o.q /.mXVXK.q 6.O.+.O.+.X.O.O.X.X. .;.X.O.O.+.X.X.X.X.X...O...X.@. .5.",
"v ;.O.X.X.X.X.} X.+.] x.mXCXxXH U Y Y Y Y Y Y P.tXmXBXCX*Xj ;.X.O.X.X.X.+.O.O.O.O.X.O.O.X.X.+. .;.q %XCXCXK.' X. .X.X.X.@.X.X.+.@.@.+.O.O.X.X.X..... .$XCXCXC.q ;.X.X.O...X.X.X.+.O.@.X.X.X.X.X.X.X.X.X.O...+.X.X. . .-.",
"v ;.X. ...O.+. .X.@.] x.mXVXpXd z [ [ [ [  .q l k 1XVXCXbXI [ O.X.O.X.X. . .} [ [ >. .X.O.O.} X.@.z $XCXCXK.q ;.X.X.+.O.@.X.;.[ [ [ X.;.X.O.O...O.+.z $XCXCXS.*.;.;.+.+...X.;.;.} } {  .;.X.X.O.X.X.O.X.X.X.X.X.O. .=.-.",
"k =.X.X...X.X.}  .X.' x.mXCXsXM >......... . .;.q ~ mXCXCXp.' O.X.}  .[ 5 x 0.0.Z j l ;.X.} X.}  .t  XCXCXB.e l } X.;.[ q l k S 0.0.m l 5 =. .X.X. .t @XCXCXm.: =.[  .O.X.} q g b 0.0.x g '  .O.....X.X.X.X.{ X.X.O.X.-.",
"k  .X.} ....} }  .;.0 x.mXCXsXm  .} X.O.O. .} X.} b jXCXCXL.9 X.X. .7 0.+XpXkXkXsXtX!.Z q ;.X.q x.0XxXCXCXrX;X&X:.}  .z A.>XiXjXvXvXpX0XS.v =.@.' c.1XxXCXVXrX6X&XC  . . .j P.1XgXvXvXpX-Xi.j =.} } X...X.X.} X.X.X.{ -.",
"k  .} } } } } X.} } 0 x.mXCXsXm  . .;.X.}  .} X.7 a.mXCXVXi.[  . .7 E.nXCXCXCXCXCXCXCXgXi.g X.3 (.CXCXCXCXCXCXmXI l N >XVXCXCXCXCXCXCXCXVX*Xh ;.8 (.CXCXCXCXCXCXMXC  .q B ,XmXCXCXCXCXCXCXVX).h =.} { ....X.} } X.{ [ z ",
"u =. .} } { } X.X...2 x.mXCXaXc ' q q q q ' ` 9 B yXCXCXsXm [ =.g Y.VXNXCXcX X'.;XmXBXCXbXQ 5 { j.>XhXCXBXeX;X*Xm : %XCXBXCX7X[.`.*XkXCXBXCXS.g  .j.>XxXCXCXeX=X*X2.q k 1XCXBXVXqX'.'.yXVXCXCX).g =.} { }  .{ } } } [ z ",
"k [ { } { { } { { X.0 x.mXCXzXW q.q.0.Y 0.q.i.D.iXCXBXCX).5 ;.q 0.kXVXCX0XV : 5 g f.jXVXCXqXn =.[ -  XCXCXm.. 5 q y.nXNXmXG.t 5 t < L wXCXCX;Xu z q + [.CXCXm.O 5 [ 7 Y.mXCXmXG.r g 5 u _.mXCXmXT l  .} } [ { } } }  .x ",
"u  . .{  .{  .{  .} ' j.bXCXCXMXmXmXmXnXmXmXVXCXCXCXCX,Xv *. .7 (.VXCXaXf q X.O.} , e.mXCXCXs.9 ;.l *XCXVXK.q X.2 /.VXCX4X; >.;.X.;.5 A.VXCXtXh  . .q $XCXCXC.q @.} k iXCXCX).: =.;.@. .e .XCXCX{.:  .{ } } { } } { [ z ",
"k [ {  .{ .. .{ { } 9 g.mXCXCXCXCXCXCXCXCXCXCXNXmXjXT.h *.}  .j iXVXCXH.:  .} {  . .t >XCXCX`.5 >.7 $XCXCXC.8  .0 A s.^.d.l =.q ' 9 + ^ mXCX7Xn [ } q %XCXCXC.5  .' u.nXCXzXw 5 q 9 8 ` , E mXCXsXv [ } } } { } } { [ z ",
"u [ { {  .| } {  .} 9 g.mXCXCX7X5X6X5XrXVXVXVXBXR.p : [ O.} [ B jXCXmXR q } { [ { X.2 Y.CXCX4Xn | 6 $XCXCXC.9 }  .] 5 & $ y m 0.i.S.|.wXVXCX7Xn [ } 5 $XCXCXC.8 >.8 E.mXCXlXn.Z.h.C.C.s.h.F.bXCXmXU '  .} { {  .{ }  .z ",
"u q { { { ] { { {  .8 x.mXCXsX= t < < y Z.sXVXCXcXb.l }  .0 [ I nXCXxXJ q { { { } X.2 P.mXCX7Xc } 9 $XCXCXB.9 } [ [ 7 3.(.0XpXmXmXCXCXCXCXCX7Xc [  .5 %XCXCXC.9  .4 ~.CXCXVXCXCXmXCXCXCXmXBXVXCXNXQ 8  .{  ._ { [ { [ j ",
"y [ ]  .{ [ [ { [ } % x.VXCXjXv } } { q % L kXCXCXbXL 5 [ } 8 0.nXVXxXf q { } ' { { 8 g.mXCX7Xs } 5 *XCXVXC.8 } [ t D.mXVXCXCXCXVXVXhX9XmXCX7Xn q [ 5 $XCXCXK.&  .& !.CXCXCXVXVXmXVXCXmXVXVXCXVXmXq.' ' ] ' { ] { ] q j ",
"y q [ { { { { ' } [ 4 K.mXCXsXv [ [ ' [  ., Z.mXCXCXwXs *.O.9 B kXCXmXJ 9 { [ ' ]  .4 P.mXCXqXs { 9 $XCXCXK.& } 8 g.VXmXVXbX4X[.F.p.f W mXCX7Xc [ { q $XCXCXV.5 X.% ~.CXCX3XH i.i.i.i./ i.) Q i.p.-.` [ [ } { { [ { [ j ",
"y q ] ] { ` { ' ' [ 4 x.mXCXsXv q [ [ [ { q e |.CXNXCX).; } q v jXCXmXW 9 { q q [ [ < !.CXCX=Xt [ 7 $XCXCXV.& [ j tXVXCXrXF > 5 5 8 & A.mXCX9Xc ' } 9 $XCXCXN.% } % I.mXCX5X* 5 8 & & % 4 < v y - 9 [ q ] { { ] [ ] q g ",
"y q 0 [ ] [ ] [ { { 4 g.mXCXsXc 0 ] ] ' ] { q B dXCXCXVXR 5 { g 1XVXCX).$ } { { } [ t uXCXCXT.$ q < +XCXCXV.5 q B kXBXCXb.@  .{ }  .$ !.CXCX7Xu ' [ 9 $XCXCXC.9 X.8 ! mXCXmXR g  .[  . .8 e.kXiX>Xm q [ ] ] ' [ ' { [ g ",
"y q ] ] ] [ ` [ ' { 1 g.mXCXsXs q { { ' [ _ [ , j.mXCXCX5Xr [ % U.VXCXcXR & q } q + D.mXBXVXQ 9 ] 7 $XVXCXF.o 5 B jXCXVXW : [ [ [ # L kXCXCXpXu 5 ] 9 $XCXCXF.o 8 [ y wXCXCX4X= 5 [ [ 8 t 6XCXCXrXh 9 ' _ ] q ' ] { q g ",
"r q ' 0 ` 0 ] ' ' [ % g.mXCXsXs 9 ` ` q 0 ] _ 0 < ;XVXBXCXG.& q k dXCXCXxXm.s - f !.mXMXCX{.; [ { , }.VXCXqX/ i.d dXmXCXqXJ @ ; c ( aXCXBXCXhXi q ] 4 #XCXCXqX^ e.z % g.VXNXVX7XU r r V -XVXBXCXB.+ { { { [ 0 ] ` 0 9 g ",
"y 9 q 0 ] 0 ` ` ` [ X j.mXCXgXh 7 0 ` ] q ` ` [ 9 S kXNXCXxXb 5 4 ~ nXCXCXVXrX4XhXVXVXCXqXs 5 ' { # E.VXNXBXVXnXD G.VXBXCXbX=X XaXVXCXMXmXCXcXJ 8 ] X Y.CXNXCXmXnXV 5 g ].VXVXCXmXqX7XbXCXCXCX[.; q _ ` ` ' ] ] 0 ] 9 g ",
"B 7 0 0 0 0 0 0 ` [ 1 j.mXCXgXu 9 ` _ ] 0 0 ` ' ' # Q.CXmXCX;X5 ] 5 P iXmXCXCXCXCXCXmX=Xf 5 0 0 ] 9 B iXCXCXCXCXB.  ].mXCXCXCXCXCXmX4XG 7XCXCXY.% [ 8 B iXCXCXCXCXs.X q < Y.kXCXCXCXCXCXVXmX`.r q ` q q ` ` 0 ` 0 ` 7 C ",
"e.& q 8 ` ` 8 q 8 0 8 N ( Z.a.g 9 ` ` ` 9 0 ` 9 q 5 y s.Z.( g.l 0 q # h s.].0X7X6XT.T - & [ 2 q 8 0 & v S.|.].!.Z 5 & Y ].yXqX6X`.~ ; @ Y Z.Z.0.9 8 0 & m S.+X@XT.Z 4 _ ` % V J.-XtXtX6XY.U @ 5 9 ` 0 9 ` ` 0 ` 0 0 4 t.",
"D.& ` 8 ` ` 0 8 8 0 0 4 + + # 8 ` ` 8 8 ` ` 8 0 _ ` 9 # # # X 8 8 8 q 9 X & ; t ; + % q ` 0 q 8 ' ` ` 8 & + < # 4 q { % % > < $ $ X ' q & + X % 0 0 0 0 % % # & + 5 9 0 ] 0 % + $ $ ; : & % ` ` ` ` 8 ` ` 8 0 8 0 ' # I.",
",Xt 9 8 ` ' 8 ` ` ` ` ` 0 q 0 ` 0 8 ` 0 8 ` 8 ` _ _ ] 0 0 0 ` ` ` ` ` ` 0 q 0 8 8 0 ` ` _ 8 q 9 ` ` ` ` 0 9 0 ` 0 8 ' ' q 2 8 0 0 ` ` ` ' q ` ` 0 8 8 ` ' ` ` 2 ` ` 0 8 q 2 0 { 8 ` 8 0 0 8 8 8 ` ` 0 8 0 8 8 q 8 9 t 1X",
"mXT # 8 8 ` ` 8 _ 8 8 0 8 8 8 3 8 8 8 0 8 2 0 8 8 ` 8 9 8 8 8 8 8 0 8 8 8 8 8 8 9 8 2 ` 8 ` 8 _ 8 0 2 2 9 8 9 ` 8 8 9 % 8 8 8 0 9 8 8 8 0 8 8 9 8 8 ` 8 8 8 8 9 0 8 8 8 8 8 ` 8 q 8 8 8 8 8 8 7 2 8 8 8 8 8 8 2 0 # P mX",
"CX X@ 8 _ ` q 0 8 4 8 8 & ' ' 4 8 8 ` 8 ` 8 ` 8 8 8 8 8 8 8 8 8 6 8 8 8 9 8 8 ` ` & ' ` 9 8 8 8 8 4 0 8 8 8 8 8 3 2 2 8 ` ` ` 8 8 8 4 8 8 _ ' % 9 8 8 8 8 8 8 8 8 8 8 8 8 8 8 8 9 8 8 _ ` 8 ` 2 8 8 9 8 8 8 8 ` 0 O  XCX",
"CXmX/ + 2 0 9 % 4 8 , 8 8 _ 8 8 8 8 8 8 % 8 8 8 8 8 8 8 8 8 8 8 8 8 8 8 3 8 8 _ 8 8 ` % % 8 9 8 8 8 8 8 8 8 8 _ 8 3 1 6 % ' % 2 2 8 8 8 8 _ 8 8 8 8 8 8 8 8 2 _ 8 8 8 8 8 8 8 8 _ % 8 8 8 8 8 8 8 8 8 8 8 8 2 2 # E VXCX",
"BXCXpXa , 5 % 8 8 9 8 3 8 2 8 _ 8 8 8 % 8 8 % 8 9 4 8 % 8 8 8 8 8 8 8 % 9 8 8 1 1 1 8 8 ` 8 8 8 2 8 1 8 8 % ` % & ` 8 8 % 8 8 2 8 8 % 9 8 8 8 0 2 8 8 8 8 8 8 8 2 8 8 8 8 8 8 8 _ ` 8 _ 8 % % 8 8 8 8 8 8 8 7 & a pXCXCX",
"CXCXCX;X- & 9 8 8 3 8 8 4 8 8 % 8 8 8 8 8 8 ` 8 8 8 8 8 9 % 9 8 8 8 8 8 8 8 % 9 8 8 8 8 8 8 8 8 8 9 9 % 8 8 8 9 9 8 8 8 8 8 8 8 9 8 ` 8 8 & % 8 % 8 8 8 8 4 % 9 % 8 8 8 8 8 % 8 ` % 8 8 8 8 8 9 9 ` % 8 8 5 $ ; ;XCXBXCX",
"CXCXCXCX;Xs + 8 3 8 4 8 5 4 4 9 8 8 4 8 8 8 4 3 8 8 8 4 8 8 8 1 1 4 8 8 8 8 8 % 8 % 8 8 8 4 8 4 & 8 5 8 8 8 8 4 8 8 8 4 8 4 9 9 9 8 8 8 8 8 8 8 9 8 8 8 8 8 8 % 8 8 1 8 8 8 4 5 8 % 8 8 4 8 8 8 % 8 8 ` 8 + a ,XBXCXCXCX",
"CXCXCXBXCXwXP   # 4 9 8 % 8 8 8 1 8 8 1 1 8 1 8 4 1 1 8 1 8 8 4 8 1 1 8 4 1 8 8 2 8 8 2 4 1 8 1 8 1 8 1 8 1 8 1 % 8 1 8 1 8 8 1 4 1 1 1 8 % 4 1 1 4 1 1 1 8 8 6 8 8 8 1 4 1 8 1 8 1 8 8 8 8 % 8 8 9 4 # O P pXCXCXCXCXCX",
"CXCXCXCXVXCXmX[.K - O # % 8 % 4 % 4 4 % 4 4 % 4 4 4 4 4 % 4 4 4 4 4 % 4 4 4 4 4 4 4 X 4 4 4 4 4 1 % 4 4 % 4 4 4 1 4 % 4 4 4 X 4 4 4 4 4 4 4 4 4 % 4 4 4 % 4 4 4 4 4 % 4 4 4 4 4 4 4 % % 5 4 & % # O - F [.mXCXBXCXCXCXCX",
"CXCXCXCXBXBXBXCXmX=XG.U h t $ ; ; ; ; ; ; ; ; ; ; ; ; ; ; ; ; ; - ; ; $ ; ; ; $ ; ; ; ; ; ; $ ; ; ; ; ; ; $ ; ; ; ; ; ; ; ; ; ; ; ; ; ; $ ; ; ; ; ; ; ; ; $ ; $ ; ; $ - ; ; ; ; ; ; < $ $ $ $ k 0.K.;XmXCXCXBXCXCXCXCXCX"
};
