/* XPM */
static char *btn_play[] = {
/* columns rows colors chars-per-pixel */
"78 44 217 2 ",
"   c #38779A",
".  c #2F7AAC",
"X  c #3675A4",
"o  c #3B75A0",
"O  c #3B7BA4",
"+  c #3777AB",
"@  c #347BAC",
"#  c #3A7DAC",
"$  c #347DB3",
"%  c #3A7DB3",
"&  c #4A7E9E",
"*  c #437DA5",
"=  c #497DA2",
"-  c #427DA9",
";  c #3780AF",
":  c #3C81AC",
">  c #2F82B5",
",  c #2F85BD",
"<  c #3582B5",
"1  c #3B83B4",
"2  c #3288B7",
"3  c #3C88B4",
"4  c #3484BB",
"5  c #3A85BC",
"6  c #3588BD",
"7  c #3C89BD",
"8  c #3590BE",
"9  c #53869F",
"0  c #4E86A7",
"q  c #4482AC",
"w  c #4C84AD",
"e  c #4D88AC",
"r  c #5483A6",
"t  c #5288A7",
"y  c #5184AA",
"u  c #548AAF",
"i  c #5A8FAD",
"p  c #4385B5",
"a  c #4B85B4",
"s  c #448AB5",
"d  c #4B8BB3",
"f  c #4386BA",
"g  c #4B86B9",
"h  c #458ABB",
"j  c #4B8CBC",
"k  c #5286B4",
"l  c #538BB2",
"z  c #508DB9",
"x  c #4C91B3",
"c  c #4D91BC",
"v  c #5492B6",
"b  c #5A94B7",
"n  c #5392BB",
"m  c #5C91BD",
"M  c #5598BC",
"N  c #5E98BB",
"B  c #6290A7",
"V  c #7195A8",
"C  c #6394B4",
"Z  c #6A94B1",
"A  c #6499B4",
"S  c #6C9CB5",
"D  c #6294BD",
"F  c #6A97B8",
"G  c #659DBC",
"H  c #6999BC",
"J  c #7895B1",
"K  c #769DB3",
"L  c #709FB8",
"P  c #789EBD",
"I  c #67A3BF",
"U  c #6BA1BD",
"Y  c #74A3BC",
"T  c #7CABBE",
"R  c #3586C1",
"E  c #3987C2",
"W  c #3689C3",
"Q  c #3A8BC4",
"!  c #368CCA",
"~  c #3B8ECB",
"^  c #3791C4",
"/  c #3D91C4",
"(  c #3B91CD",
")  c #3999CD",
"_  c #3A8FD0",
"`  c #3792D2",
"'  c #3C94D3",
"]  c #3C98D6",
"[  c #3D96D9",
"{  c #3D98DA",
"}  c #3B9AE0",
"|  c #428CC3",
" . c #4B8EC3",
".. c #408EC9",
"X. c #488FC8",
"o. c #4190C7",
"O. c #4C91C1",
"+. c #4292CC",
"@. c #5293C2",
"#. c #5C9AC4",
"$. c #569CC9",
"%. c #5B9BCC",
"&. c #4395D3",
"*. c #4098D7",
"=. c #4296D9",
"-. c #639CC2",
";. c #6C9CC4",
":. c #63A2C3",
">. c #6CA3C5",
",. c #6EA8C7",
"<. c #65A5C9",
"1. c #74A5C4",
"2. c #7AA6C3",
"3. c #75AAC7",
"4. c #7DACC3",
"5. c #76ACCB",
"6. c #7CAECE",
"7. c #78B3C4",
"8. c #6DA6D2",
"9. c #65AAD7",
"0. c #6BACD4",
"q. c #72ADD4",
"w. c #77B2D3",
"e. c #7AB3D4",
"r. c #7ABAD0",
"t. c #77B6DA",
"y. c #78B5D8",
"u. c #7BBADA",
"i. c #809BB7",
"p. c #809EB9",
"a. c #80A6B8",
"s. c #8DABBC",
"d. c #84A7C2",
"f. c #84ACC5",
"g. c #8BACC5",
"h. c #85ABCA",
"j. c #89ACCB",
"k. c #83B1C4",
"l. c #85B3CB",
"z. c #8CB4CA",
"x. c #8ABCCE",
"c. c #91B1CA",
"v. c #92BBCE",
"b. c #86B1D3",
"n. c #8BBCD2",
"m. c #93B7D2",
"M. c #99B7D4",
"N. c #93B8D2",
"B. c #9BBBD2",
"V. c #8CC1D5",
"C. c #8DC3D8",
"Z. c #91C2D6",
"A. c #97C2DD",
"S. c #9DC3D8",
"D. c #99CAD9",
"F. c #A2C2D7",
"G. c #A0C7D8",
"H. c #A4CBDB",
"J. c #ACCBDA",
"K. c #B7C2D1",
"L. c #B3CCDA",
"P. c #A6D3DF",
"I. c #AED2DD",
"U. c #B5D2DC",
"Y. c #89C3E0",
"T. c #A3CAE0",
"R. c #ACCDE2",
"E. c #B0CDE0",
"W. c #A5D0E0",
"Q. c #ACD4E1",
"!. c #AED9E4",
"~. c #AED7EA",
"^. c #A6D8ED",
"/. c #B2D6E3",
"(. c #B2DAE5",
"). c #BCDAE4",
"_. c #B1DDEB",
"`. c #BCDDEB",
"'. c #B7DFF2",
"]. c #BDE1EB",
"[. c #B1E1F1",
"{. c #BBE4F2",
"}. c #C0D7E1",
"|. c #C4DBE5",
" X c #C1DEEA",
".X c #CCDFEB",
"XX c #D2DEEB",
"oX c #CAE0E5",
"OX c #C3E3EC",
"+X c #CEE1EC",
"@X c #C2E8EE",
"#X c #CEE8EF",
"$X c #D2E3EC",
"%X c #D3E8EE",
"&X c #C4E3F1",
"*X c #C9E6F5",
"=X c #C7E9F0",
"-X c #CDEFF4",
";X c #D3EDF3",
":X c #DBEDF4",
">X c #DEEFF9",
",X c #D6F2F7",
"<X c #DDF3F6",
"1X c #D7F3F8",
"2X c #DCF3F9",
"3X c #DAF9FA",
"4X c #E1EDF3",
"5X c #EBF2F7",
"6X c #E5F5FA",
"7X c #EDF7F8",
"8X c #E4FAFC",
"9X c #ECFEFE",
"0X c #F7FAF7",
"qX c #FCFBF6",
"wX c #F1F6FA",
"eX c #F4FEFE",
"rX c #FCFEFE",
/* pixels */
"rXrXrXqXqXrXrXrX9X].C.q.#.n n @.n @.@.@.@.@.@.@.@.@.@.@.@.@.@.@.@.@.@.@.@.#.@.@.@.@.@.@.@.@.@.@.@.@.@.@.@.@.@.@.@.@.@.@.@.@.@.@.@.#.w.N.].9XrXrXrXqXqXrXrXrX",
"rXrXrXrXrXrX9X/.,.c o.+.&.&.&.&.&.&.&.&.&.&.&.&.&.&.&.&.&.&.&.&.&.&.&.&.&.&.&.&.&.&.&.&.&.&.&.&.&.&.&.&.&.&.&.&.&.&.&.&.&.&.&.&.&.&.+...@.,.(.9XeXrXrXqXrXrX",
"rXrXrXrXeX-X5.j ..&.{ } { ] *.{ ] ] ] ] *.] ] ] ] ] ] ] ] ] ] ] *.] ] ] ] ] *.[ ] [ ] ] ] ] ] ] ] ] ] ] ] ] ] ] ] ] ] ] ] ] ] ] ] ] { { ] o.j 3.-XeXrXqXrXrX",
"qXrXrXeX].N | ] *.[ { ] { ] ] { ] ] [ ] *.*.*.[ ] ] ] *.] ] ] ] ] ] ] *.] &.] ' ] ] ] ] ] ] ] ] ] ] ] ] ] ] ] ] ] ] ] { ] ] ] *.] ] ' [ [ =.=...-.`.rXrXrXqX",
"qXrXrX].v +.] ] ' [ ' [ [ ] ] ] [ ] ] ] ] ] ] [ { [ ] ] ] ] ] ' ] [ ] ] ] [ ] ' ] ] ' [ ] [ ] ] ] ] ] ' ] ] ] ] [ [ *.] ] *.[ ] [ [ [ [ ) ] [ *.&.v ].rXqXrX",
"rXrX;XA ( [ ] ] [ *.' ' ' [ ] ' ' ' ' ' ' ' ' ' ] ' ' ] ' ' ] ] ' ' ' ' ' ] ] ' [ ' ] ' ' ' ' ] ] ] ] ' ' ' ' ' +.' ' ] ] ] ' ' ' &.[ ' ) ) ' ' ' ( #.,XrXqX",
"rX9X3.| [ [ ' ' &.' &.' &.' ' ' ' *.&.[ ' ' &.*.' ' &.' ' ' ' ' ' &.' &.' &.&.' [ ' ' ' ' ' ' ' ' ' &.[ ] [ ' ' ' *.' ' ' &.&.' &.' &.' ' ) ' &.' [ | 3.9XrX",
"rX/.h *.[ ( +.' ' ' ' ' ' ' ' &.' ' ' ' ' ' ' ' ' ' ( ] ' ' ' ' ' ' &.' ' ' ' ' ' ' ' ] ' ' ' ' ' ' ' ' ' ' ' ' ' ' ] ( ' ' ' ' ' ' ' &.' [ ' ( ] ' +.s (.rX",
"9X1.| ' ' &.' ' ' ( [ ' ' [ ( ' ' ' +.' ' &.' +.' ' ' ' [ ] ' ' ' [ [ ' ' ' ] ' ' ' ' ' ' ' ] ' ' ' ' ' ' ' ( ' ' ' ' ' ' ' ] ' ' ' ' ' ' ' ' ' ' ' &.Q ,.9X",
"OXz ..' ` _ ' ' ' ' ' ( h j z j j | h j h | | 5 ~ ( ' ' ( ( ( o.h j o.' ( ' ' ' _ ' ( ' ( ( ( ' ' ' ' ' ` ' ` ' ' ( ' ' ( ` ' ' ' ' ' ' ' ( ' ' ' ' ' _ z OX",
"V.7 ( ' ' ' [ _ ( ' ~ 9.'.`.`.`.`.`.].`. X`.R.B.5.d h *.( ( o.Y.{.'.8.Q ' ( ( ( ' ' ' ' ' ' _ ' ( ' ( ' ' ' ' ( ' ' ` ' ' ' ` ( ( ( ' ' ( ` ` ' ' ( ' &.| Z.",
"0.Q ' ' ' _ _ ' ( +.Q u.9XeXrXrXrXrXrXrXrXrXrXrXwXOX;.Q ] ) h /.eXrXb.Q ' ' ' ( _ ( _ ' ' ' ( ' ' _ _ ' ' ( ' ' ' ( ' ` ( ` ( ' _ ' ( ( ` ' ' ' _ ' ( ( | q.",
"$.( ' ( ( ( ' ` ( ' W y.9XrXrXeXeXeX9XeXeXeXeXrXrXrX6XH ..' f Q.rXeXj.7 ' +...' ~ +.' _ ( ( _ ( ' ( ` _ _ ' ( ' ` ( ( ` ` ( ` ( ' _ ' ( _ ' ( ( _ ( ( ( Q %.",
" .( ~ _ ( Q ( ( ( ' W y.9XrX5XT Y T 1.2.1.4.v.@XrXrXrX).g +.h Q.rXrXj.7 ( ( _ ' ' ( ( ' _ ' ' ( ~ _ _ ' _ _ _ ~ ( ( ( ( _ ( ( ( ` ( ~ ( ( ' ( ( _ ( ( ( +.X.",
"j ~ ( _ ( ( ( ( _ ( W t.eXrX4Xk 6 Q W Q Q 7 1 s  XrX0X9X;...3 !.rXeXj.7 ' ~ _ ' ( ( ( Q Q Q ~ +.o.( _ _ ' _ o.o.( Q ( ( ( ( ( _ ' ~ o.( ~ ( ` ( ( ! ' _ ( | ",
"h o.( _ _ ( ~ _ ( / 6 y.eXrX>Xj ( ( ( ( _ ' &.E -.8XrXrXm.5 h Q.eXeXh.5 ' ~ ( Q 5 3 d #.-.-.n p 3 Q ( ~ ( Q h p Q o.! _ _ _ ( ~ | 3 s f | _ ( ! ( _ ' ! / Q ",
"h ..! ( ( ( ( _ / ( 6 r.9XrX>Xc Q ( ~ ~ ~ ( ( ~ j 1XeXrXB.p f Q.rXeXj.| ( ( Q j l._.=X2X6X6X2X].z.d Q &.E u.{.&XA.h ~ o.~ ~ Q Q $._.{.^. ._ _ _ ~ _ _ ! / o.",
"j .._ _ ~ ! _ ~ Q ( 4 e.eXrX>X .Q o...~ ..Q / Q z 2XrXrXM.1 f !.rXwXj.5 ( Q v _.eXrXrXrXrXrXrXrXrX/.d / 6 r.eXrX6Xn Q ~ o.~ ( 7 C.rXrX).s Q ( Q ~ ( ! ( Q | ",
"h Q ~ ~ ! ~ ~ ~ ~ ~ 6 e.eXqX>XO.~ ~ ( _ _ ~ o.< >.9XrXrXh.5 s Q.rXeXh.3 ~ s !.rX0XeXXXR.T.!.2XrX0XrXz.; ^ x ,XeXrXj.3 _ ~ Q Q s @XrXrXf.1 Q Q ~ Q ! ! ~ Q | ",
"h Q ~ ~ Q Q ~ ! ~ ~ 6 e.eXrX>Xw 1 7 6 4 5 f : N =XrXrX6Xm 7 3 !.rXrXh.p 7 <.9XeXeXz.w 1 1 : A #XrXrX|.s _ 1 H.rXrX).p _ ..~ 8 :.9XrX4Xl ~ _ ( ~ ^ ~ ( Q Q | ",
"s Q ! ~ ^ ~ ~ ! ^ ~ 6 e.eXrX5Xs.a.4.4.4.f.v./.2XrX0XrXF.p Q 3 !.rXrXh.5 5 Z.eXrX}.= o...o.+.# l.rXrX$Xk _ 5 >.9XrX5X-.E _ ~ 1 D.rXrXJ.1 _ _ ^ ! ~ Q ~ Q Q | ",
"j Q ~ ~ Q ( ~ ^ Q ~ 4 6.9XeXrXrXrXeXrXrXeXrXrXqXqXrXOXl | ~ 3 P.rXrXh.5 Q M T A.,.s ~ E E 5 : Y eXrX+Xa ^ ^ | *XrXrXm.1 ..Q c -XrXeX;.E Q ..Q ! ^ ( ~ Q Q | ",
"g Q ! ~ W ~ ~ ! ^ ~ 4 e.eXeXrXrXrXrXrXrXrXrXrXrX3XH.k 5 ..~ 3 !.rXrXh.5 ^ Q 7 $ ; p v #.U l.I.%XeXrX$Xa Q ~ $ n.eXrX.Xa | 6 3.9XrX$Xa Q o.| Q Q Q ~ ! ~ | | ",
"p Q ! ~ ! W ~ ! ~ Q 4 e.eXrXwXL.W.R.E.E.R.R.N.,.m : 7 _ E E ; !.rXeXh.% 7 ^ 1 G H.`.;X9XeXeXrXrXrXrXXXp ~ ..W #.8XrX9XF 1 1 W.rXrXB.% Q ~ W ! ! Q W ! Q Q h ",
"s 7 ~ Q W ~ ! ! ! ~ $ w.eXrX:Xr 1 % 1 1 1 1 1 5 5 Q Q ! W Q 1 I.rXrXh.% | p n.8XrXrXrXrXrXeX<XoXrXrX$Xp Q Q Q 1 (.rXrXB.: v 2XrX7XH 5 Q Q ^ ! ! W Q ! Q Q f ",
"f Q ! ~ Q Q E ~ ! ~ % w.eXrX>Xz ~ ~ Q Q Q Q Q Q Q Q Q ~ Q Q 1 !.eXrXg.% 1 6.9XeXrX6X XE.c.2.l Y eXrX.Xf Q Q ~ ; 7.eXrX%X& l.eXrX}.q Q Q Q W W Q Q Q ! ~ Q Q ",
"f E ! E W Q Q Q ! ~ 4 w.eXrX>Xd R ~ Q Q W W W W E Q E ! Q 7 ; !.rXeXh.% h @XrXqX$XC : ; % 5 $ e.9XrXXXp E ~ ~ 5 x ,XrXeXJ U.rXeXf.: ! Q W W W W E W ! E Q | ",
"f E ! W Q W W W W Q $ w.9XrX>Xd E ! W W ! W ! W Q W ! W Q Q 1 I.rXrXh.% n 3XrXrXp.# ^ 8 / / @ S.rXrXXXg E E W Q > H.rXrXK.4XrX<Xu E ! W E ~ E ~ Q Q Q Q E 5 ",
"a 5 W W R Q W W R Q < w.9XrX:Xk W E Q W W W W Q R W Q W Q Q 1 !.rXeXh.% c 3XrXeXi.# | E 7 @ A 6XrXrX:Xa 5 W W Q , >.9XrXwX0XrXL.- ~ W R 6 W W W W R W W Q 3 ",
"p 5 W W 6 R E W W W > w.eXrX:Xk E W R E W W 6 Q R W R E 6 R ; Q.rXrXd.# j -XrXrX$XB * - k 4.-XrXrXrX4Xt 6 W 8 E W p @XrXrXqXrXP % Q E E W W 6 W R W W Q 7 3 ",
"a 5 R W W W E E 6 Q < q.9XrX>Xd 5 R Q 6 6 6 E R W 6 E R E W ; W.eXeXd.% # v.eXeXrX8XU.U.;XeXrX7X9XeX5Xi 5 R 6 R R % V.eXrXrX%Xw 5 E 5 6 W 6 6 W Q R R R 7 h ",
"n 4 W R 6 R R R 6 E $ w.eXrX2Xs 4 R 6 R R R 6 5 6 6 6 E 6 E ; !.rXrXf.$ Q - D.9XrXrXrXrXrXeX XV oXeXrXn.$ E W 6 6 5 b 6XrXrXB.+ W W 5 6 W R R R 6 R W 5 < O.",
";.% R 6 6 R 6 R 5 R 4 @.h.f.5.1 5 R 6 R R R E 6 6 6 R R R 6 4 :.6.f.n 4 5 6 # G H.=X.X`.G.Y * O F k.k.-.5 R 6 5 R 5 e ;XrXwXA 1 W 6 6 W R R W 6 R 6 5 E ; <.",
"v.# 6 4 6 4 R R 4 R R 4 . + $ 5 4 R 4 R R 4 4 6 4 R 4 R 6 4 5 $ @ . > 6 4 6 7 ; # # # # # $ 5 Q < . @ % 5 4 4 E E $ >.9XrX|.q < 4 4 4 R 4 4 R 4 6 4 4 R @ x.",
"|.q 4 5 5 R R 4 R , 2 4 Q 5 R 6 4 R R 4 6 4 R 4 E 4 R , 4 6 5 5 E 7 4 W R 4 5 5 5 6 6 6 E R R 6 R W Q R 6 R 4 ; % o /.eXrXg.O 6 4 W 4 4 W 4 R 4 6 6 6 4 q `.",
"9XS $ E R $ 4 2 < 4 5 4 4 6 4 4 4 4 4 6 4 4 4 4 4 4 4 6 4 4 4 , 4 4 4 4 R R R 6 4 , 4 4 R 4 < < 4 4 6 4 2 > #.Y Z H.eXrX:Xy 1 4 4 4 4 4 4 4 4 4 4 4 4 $ G 9X",
"rXI.O 5 4 6 4 2 4 6 R R 4 < 4 R 4 4 4 4 4 4 4 4 4 4 4 4 4 4 , 4 6 4 2 4 , 6 4 4 4 R , R R , , 2 4 E R 4 2 . N.eXeXrX0XrXc.+ E 4 4 4 4 4 4 4 4 4 4 2 1 O I.rX",
"rX9XL @ 1 4 4 4 < 2 R , 4 < < 2 4 4 4 4 4 4 4 4 4 4 4 , 4 4 4 4 4 4 < < $ , 4 , E 4 $ 4 4 4 4 4 R R $ 4 4 . n.rXrXrXrXL.= % 4 4 4 4 4 4 4 4 4 4 , 6 O K eXeX",
"rXrX;Xt O 1 $ R 4 4 $ , , , 4 4 4 4 4 4 4 $ 4 R 4 4 $ 4 4 4 $ 4 4 2 > < > 4 4 4 4 % < < < 4 4 4 $ 4 > 4 , > v ~.*X`.z.& % 5 , 4 4 4 4 4 4 4 4 $ 4 # r ;XrX0X",
"rXqXrX`.& $ ! $ R 4 % 4 R , $ E 4 4 4 < 4 4 , $ 4 4 4 4 4 4 4 4 , , 4 4 4 4 4 4 , 4 4 4 4 , 4 4 4 4 4 4 4 4 < @ - # + $ 5 $ 4 4 4 4 < 4 < 4 4 6 # &  XrXrXrX",
"rXqXrXeX`.0 @ < 4 5 4 $ 4 , 4 $ 4 $ 4 4 4 4 $ E 4 5 4 4 % 4 5 4 % 4 % R 4 4 5 4 , , 4 4 4 4 4 4 4 , 4 4 $ 4 5 4 4 4 5 4 4 4 5 4 4 < < 4 , , 4 + 9 ).rXrXrXrX",
"rXrXrXrXrX;XS   @ < $ R 4 % 4 4 4 4 < < 4 < $ 4 > < > 4 4 4 > > , 4 $ 4 < > 4 $ 4 $ $ 4 < > 4 $ $ $ 4 < 4 4 $ 4 4 $ 4 < $ , 4 $ 2 < < 6 R . o L %XeXeXrXrXrX",
"rXqXqXqXqXrX9XJ.b * X # % ; < $ $ < $ < < % < < $ < < < $ < < < < < > < < < < $ < < 4 $ < < < < 5 $ < < $ % $ < < $ 1 $ < < $ < < # # X * Z L.wXrXrXrXrXrXrX",
"rXrXrXrXqXqXrXqX9X).z.F y * * * - - - - - - - - - - - - - - - - - - - - - - - - * * - - - * * - - - * * * - * * - * - * - * * - * e G l.).9XrXrXrXqXqXqXrXrX"
};
