/* XPM */
static char *btn_reset[] = {
/* columns rows colors chars-per-pixel */
"99 44 223 2 ",
"   c #2F7CAE",
".  c #3577A5",
"X  c #3578A4",
"o  c #3977AC",
"O  c #337AAD",
"+  c #3B7EAD",
"@  c #2E7CB3",
"#  c #327DB3",
"$  c #3A7FB1",
"%  c #337FB8",
"&  c #447EA5",
"*  c #427CAC",
"=  c #497FAA",
"-  c #3C80AD",
";  c #2F81B6",
":  c #2E82BA",
">  c #2F88BD",
",  c #3483B6",
"<  c #3B82B4",
"1  c #3F8AB3",
"2  c #3484BB",
"3  c #3B85BC",
"4  c #3588BE",
"5  c #3A89BD",
"6  c #4583AE",
"7  c #4C84AC",
"8  c #4C8AAF",
"9  c #5287AA",
"0  c #5887A8",
"q  c #538BAF",
"w  c #4283B3",
"e  c #4C85B3",
"r  c #458CB6",
"t  c #4B8BB5",
"y  c #4285BB",
"u  c #4985B9",
"i  c #448ABC",
"p  c #4B8CBB",
"a  c #538AB2",
"s  c #5D8FB4",
"d  c #528DBA",
"f  c #598DBD",
"g  c #4E92BD",
"h  c #5192BC",
"j  c #5B93BB",
"k  c #5798BD",
"l  c #5D9ABB",
"z  c #608AB3",
"x  c #6494B4",
"c  c #6D97B6",
"v  c #6C99B7",
"b  c #6097BF",
"n  c #6A96B8",
"m  c #649BBD",
"M  c #6C9CBB",
"N  c #739BB5",
"B  c #7097BC",
"V  c #729EBD",
"C  c #7B9CBB",
"Z  c #6EA6BF",
"A  c #73A2BD",
"S  c #72AABF",
"D  c #2F88C1",
"F  c #3486C2",
"G  c #3986C2",
"H  c #368AC3",
"J  c #3A8BC4",
"K  c #368DC9",
"L  c #3A8ECB",
"P  c #3B91C6",
"I  c #3692CC",
"U  c #3B91CD",
"Y  c #358ED1",
"T  c #3A8FD0",
"R  c #3793D4",
"E  c #3C94D3",
"W  c #3E98D7",
"Q  c #3C96D9",
"!  c #3D98D8",
"~  c #4185C2",
"^  c #438CC1",
"/  c #498BC1",
"(  c #418ECA",
")  c #538FC1",
"_  c #4D93C4",
"`  c #4D98C5",
"'  c #4292CB",
"]  c #4C92C8",
"[  c #5093C4",
"{  c #5997C3",
"}  c #549CC6",
"|  c #5B9AC3",
" . c #549CCF",
".. c #5C9DCC",
"X. c #4095D3",
"o. c #4098D6",
"O. c #4094D8",
"+. c #4198DB",
"@. c #6495C2",
"#. c #639CC3",
"$. c #6A9EC3",
"%. c #6194C8",
"&. c #639DC8",
"*. c #6B9FC8",
"=. c #769EC9",
"-. c #5EA2CB",
";. c #5EA1D2",
":. c #64A2C4",
">. c #62A1CB",
",. c #6CA5CA",
"<. c #74A4C2",
"1. c #7CA4C3",
"2. c #74AAC3",
"3. c #7DACC4",
"4. c #74A6CC",
"5. c #73ABCB",
"6. c #7BAECB",
"7. c #7BB2CD",
"8. c #63A5D2",
"9. c #6AA7D1",
"0. c #6BACD6",
"q. c #62ABD8",
"w. c #73ADD4",
"e. c #7CAED2",
"r. c #70ADD8",
"t. c #74B2D5",
"y. c #7AB2D2",
"u. c #75B5DB",
"i. c #78B6DB",
"p. c #7BB9DD",
"a. c #80A3BE",
"s. c #80A8BC",
"d. c #A5B3BF",
"f. c #82A6C2",
"g. c #82AEC5",
"h. c #81AEC9",
"j. c #89AFCB",
"k. c #9CAFC4",
"l. c #82B0C7",
"z. c #84B3CE",
"x. c #8BB2CA",
"c. c #8EBBCF",
"v. c #93B5CD",
"b. c #98B8CC",
"n. c #82B3D1",
"m. c #83B9D4",
"M. c #8CBBD2",
"N. c #83BAD8",
"B. c #92BCD4",
"V. c #9CBCD2",
"C. c #8EC1D7",
"Z. c #8BC2DD",
"A. c #93C0D6",
"S. c #9CC3D7",
"D. c #92C2DB",
"F. c #9CC5DB",
"G. c #9EC9DE",
"H. c #A5C1D4",
"J. c #ADC3D7",
"K. c #AEC8D7",
"L. c #A2C3DC",
"P. c #A3C9DD",
"I. c #ACCDDD",
"U. c #B0CAD7",
"Y. c #B4CBDB",
"T. c #BFCFDD",
"R. c #B5D2DF",
"E. c #BAD2DF",
"W. c #BED8DE",
"Q. c #A1C5E0",
"!. c #A9CDE1",
"~. c #ADD4E3",
"^. c #AFD8E5",
"/. c #ACD9EB",
"(. c #B4D4E3",
"). c #BBD3E3",
"_. c #B3DAE6",
"`. c #BCD9E5",
"'. c #B1D7E8",
"]. c #B4DBEA",
"[. c #BCDDED",
"{. c #BDE1EC",
"}. c #B5E1F4",
"|. c #BDE4F6",
" X c #C1D5DD",
".X c #C1D3E4",
"XX c #C2DCE5",
"oX c #C9DBE4",
"OX c #C1DDEA",
"+X c #D4DCE7",
"@X c #D4DEEB",
"#X c #C3E0E7",
"$X c #CAE1E7",
"%X c #C3E1EB",
"&X c #CBE3ED",
"*X c #CFE8EF",
"=X c #D4E4ED",
"-X c #D5E9EE",
";X c #C4E2F1",
":X c #CAE5F1",
">X c #C5E8F4",
",X c #CBE9F2",
"<X c #D2E6F0",
"1X c #D4EDF3",
"2X c #DBEEF5",
"3X c #DFEFF9",
"4X c #D4F1F6",
"5X c #DBF1F6",
"6X c #D5F1F9",
"7X c #DCF4F9",
"8X c #E2EDF6",
"9X c #E1EEF8",
"0X c #E4F3F6",
"qX c #E9F5F7",
"wX c #E3F4F9",
"eX c #EBF6F9",
"rX c #E5F9FA",
"tX c #ECFBFD",
"yX c #F2F3F7",
"uX c #FBFDF7",
"iX c #F1F5F9",
"pX c #F4FEFE",
"aX c #FDFEFE",
/* pixels */
"aXaXaXaXaXuXuXaXtX%XZ.r...[ [ [ [ [ [ [ _ [ [ [ [ [ [ [ [ [ [ [ [ _ [ [ [ [ [ [ [ [ [ [ [ [ [ [ _ [ [ [ [ [ [ [ [ [ [ [ [ [ [ [ [ [ [ [ [ [ [ [ [ [ [ [ [ _ [ [ [ [ [ [ [ | r.Z.{.tXaXaXpXaXaXaXaXaXaX",
"uXaXaXaXaXaXtX'.,.] U Q W X.X.X.X.X.X.X.o.X.X.X.X.X.X.E X.X.X.X.X.X.X.X.X.X.X.X.X.X.o.X.E X.X.X.X.X.X.X.X.X.X.X.E X.X.X.X.X.E X.X.X.o.X.X.E X.X.E E W W X.X.X.X.W ! ! ! o.X.' ' [ 5.^.tXaXaXuXaXaXaXaX",
"aXaXaXuXaX4X6.^ U ! ! +.! W o.! W Q W Q W ! ! ! ! o.! ! W Q Q W ! ! ! ! ! ! ! ! W ! W Q ! ! ! W ! ! ! ! Q ! o.Q ! o.! ! ! ! ! ! W W W W W Q ! ! ! ! E ! ! o.Q W ! ! Q Q ! o.o.o.! U J e.4XaXaXaXaXaXaX",
"aXaXaXaX;X{ L o.o.o.! ! o.W ! ! W W W W W W W W W ! ! ! W W o.W ! W W W W W W ! W W W o.W W o.W W W W ! W W W o.! ! ! ! W ! o.! W W W W W W o.W E W W ! W W ! W W W Q ! ! ! Q ! X.X.+.L { %XaXaXaXaXaX",
"aXuXaX;Xh E ! W W W W W W W W E W W E W E W E W W W W E Q W W W Q E W W W W W E E Q Q E W W W ! W W E Q o.E E Q E E W W E W W W W E W W W W W ! ! R E W W W W W W W ! E Q Q Q Q O.X.X.! U g %XaXaXaXaX",
"uXaX2X{ U E W E E E E E E X.W E E X.O.X.O.X.E O.E X.X.O.X.O.E X.O.E X.O.X.E X.O.X.X.X.O.E X.X.E E X.E X.X.O.E O.O.E X.O.X.X.E X.X.O.O.E E X.X.E W W W W E E X.X.E X.E W W W E W Q Q X.E ! E | 1XaXuXaX",
"uXpX6.L W X.U E Q Q E Q E W E E E E O.W E E E E X.E E E E E E O.X.E E E o.E E E W E E E E O.W E E E O.W E E E o.O.E E E W E E O.E E W E E O.E E W E E W E E W E E E E E E W E E W W Q X.W Q J 6.pXpXaX",
"aX^.J X.U W W E E E ' E E E W E E E E E E E E E E E E E E E E E E E E E E E E E E E E E E E E E E E E E E E E E E E E E E E E E E E E E E E E E U E E E E E E E W E E E E E E E U W U E U E O./ (.aXpX",
"pX9.U E ' E R E U X.E E E E W E W X.O.o.X.E W W Q Q U ' E O.X.E E E E U U U W U X.E E E E E E E E E E E E E E E E E E R E E E E E E U U E U U E E E E E E E E X.E W U W E T E W E U E E X.E O.L ,.pXaX",
"%X/ E E R E E E E R E U ^ i i i / ^ i i i / i ^ K J ' X.R E U U E U E E E E E E E E U E E U E U R E E U U E U E E E E E E E U E E U E E E W W W E R E E E E E E U U E E T O.U U E E E E R L E U i &XaX",
"A.5 U E E E E E E E L q.}.[.[.%X[.{.[.{.[.[.{.'.B.5.[ L E I E E U E E E R R E E E U U U E R E R E U E E E E E E E E U E U E E E R U R E E R E R U R E E E T R R E E L i ..E U U T E U E E E E O.5 F.aX",
"0.P U E R U ' T I U K p.pXaXaXaXaXaXaXaXaXaXaXaXaXpX1X*.L U R T E U E U E E I U U E E U U U E E E U I E R U U E U T U ' U U R E E U E E U U U U U U U U U U U R E U h /.>X^ U E T E U E E T U E K 7.pX",
" .P ( E R U U T I E K i.pXaXpXpXtXtXtXtXtXtXpXpXaXaXaX9X@.P ' E U U U U E U L ( E E E T U U U U U E U U U L ' U E T T U U U E I U U U L T U ( U E T U U L U U U Y  .4XaX=Xp T E U E U R U U E U Y &.tX",
"' P L T E U U U U L K i.pXaX9XN m #.| &.#.$.m y.:XpXuXaX).u U U U L U R E T E E E I U U E U U U U U Y R R U U U U U E T T U U U U U U E T E T E E L E E E L E U P 8.pXaX@Xp E L U L U U U U L E I k eX",
"^ U L U U L E U L U H i.pXaX9Xa L L K K J L P G ^ [.pXaXiX%.L U U U E U U U K H G U U U Y I U L L U U E R E Y J J P U U T L U ( L U U U E L P J J U U Y R U E ' L 8.tXaX@X/ E U U L U I U U L L I k eX",
"^ L U U L L Y U U U G i.pXaX3X_ L L T T E U U U H ,.tXaXpX4.G L I L L J 3 r { &.{ r 3 ( L U L L U L U 4 1 p | #.{ u 3 J E Y E L U Y U P 3 r | &.k u 3 P U U L U , $.tXaX+Xe y J U Y U U I U E L P [ eX",
"^ U L L L U U U E L H u.pXaX9Xg L L L L U L L L I _ eXaXpXn.3 ( I T G m !.,X5XtX7X,XS.d ~ L T U P U 3 5.].1XeXeX7X:XP.@.~ U L U I T G #.I.,X7XtX7X:XV.h G U I ' /.<XpXaXiXOX;Xm.5 U T U U U L L J [ qX",
"i L I L L U L K L L 4 u.pXaX7Xg L U L L U E I E > 5.pXaXpX=.~ U P 3 z.rXaXaXaXaXaXaXaX5Xv 3 E K P y D.pXaXaXaXaXaXaXaXeX1.3 P P P 3 n.rXaXpXaXaXaXaXaX5XM y Y ` iXaXpXaXaXaXaXU.< ( J L L U L I J g rX",
"^ U L P L L P K L L 4 u.pXaX2Xu G G H H H F F 2 d :XpXaX0X) ~ U G e.pXpXaXeX'.L.).eXpXaX0X@.G E F 5.tXaXpX=XI.G.].tXaXaX2Xd J L G e.pXaXaXeX(.Q.`.eXpXaXqX@.H ] ~.&XpXaXyXW.#Xl.G L L L L K L P K [ rX",
"i L K P L K K P L L 4 t.pXaXqXV &.*.&.*.&.$.<.c.1XaXaXaXH.< P L ] 4XaXpX&Xx < , $ Z 1XaXaX).w U G ~.aXaXU.7 3 3 $ 1.tXpXpXn.y ~ _ 4XuXpX&Xx $ , < $.1XpXaX.Xw ~ ; m eXaX@X& , 5 L L L L P L L K J g rX",
"i L K J L L J J L T 2 t.pXaXpXtXtXtXtXtXtXpXpXaXaXaXaXOXt P L F N.pXaX0Xs y U I R F :.tXaXiX$.3 ^ >XaXpXC + E U ( % G.tX-Xn.3 5 N.pXaX0Xs y U I E F >.tXaXiXm J L 8.tXaX@X/ I I Y L L J L J L K P g rX",
"i L K P L L P I J U F u.aXaXaXaXaXaXaXaXaXaXuXaXpX5XS.t G J T G ].aXaXV.o J G G F G < _.aXaXB., J /.aXaX=X<.u - G K ] | e ^ L G ].aXaXV.o G F 5 G G $ `.aXpXB.2 H -.tXaX=Xu J L L K P L L J L L K h qX",
"5 P K P J L J J J U 4 u.pXaXuX$X%X%XoX-XtXaXaXuXd.0 3 ~ P P Y r 2XaXaXJ.f.h.6.l.g.g.C  XaXaXY.y 5 m.pXuXaXpX-XY.h.j - , J L J r 6XaXaXJ.f.h.6.l.3.l.a. XaXaXY.y K -.pXaX=Xu J L K J J J J K K L H h qX",
"i J K H J K K H J H 2 u.pXaX8X7 - < < u 6.4XaXaX0XC y P H J K ] wXaXaXaXaXaXpXaXaXpXaXaXaXaXT.w P y '.aXaXaXaXaXaXeXOXj.u G K [ rXaXaXpXaXaXaXaXpXaXaXaXpXaXT.w F >.pXaX@Xu H J J L H K K J K J H g rX",
"5 J K J J J K J J L % u.pXaX9Xp L Y J L 2 l rXaXaXeXn < H K K ` rXpXuXaXpXpXpXpXpXpXpXpXpXaX(.3 J G u M.,XpXaXaXaXaXpXaX&Xa G _ rXpXaXaXpXpXpXpXpXpXpXpXpXaXR.w 4 -.tXaX@Xu P H H J J J J K K J F g qX",
"y J K J J J J J K J 2 r.pXaX9Xp H J J J L 2 y.pXuXaX=Xt J J F / rXaXaXk.V <.<.<.2.A 1.<.V 2.@.G J T H % r *.A.#X3XpXaXuXaX).$ _ rXaXuXk.A <.<.<.A <.<.<.A <.&.y G ;.tXaX@Xu J K P H J J J H H P F g eX",
"y J H J J J J G J J % u.pXaX7Xr G K J 3 5 L < ~.aXiXaXL.$ ( G ^ 6XaXaXa.o 2 2 3 ; , 2 w a * $ J 5 * h { 5 2 ; - q S -XaXaXeX) y 6XaXaXC o 2 2 % , , 2 w q & # J D ;.tXaX@Xu K H H H J J H H J H 4 h rX",
"y G K H G J H H H J 2 w.pXaX2Xt G K K 5 5 H > h 7XaXuXpXB $ P G ^.pXaX).* P J K L I < /.rX<XM.% } '.7X<X8 G H P J , l eXaXeXf < ^.aXaXE.* P P K L P , /.wX<XM.5 F &.tXaX@Xu J K H K H H H J H H 4 d rX",
"1 J H G J H F H H H ; t.pXaX2Xt G H K G F F H 2 y.pXuXaX@X= J % y.pXaXpX1.o 4 J H   S pXaXaXx.@ ` rXaXpXa.o 5 H K ; l tXaXeXj # y.pXaXpX1.o 4 H J   2.pXaXaXx., 4 >.tXaX2X= % 2 J H H 4 H 5 H 4 4 t rX",
"< G H 4 G G G H H 4 ; w.pXaX8Xe 4 4 H G D H 5 5 < `.aXaXaXv.o J 1 :XaXaXiXv.a w 8 l.7XpXaX=X7 5 2 ~.aXaXqXg.a 6 t $.*XaXaXoX< G 1 ,XaXuXiXv.a e 8 h.wXpXaX=X= G : } tXaXpXb.A b , G 4 H 4 H 4 H 5 p rX",
"y G H 4 H G 4 G 4 H ; t.pXaX2Xu G H 4 4 K F G 4 2 k rXaXpX0Xz 3 , l 7XaXpXaX8XoX2XaXpXaXeXv < J ; k wXaXaXpX3XXX&XpXaXaXeXc % P , l rXaXpXaX8XoX2XaXaXpXeXn < G 4 r 7XpXuXpXaXU.$ H 4 4 G 4 H H 4 h eX",
"/ 4 H 4 4 G 4 4 4 G % t.pXaXwXr 2 G 4 4 4 4 F 4 K @ B.aXuXaXXX$ H ; l :XaXaXaXaXaXaXaX-XB $ J 4 4 2 m 4XpXaXaXaXaXaXaX2XV # G 3 G ; k :XpXaXaXaXaXaXaX-XM - 4 H G , B.pXaXaXaX=Xw 4 4 4 G 4 F F 2 j tX",
",.% G 5 F F 4 F G 3 2 [ 6.h.2.3 F 2 2 4 4 4 4 F 4 4 6 2.g.g.3.y H H 2 6 <.P.OX:X:X~.1.= + G F 4 4 F @ t 6.!.;X&X;XP.3.e $ G G 5 G F 2 6 <.P.;X&X:X~.1.7 % 4 F G G 2 + <.G.~.I.j.3 5 4 F F 2 4 G ; 4.pX",
"c.# F 2 4 4 2 2 D F 4 % @ # # < 2 4 G 4 2 F 2 4 F F 4 @     @ 4 4 4 4 4 @ # $ $ - O # 4 G F 2 4 F 2 G 2 # # $ + * + @ 4 F F F 2 G F F G @ # $ $ + o # 5 G 2 4 2 F F G @ # O o o 2 2 4 F G G 4 H O V.aX",
"`.w F 4 < 4 F 4 F F G 4 5 5 G 4 G 4 2 F 2 G 2 G F D G 4 5 4 F D 2 4 2 4 F G G F F 4 F F > 4 4 2 , 2 2 G G G 4 4 G F F D D G F 2 , 4 2 4 G H G F 4 F G F D 4 , , D F F G 4 4 4 G 2 4 4 , 2 2 F 2 6 OXaX",
"pXM @ G < 2 F 2 2 2 2 5 , ; 2 2 2 2 F 2 4 2 F 2 2 4 4 , 5 , 2 2 2 2 2 , , < 2 4 2 4 F 2 2 4 2 2 4 4 2 F F 2 2 2 2 2 4 2 2 2 2 3 2 4 , 2 , , , 4 2 2 4 2 4 > 4 2 2 2 , 4 4 2 4 4 F 4 , 2 2 2 3 # n pXaX",
"aXR.O G 3 , F 2 2 2 4 2 4 2 : F 2 F 2 2 F 2 3 F , 2 2 2 2 2 2 2 2 2 2 2 , 2 2 2 2 2 2 < 2 2 2 2 2 2 4 2 4 2 2 2 F 2 F < 2 2 2 4 4 2 2 2 2 2 2 2 2 , 2 < 2 2 2 2 2 < 2 2 2 2 , 4 F 2 2 2 4 4 5 o ~.aXaX",
"aXpXM @ G , 4 2 2 2 2 2 2 2 4 : 2 2 2 2 2 2 % 2 4 2 2 2 4 , 2 2 2 2 2 2 4 2 F F F % 2 , 2 2 2 2 2 2 , ; , 2 2 % % 2 2 2 2 2 2 2 2 2 2 % 2 2 F F > 2 2 % < 2 2 2 2 F 2 % , 2 2 2 2 2 % 4 : , O $.tXaXpX",
"aXaX1X9 O , 2 < , 2 2 2 , < , 2 2 2 2 % 2 % 2 2 2 2 2 2 2 2 2 2 2 2 2 2 2 % 2 2 F 2 % F 2 3 2 2 2 2 2 2 2 2 D D 2 2 2 2 2 % % F 2 2 2 2 2 2 2 2 2 2 2 F F % F 2 2 F 2 2 , 2 2 2 2 3 4 , , - 9 1XaXaXaX",
"pXaXaXOX& 2 F 2 2 2 % 2 , 2 2 2 2 % 2 F F % 2 2 2 % 2 2 , ; 2 2 2 2 2 2 2 2 2 2 2 2 F 2 % 2 4 , 2 2 2 2 2 2 2 2 2 2 2 2 2 2 , 2 2 2 2 2 % 2 , 2 2 2 2 2 2 2 2 2 2 2 2 2 2 2 2 2 2 % 2 , , 6 OXaXuXaXaX",
"aXaXaXaX`.8 O 4 , 4 2 2 2 2 , 2 2 2 2 2 2 2 2 ; 2 2 2 2 , , 2 2 2 , 2 2 2 , 2 , ; , , , 2 2 , 2 2 2 2 , 2 , , , 2 2 2 2 2 ; , , , ; , 4 2 2 ; , ; 2 2 2 2 4 , , 2 2 2 2 , 2 2 , , G G   9 `.aXaXaXaXaX",
"aXaXaXaXaX-XM .   , 2 2 : : ; 2 2 % , , ; 2 2 , , ; , 2 , 2 , ; ; 2 , ; 2 , , 2 2 , 2 4 2 ; ; , , , , 2 , , 2 2 2 ; , , ; 2 , , 2 ; , , 2 , 2 , , ; 2 2 2 , , ; % ; 2 % < ; : , , @ O M -XaXaXaXaXaXaX",
"aXaXaXaXaXaXtXI.x & . O % ; ; 2 % 2 % 2 2 % , 2 2 % % 2 2 2 % 2 % 2 2 ; 2 ; % 2 2 % ; 2 2 % % 2 ; 2 2 ; 2 % 2 ; ; 2 % 2 % 2 2 2 % 2 2 2 % 2 ; 2 2 , 2 % % ; 2 , % , 2 % , ; O O - n I.pXaXaXpXaXaXaXaX",
"aXaXaXaXuXuXaXaXtX`.x.#.t + - - $ $ # + + $ $ + $ $ + $ + $ + $ + $ $ $ $ $ + $ + $ $ + $ $ + $ $ + $ $ $ + $ $ $ $ + $ + $ $ $ $ $ + $ + $ $ $ + + $ $ $ + - + + + $ O 6 u | x.`.eXaXaXaXaXaXaXaXaXaX"
};
