/* XPM */
static char *btn_validate[] = {
/* columns rows colors chars-per-pixel */
"101 35 216 2 ",
"   c #2F77A7",
".  c #2D79AD",
"X  c #3476AB",
"o  c #357BAC",
"O  c #3E7EA9",
"+  c #267AB2",
"@  c #2D7CB3",
"#  c #2D7DBA",
"$  c #337EB4",
"%  c #327EBB",
"&  c #387FB8",
"*  c #407EAF",
"=  c #2C81B3",
"-  c #2E82BB",
";  c #3582B7",
":  c #3B83B4",
">  c #3484BB",
",  c #3A85BC",
"<  c #3489BE",
"1  c #3B8ABC",
"2  c #4482AC",
"3  c #5789AC",
"4  c #598DAD",
"5  c #4385B4",
"6  c #4A83B3",
"7  c #438AB5",
"8  c #4D8BB6",
"9  c #4386BA",
"0  c #448BBC",
"q  c #4C8CBB",
"w  c #528CB4",
"e  c #538DBA",
"r  c #598EBA",
"t  c #4B90B4",
"y  c #4790B8",
"u  c #4D92BD",
"i  c #5790B6",
"p  c #5E91B7",
"a  c #5493BC",
"s  c #5991BB",
"d  c #5C9ABC",
"f  c #6797B7",
"g  c #6E94B1",
"h  c #6496BA",
"j  c #669ABD",
"k  c #6B99BE",
"l  c #729DBD",
"z  c #7A9DBC",
"x  c #68A2BF",
"c  c #75A3BE",
"v  c #78A1B9",
"b  c #2E85C1",
"n  c #2F88C6",
"m  c #2F86C8",
"M  c #2F8BCA",
"N  c #3486C1",
"B  c #3986C2",
"V  c #358AC4",
"C  c #398BC4",
"Z  c #3386C9",
"A  c #358CCB",
"S  c #3A8DCB",
"D  c #3690C7",
"F  c #3990C5",
"G  c #3791CD",
"H  c #3B92CE",
"J  c #3B8ED1",
"K  c #3691D1",
"L  c #3C94D3",
"P  c #3A98D4",
"I  c #3E97D8",
"U  c #3D98DA",
"Y  c #4187C0",
"T  c #438EC3",
"R  c #4D8EC2",
"E  c #438FCA",
"W  c #508FC0",
"Q  c #4491C6",
"!  c #4C93C2",
"~  c #4496CF",
"^  c #4D93C9",
"/  c #4498CE",
"(  c #5394C2",
")  c #5C94C3",
"_  c #559AC4",
"`  c #5C9CC4",
"'  c #5197C9",
"]  c #559DCE",
"[  c #5C9DCC",
"{  c #4396D2",
"}  c #4799D6",
"|  c #4898D1",
" . c #4098DB",
".. c #6C97C1",
"X. c #649DC2",
"o. c #6B9CC2",
"O. c #619BC8",
"+. c #689DC8",
"@. c #719FC3",
"#. c #739ECA",
"$. c #5DA0C7",
"%. c #5EA4CD",
"&. c #5EA2D4",
"*. c #61A2C4",
"=. c #6CA2C3",
"-. c #6FA9C7",
";. c #63A2CB",
":. c #6CA5CB",
">. c #6DABCC",
",. c #74A3C2",
"<. c #79A2C3",
"1. c #74A9C5",
"2. c #73A5C8",
"3. c #73AACC",
"4. c #7AABCA",
"5. c #7EB0CE",
"6. c #63A7D2",
"7. c #63A8D4",
"8. c #6DADD2",
"9. c #75ACD2",
"0. c #7CAFD2",
"q. c #77B2D5",
"w. c #7CB2D3",
"e. c #81AAC3",
"r. c #8DACC7",
"t. c #85ADCB",
"y. c #8AAECA",
"u. c #96AEC0",
"i. c #85B4CE",
"p. c #8BB0CA",
"a. c #93B5CC",
"s. c #91BACF",
"d. c #9ABBCE",
"f. c #81B4D3",
"g. c #8AB4D2",
"h. c #84BAD3",
"j. c #8CBBD3",
"k. c #93B3D0",
"l. c #94BDD7",
"z. c #9CBCD3",
"x. c #91B9D8",
"c. c #A3BDD0",
"v. c #81BEE1",
"b. c #8CC1D6",
"n. c #8BC0DB",
"m. c #99C3D7",
"M. c #94C3DA",
"N. c #9BC6DB",
"B. c #9CC8DD",
"V. c #A1C1D6",
"C. c #A8C0D2",
"Z. c #A1C5DA",
"A. c #ABC5DA",
"S. c #A2CBDC",
"D. c #ABCCDB",
"F. c #B3C4D9",
"G. c #B3CDDD",
"H. c #BBCDDB",
"J. c #A3D1DF",
"K. c #B5D4DD",
"L. c #8EC5E3",
"P. c #9ACCE3",
"I. c #9ED3E6",
"U. c #A9CEE0",
"Y. c #A6D3E3",
"T. c #ACD3E4",
"R. c #ACD9E6",
"E. c #AAD4E8",
"W. c #AED8E8",
"Q. c #B2D4E4",
"!. c #BCD5E3",
"~. c #B3D9E6",
"^. c #BDDAE5",
"/. c #B7DBEC",
"(. c #BBDCEA",
"). c #BCDBF0",
"_. c #BDE1EB",
"`. c #C7CFD9",
"'. c #C2D1DE",
"]. c #C2D6E4",
"[. c #C4D9E6",
"{. c #CBDBE4",
"}. c #C3DCEA",
"|. c #CADDEA",
" X c #C4E3ED",
".X c #CBE4EC",
"XX c #CBE9EF",
"oX c #D3E4EC",
"OX c #DAE5EE",
"+X c #D4E8EE",
"@X c #DCEAEE",
"#X c #C6E4F1",
"$X c #CCE5F1",
"%X c #CCEBF3",
"&X c #D4E6F0",
"*X c #DBE6F0",
"=X c #D4ECF3",
"-X c #DCECF2",
";X c #D7EEF8",
":X c #D5F0F5",
">X c #DDF3F6",
",X c #D7F0F8",
"<X c #DDF4F9",
"1X c #E2E9EF",
"2X c #E4EDF4",
"3X c #E8EFF5",
"4X c #E3F2F5",
"5X c #EBF2F6",
"6X c #E4F6F9",
"7X c #E9F6FA",
"8X c #E6F9FA",
"9X c #ECFBFC",
"0X c #FDFBF7",
"qX c #F0F6F8",
"wX c #F4FDFE",
"eX c #FEFEFE",
/* pixels */
"eXeXeXeXeXeX8XQ.w.&.| / / / / / { { / { / / / / / ~ ~ / / / / ~ ~ / ~ / / / / ~ { { / / { / / / / / / / / / / / / / / / / / / / { { | ~ ~ ~ / / / / / / / / / / / / / / { / { / / { } 7.f.E.8XeXeXwXeXeXeX",
"eXeXeXeXwXE.;.E H I I  .I I I I P I { U  . .I I  . .L  .L  . . .L  .I I I I I I U U I I  . .I I I I I I I I I I I I I I I I I I P I  . .P { I I P  .I I I I I I L  .I I U I I  .I  .{ H H E ;.E.wXeXwXeXeX",
"eXeXeX7Xw.C I U U P U  .I U I I U U { U I I I I  .P  . .I I  . . .I I I I I I I I I P { I I I I I I I I I I I I I I I I I I I I U U {  .I I I I  .P  .I I I I I { I I I U U I I U U I I P U U S w.7XeXeXeX",
"eXeX8X=.D I I P P I P P P P L P P P P P P P P P P P P H P P P P P P P P L P P P P P P P P P P P P P P L P P P P P P P P P P P L P P P P P P P P P P P L P P P P P P P U L L P L P L L I U P P U S :.7XeXeX",
"eXwX5.D P I L P L  . .L L L I L L I L L I L L I I L P I L { L P L I L I L L I L I L L I I L I { L L L L I L I L H I I L L I L L L I L L L L L I I H L I L L L { L  .L I  .L L P L I P I L { L { P G 5.wXeX",
"eXU.C { L P L I L H L { L L L L L L L L L L L L L L L L L L L L L L L I L I L L { P L L L L L P I L L P L L L I I I H I L L L L L L L L L L L L L I I L L L L L L L L P L L L L I K H L L  .H I K U C U.eX",
"8X` H L P L L L L H H P L L L L L L L L H L P L L L L L L K P L L L L H H L P P H H L P H P L H H L H L L H L L L P H L L L P L P P L L L L K L L H L H L K P L L L H L L H P H L { H L K I I K I  .J $.8X",
"Q.0 L L L L K H E E H L H L H L L L L L H E E E L H L H L L H L L H { L H E Q H L H H E E H L H L L L L { H P F Q E ~ L H L L H H L H L L H L L H P L I H L I H P H L L L L L L L L L L L H H J H L L C T.",
"0.D K L H L K 8.%X,Xx.C { H L H H { J K ] #X;XM.Z L K L { J H L L L P D 7.%X$XO.K S L.,XT.T H I L L K H H I S v.:X).^ J { { J L H L L L K K H L K P K B :.] G L H E L L L H L L H H L L L L H L K J P V f.",
"[ L K H H H K _ 8XeX*XR L J L H H H { Z x.eXeXt.S L H H J L H H H S H K 8.eXwX#.J V ~.eX=XT H K H H L J L H V P.eX3X( D K J L L L H J L H H L L H H Q S.9X>.M I L J L H H H H H H H H H H H H H L H L G [ ",
"R J H H H H K V Y.eXwX<.n L J J H H H C #XeX-XR H H L H L H H H H J H Z 8.wXwX+.J S P.7X^.0 H H J H H { H E V P.eX2X_ G G L J S J H E H H J H H ~ A 6.wXeX2.S K J H G L H L H L { J J H L J H H L S H L ! ",
"T E H G S H L D :.wXeXD.B L J H H H S ;.9XeXm.B H S J A V N V J H H H F >.wXwX..F H 0 0 T H H H H S F Z Z G M P.eX2X( S J H H G S D Z Z J L H S J M 6.wXwX@.N H S J H J D V V Z J K H H H H H H G H J H q ",
"T H H S S S H H C XXeX-Xe J S H S H V P.eXqXO.G D 1 _ :.f.0.:.( , J H V 8.wXwXk Z H ! ] ' S S S J < _ 0.f.:.; B.eX2X( A J H N ^ :.0.w.9.` 1 C H H Q 4.wXeXe.' Q F H V T ;.0.w.:.T B H J S H S D J J H J 0 ",
"0 S S S S S D H N b.eXeX4.B J G H S ! =XeX].9 S _ ~.9XeXeXeXwX9XZ.0 S V 8.wXwX@.S V Y.wX#X0 H S ! Y.9XeXeXwX].K.eX2XW D F 0 B.>XeXeXeXeXwX!.s J B R.eXwXeXwXeXg.< F :.%XwXeXeXeX-X5.9 H J G J S D J S S T ",
"0 S S S S S C F D _ 8XeXG., S C S n 4.wXeXt.> ! =XeXwX-X}.oXwXeXeXz.< Z 8.wXwX..C B T.eX&X9 J 1 _.eXeX-X}.4XeXwXeX3Xe J 0 E.eXeX4X}.#X7XeXeX[.9 < B.7XeXeX-X>Xi.$ q.9XeXwXoX}.6XeXeXs.; G S J S D S S S 0 ",
"0 S F S S S S J S > R.eX3Xr S F H < E.eX2Xe > B.eXeXk.5 7 5 :.6XeXOXq Z -.wXwXk C < T.eX&X8 - h.eXeXG.w 5 e (.eXeX4Xa Z >.wXeXG.8 9 1 a .XeXwXX.F 1 x wXeXz : 1 W <XeX2X=.5 0 (  XeXwXh V C C J S S F S 7 ",
"7 S S S S S D S E N 8.wXeXy.N J V ( <XeXA.B V Y.wX(.1 J G G + B.eX-XR B 2.eXqX..S < T.eX&X6 1  XeX&X6 D S Z t :XeX2X( N h.9X4Xs N J J # ,.wXwX@.C Z %.wXeX#.n < j.eXeX<.# J S N a 6XeXA.> S S S S S C S 0 ",
"7 F C S S S D A J B T %XeX].1 H < g.eXwXo.Z S 0 ( q : 9 9 q x !.eX-Xq m 8.wXwX..C B T.eX&X1 _ 8XeXc., G S S > N.eX2XW V C W ( ; C 9 y [ m.wXeX@.C V ;.wXeX=.V < (.eX@X3 W u w a 7 [.eXoX9 D S C C Z S S 0 ",
"0 C C S C S C V F F > M.eX7Xh V :  XeX|.1 F F V 1 3.N.^.%X>XwXeXeX1Xq Z :.wXwXk Z < T.eX&X1 _ 9XeXy.% F S F b w.eX2XW C D > +.M.Q.$X-XwXeXeXwXl B V *.wXeX#.Z 0 XXeX0X4X4X4X6X4X4XqXeX1Xq B V S F Z C F 7 ",
"9 C C C C C S C V F < ` 9XeXk.@ $.9XeXp.& S V u #XeXeXeXeXeXOXoXeX2Xq N -.eXwXh < > T.eXoX: ` wXeXt.N C C F b >.eX2Xe V 1 U.wXeXeXeXeX4X{.eXwXl B M *.wXeX@.> 1 %XeXwXwXwXwXwX9XwXwXwX&X8 S S C F C C C 7 ",
"9 C C C B C V C V C F , ^.eX|.o M.eX2Xr , C , (.eXeX[.s.2.) 5 m.eX1Xq N -.wXwXk B > T.eXoX: ` 9XeXr.& F V C m 0.eX2Xe > l.eXeX&Xl.5.j 7 ,.eXeXl : M *.wXeX,.> 1 XXeX{.r _ a ( _ _ r r q 1 C C C C V C C 9 ",
"5 C V V B S C V V V S % 5.eXwXg XXeXF.& C < ` 9XeXH.* % B C # W.eX*X8 b 3.wXwXf < > T.eX&X* ! <XeXF.& D < F ; Z.eX2Xq < XXeX*X3 % > V @ h.eXwXl > Z $.wXeXo.F ; ~.eX1X5 N N N Z = w.l.;.C F C C V V C C 9 ",
"5 V V V V V B V V V S N y >XeX`.qXwXl & D b X.wXeXu.. J B @ d 8XeX4Xq # :.eXwXh > > T.eXoX5 ; Y.eX5Xp & C - w >XeX3X8 7 =XeX'.X C C > 5 #XeXwX<.> N $.wXeX@.. - f.eXeXz.o B 1 # ` wXeX[.: V n V 1 C < V 9 ",
"6 V , V V V B B V < B V = S.eX0XeXoX* C < b ( 8XeX1Xl : t 1.-XeXeX7X8 - :.wXqXh > & T.eXXX5 > X.wXeX@X@.8 X..XeXeX2Xq ; .XeXwXr.5 : X.^.eX0XeX<.; > ` 9XeX].4.a 0 %XeXwXV.s t ,.=XeXwX@.; 1 < < V B V V 5 ",
"6 < < V B B < V , B < V - *.wXeXeXa.$ V < V ; m.eXeXwX@X4XeXwX{.eXeXl . -.eXwXf > > Q.eX&X2 V $ i.wXeXwX4XeXeX5XeX3Xe # -.wXeXeX4X2XwXeXoXqXeXc.= n 0 =XeXeXeXC.. ` >XeXeXqX6XwXeXeXd.& V < < V B < B < 7 ",
"a > , V < B < < , B < < N 1 Y..X[.w > V n V B : i.=XwXwX6X].@.w ^..Xf.@ O._.[.s < = x.XXS.: < n = -.}.6XwX4XV.v .X!.5 B - =..X8XwX9X.Xp.2 B.&XZ.: N ; =.#X;X4Xl.; = q S.-X9XwX7X[.<.o V B < V > < < < > s ",
"1.# , B > < N N < B < , < > $ $ $ > > < N N N > @ 1 a a 8 o # B $ o ; B N $ $ > < , % $ ; , < B V = $ a a 7 $ = $ $ > N V = : w e q ; $ , & $ = < , < ; & w 5 ; > < > $ 9 a s a $ $ N > > < B B , < B $ 4.",
"U.; B : < > < > > > > < > N B < , N > < > > < < , > - ; > < < > < < < N > , < < > < < B < > > B < V , > % < B > < < B > < < < - > > , < > < < , < < < N > ; > < B < N < > % % > < < < < > < > > B > B $ U.",
"qXi - < > > > N > > > > > > > > > > > > > > > > < > > : < > > > N > > - > > > > > > N > > > < > > > > N < , , < N > > > ; > > N > > ; ; , > > > > > > > < < > < > > > > > > < < > > < > > > > > > > - i qX",
"eXD.. N > > > > > > > > > > > - ; > > > > > > > > > > > > > > > > > > > > > > N > > > > > > > > ; > < - ; > > ; > > , > > N N > > > < > > > < > > > b N > ; ; > > > > > > > ; ; < < > > > > > > ; < . D.eX",
"eXwXc . < ; > > > > > ; > > > > > > ; > > > - > > > - > > > ; > > > > ; ; > > > > > > ; ; > > ; > > > > % > > - > ; > ; - ; > ; > > > > > ; ; ; & , > > > ; > > < > > > ; > > > ; ; < > > ; > > < o c wXeX",
"0XeXqXh @ > : > > > > > ; > > > > > > > > > > > ; > < > > > > > ; > N > > - > > > > > ; > > > > > ; > > > > > > > > > > < ; > > > % > > > > > > > > & > > - > > > ; > > - > > > - ; > - > ; : < . h 6XeX0X",
"eX0XeX6Xc X % < < > , ; ; ; ; ; ; : ; ; ; ; ; ; ; > ; ; ; > ; ; > ; > ; ; > ; ; ; ; : ; ; ; > ; > ; , ; ; ; ; > ; , ; ; ; , ; , > , ; ; ; , ; ; > ; ; , ; = , ; ; , ; ; > ; > ; ; ; ; ; B > @   v 6XeX0XeX",
"wXeXeXeXwXD.3 o . % = = > ; ; ; ; ; ; ; ; ; ; ; ; ; ; & ; ; ; ; > = ; ; ; ; ; ; ; ; ; ; ; ; ; ; ; ; ; & ; ; ; ; = & $ ; ; ; ; & = = & ; = & ; ; ; ; ; & ; ; ; ; ; & & ; ; ; ; = & > ; # @ o 4 D.wXeXeXeXeX",
"eXeXeXeX0XeX7XD.<.i 2 * O O O O O O O O * * O O * O O O O O O O O O O O O O * * O O O O O O O O O O O O O O O O * * O O O O O O o 2 2 2 * O O O O O O O O O O O O O O O * * * * O O 2 w ,.D.8XeX0X0X0XeXeX"
};
