/* XPM */
static char *btn_replay[] = {
/* columns rows colors chars-per-pixel */
"113 44 253 2 ",
"   c #2D79A7",
".  c #2C7AAC",
"X  c #3476A5",
"o  c #3479A6",
"O  c #3B7EA6",
"+  c #3677AB",
"@  c #347BAD",
"#  c #3C7CAD",
"$  c #2E7CB3",
"%  c #337DB2",
"&  c #3A7FB1",
"*  c #337FBB",
"=  c #3D7FB8",
"-  c #427CA6",
";  c #437DAC",
":  c #417BB0",
">  c #3C81AE",
",  c #2F81B7",
"<  c #2F83BB",
"1  c #2E89BD",
"2  c #3483B6",
"3  c #3B83B5",
"4  c #3E88B6",
"5  c #3484BB",
"6  c #3A84BB",
"7  c #3589BE",
"8  c #3C89BD",
"9  c #4580A5",
"0  c #4584AD",
"q  c #4C83AB",
"w  c #4288AD",
"e  c #5380A1",
"r  c #5087AD",
"t  c #5986AD",
"y  c #518AAE",
"u  c #4383B3",
"i  c #4B85B3",
"p  c #458AB5",
"a  c #4A8AB4",
"s  c #4285BA",
"d  c #4986B8",
"f  c #438BBC",
"g  c #4A8CBB",
"h  c #5087B1",
"j  c #5189B2",
"k  c #5B8EB3",
"l  c #538CBA",
"z  c #5D8EBB",
"x  c #4D94B7",
"c  c #4D93BE",
"v  c #5E94B6",
"b  c #5392BA",
"n  c #5B95BC",
"m  c #5E9BBE",
"M  c #6496B5",
"N  c #6D9AB7",
"B  c #6294BA",
"V  c #6994BB",
"C  c #649BBD",
"Z  c #6B9BBB",
"A  c #719BB4",
"S  c #739EBD",
"D  c #64A1BE",
"F  c #6EA3BF",
"G  c #73A3BF",
"H  c #7AA8BB",
"J  c #2F88C2",
"K  c #3486C1",
"L  c #3A86C2",
"P  c #368AC3",
"I  c #3A8BC4",
"U  c #3687CA",
"Y  c #3887C9",
"T  c #368DCA",
"R  c #3B8DCB",
"E  c #3E90C6",
"W  c #3691CC",
"Q  c #3B91CD",
"!  c #3B8ED1",
"~  c #3793D1",
"^  c #3C94D3",
"/  c #3E98D6",
"(  c #3592D9",
")  c #3C96D9",
"_  c #3D98D8",
"`  c #3C98E1",
"'  c #4086C0",
"]  c #428CC2",
"[  c #498EC0",
"{  c #428FCB",
"}  c #498FC8",
"|  c #4391C6",
" . c #4D94C4",
".. c #4192CC",
"X. c #4E94C8",
"o. c #5093C4",
"O. c #5B96C2",
"+. c #5799C3",
"@. c #5B9CC4",
"#. c #539CCC",
"$. c #5A9CCC",
"%. c #4095D3",
"&. c #4199D7",
"*. c #4195D9",
"=. c #6592C5",
"-. c #639CC3",
";. c #699CC2",
":. c #639DC9",
">. c #699EC9",
",. c #759DC3",
"<. c #7C9DC3",
"1. c #5AA0C6",
"2. c #5EA2CF",
"3. c #5DA2D1",
"4. c #65A2C5",
"5. c #6BA2C4",
"6. c #63A3CC",
"7. c #6BA3C9",
"8. c #6CA8CC",
"9. c #74A4C3",
"0. c #7EA5C2",
"q. c #75A9C2",
"w. c #7CABC4",
"e. c #77A5CC",
"r. c #7AA4CE",
"t. c #74ACCC",
"y. c #7CAECA",
"u. c #76B4CC",
"i. c #7BB3CE",
"p. c #60A1D1",
"a. c #6DA5D1",
"s. c #6EABD2",
"d. c #60ABD8",
"f. c #70ADD5",
"g. c #70ABD8",
"h. c #73B3D5",
"j. c #7EB2D2",
"k. c #75B5DA",
"l. c #79B6D9",
"z. c #75B8DC",
"x. c #7CB9D9",
"c. c #819FBC",
"v. c #84A6C6",
"b. c #84ABC4",
"n. c #8CAEC3",
"m. c #85A7CA",
"M. c #89A6CB",
"N. c #84ABCA",
"B. c #8AADCC",
"V. c #83B3CB",
"C. c #8BB4CB",
"Z. c #8CBBCF",
"A. c #94B3C6",
"S. c #94B5CC",
"D. c #98B6CF",
"F. c #93BBCD",
"G. c #85ABD2",
"H. c #8AACD0",
"J. c #84B3D2",
"K. c #83BAD2",
"L. c #8BBBD3",
"P. c #81BDDA",
"I. c #91B7D2",
"U. c #99B7D0",
"Y. c #93BDD3",
"T. c #9ABCD2",
"R. c #92BFDA",
"E. c #A3B2C5",
"W. c #A2BAD3",
"Q. c #8EC1D5",
"!. c #8FC2DA",
"~. c #94C4D4",
"^. c #9BC1D5",
"/. c #9CC8D4",
"(. c #93C4DC",
"). c #9BC1DC",
"_. c #9DCBDD",
"`. c #A2C6D7",
"'. c #ACC3D1",
"]. c #A3C4DA",
"[. c #ADC7DA",
"{. c #A2CBDF",
"}. c #AACDDB",
"|. c #B3C5D2",
" X c #B0C5DA",
".X c #B6CCDA",
"XX c #BCCEDD",
"oX c #A2D0DC",
"OX c #B4D1DC",
"+X c #BDD2DD",
"@X c #89C3E3",
"#X c #9FC8E2",
"$X c #A5CFE2",
"%X c #B9CFE0",
"&X c #A4D2E1",
"*X c #ADD4E2",
"=X c #AFDAE5",
"-X c #ADD6EB",
";X c #A6DAEB",
":X c #B3D4E4",
">X c #BAD5E4",
",X c #B3D9E6",
"<X c #BADBE6",
"1X c #B5DDEB",
"2X c #BCDDED",
"3X c #BADEF1",
"4X c #BDE1EE",
"5X c #B4E1F3",
"6X c #BBE1F2",
"7X c #C1CFDC",
"8X c #C1D6DE",
"9X c #C4D3E2",
"0X c #CDD7E3",
"qX c #C3DAE5",
"wX c #C9DBE5",
"eX c #C5DDE9",
"rX c #CCDEE8",
"tX c #D5DFE3",
"yX c #D3DFEC",
"uX c #C4E0E7",
"iX c #C4E3EE",
"pX c #CBE4ED",
"aX c #C6E8EF",
"sX c #D2E4ED",
"dX c #D5E9EF",
"fX c #C5E4F2",
"gX c #CBE6F1",
"hX c #C6E8F2",
"jX c #CEEBF4",
"kX c #D6E7F1",
"lX c #D4EDF4",
"zX c #DBEEF5",
"xX c #DFEFF9",
"cX c #CFF0F4",
"vX c #D5F2F6",
"bX c #DCF0F6",
"nX c #D6F1F8",
"mX c #DDF4F9",
"MX c #D6F9FA",
"NX c #DEF8FC",
"BX c #E1EDF5",
"VX c #E9EDF2",
"CX c #E2EEF9",
"ZX c #E5F2F6",
"AX c #E8F4F7",
"SX c #E3F4F9",
"DX c #EAF6FA",
"FX c #E5F9FB",
"GX c #EDFDFE",
"HX c #FBFBF7",
"JX c #F2F6FA",
"KX c #F4FEFE",
"LX c #FDFEFE",
/* pixels */
"LXLXLXLXLXLXLXLXGX4X!.g.$.c  . .o.o.o.o.o.o.o.o.o. . . . . . .c  . . .c  . . . .o.o.o.o.o.o.o.o.o. .o.o.o.o.o.o.o.o.o.o.o.o.o.o.o.o.o.o.o.o.o.o.o.o.o.o.o.o.o.o.o.o.o.o.o.o.o.o.o.o.o.o.o.o.o.o. . .X.X.$.f.!.5XKXLXLXHXLXLXLXLXLX",
"LXLXLXLXHXLXGX:X8. .{ ^ ^ ^ &.&.*.%.%.%.%.%.%.%.^ &.^ %.^ / / ^ / ^ / / / ^ / / %.%.%.%.%.%.&.%.%.%.%.%.%.%.%.%.%.%.%.%.%.%.%.%.%.%.%.%.%.%.%.%.%.%.%.%.%.%.%.%.%.%.%.%.%.%.%.%.%.%.%.%.%.%.%.*.*.%.) &./ Q ] o.s.=XGXLXHXLXLXLXLX",
"HXLXLXHXLXnXt.f ! / &._ _ _ ^ &._ ) ) _ &._ _ _ / / / / _ _ _ / / / / / / / / / _ _ _ _ / _ / _ / / / / _ _ _ _ / _ / _ _ _ / _ _ _ _ _ _ _ _ _ _ _ / _ _ _ _ / / _ / _ _ _ / _ _ _ _ _ _ &._ _ _ &.&.) _ _ / / ^ E t.zXLXHXLXHXLX",
"LXLXLXLXiX+.Q &._ / / / _ _ / / _ _ &._ / / / / / / / / / / / / / / / / / / / / / / / &./ / / / / / / / / / / / / / / / / / / / _ %._ _ / / / / %./ / / / / / / / / / / / / / / _ _ %./ _ _ _ _ _ %./ _ _ / _ / ) ` { O.iXLXHXLXLX",
"LXLXLXiXc ~ ) ) / / Q ^ _ _ _ _ / / ! _ _ / _ _ / / / / / / / / / / / / / / / / _ %._ / / _ / / / _ / / ! _ / / / / / / / / ! _ / ! _ _ / _ / / _ _ &._ _ _ / / ! / / / / / / ! / / / _ / / / _ ) ! / / / / / / / *.&.! | 4XLXLXLX",
"LXLXvXn E &./ _ _ &.Q ^ _ _ *.! *.%.%.%.*.! *.%.^ / ^ ^ ! / ^ ^ ^ ^ ^ ^ / ^ ^ Q ! %.*.! %.%.! %.*.%.%.%.*.%.%.%.%.! *.%.*.%.%.%.%.%.%.%.*.! %.%.%.*.! %.! *.%.%.%.%.*.%.%.*./ %.%.%.! %.! *.%.! / _ ^ %.^ ^ &.^ ^ ..%.) ^ +.zXLXLX",
"LXKXt.E / ! Q &._ _ / ^ / / ! %.^ ^ %.^ ! %./ ^ / / ^ / / / ^ ^ / ^ / / ^ / / / / / ! %.! %.^ / ^ / ^ / / / ^ ^ / ! / ^ ! / ! / / / / %.! %.^ / ! / ^ %.%./ ! / / / / ^ ! *.! %.^ / %.^ / ! / / / / / ^ ^ ^ ^ Q ^ / / %.^ W t.KXLX",
"LX=Xp %./ ) ^ Q ^ ! ^ ^ ~ / ~ / / ^ ^ ^ ^ ^ ! / ~ ^ ^ ^ ^ ^ ^ / ^ ^ ~ Q / ~ / ^ ! / / ~ / / ^ / ! ^ ^ ^ ! ^ ^ ^ ! / ^ ^ ^ / ! / ! / ! ~ / ^ ^ ^ ^ ^ ^ ^ ^ ^ ^ ^ ^ ! ^ ^ ^ ~ / / ^ ! / ^ ^ / ^ ^ ~ ! ! / ^ / / ^ _ ~ ^ Q %./ g ,XLX",
"KX8.Q %.^ _ / Q ^ ^ ^ ~ ^ Q ^ / / ^ ! %.%.! ! _ _ %.~ ! ~ / ! / Q Q ~ / ^ ^ Q Q ^ ^ ^ ^ ^ ^ Q Q Q ^ ^ ^ ^ ^ ^ ^ ^ / ^ ^ Q ^ ^ ^ ! ^ ^ ) _ ^ ^ %.^ ^ ^ Q ^ Q ^ ^ ^ Q ^ Q ^ ^ Q / Q ^ ^ ^ ^ / ^ ^ Q / ~ / ^ / ^ ^ ! / ~ / / %.R 8.GX",
"iXl ! Q ^ ^ ! Q / ! / Q f g [ f | [ [ f f [ ] ] L I Q *.! Q ^ ! / ^ / ~ / ! ^ ^ ^ ^ ~ ^ ^ ! ^ ^ ^ ^ ^ ~ ^ Q ^ ^ ^ ! ^ ^ ^ ^ ^ ~ / Q | ] f { ..^ ^ Q ^ ^ ^ / ~ / / ! / ^ Q ^ ^ ^ ^ ^ / Q ^ ! ^ Q ^ ^ Q ^ ! ! ^ ! ! ~ / ~ ~ ! ..[ iX",
"~.8 / ^ Q ^ / ^ ^ ^ W d.5X3X6X4X2X3X3X3X3X2X6X:XY.y.o.{ *.../ Q %.^ ^ ~ ! / ~ / ^ Q ^ Q ^ %.*.! ^ ^ / ~ ~ / ^ ^ ^ ~ / ^ ^ Q ^ ^ ! ..@X6X3Xa.R ! ^ ^ ^ ^ ! ^ ^ ~ ~ / ^ ^ ^ ^ ^ ! Q ^ ~ Q ! %.^ ! ~ ^ / Q ^ ! ! %.! ^ ^ ^ ^ ^ Q f ~.",
"s.E ~ ~ Q ~ ! ~ Q Q P x.LXLXLXLXLXLXLXLXLXLXLXLXLXKXcX5.8 ..Q Q Q ! Q Q Q ~ ~ ^ Q ^ ^ Q Q ! ~ ~ ~ Q ..Q ~ ~ ^ Q Q Q Q Q Q Q Q ~ ~ ] ,XLXLXJ.L %.! Q ! %.! Q Q Q ~ Q Q Q ! ^ ! ! ^ Q Q ^ ~ ^ Q Q ^ W Q Q ^ ..%.! ^ ^ Q Q W ^ ~ E s.",
"#.R ~ Q Q ! ! ~ ^ ..U l.KXLXLXJXGXGXGXGXGXGXKXKXLXLXLXbXB E Q ~ ~ ! ! { Q ..Q Q ^ ~ ! ! Q Q ! ~ ! ! ..Q ! ! Q Q E ..Q Q ^ ! ~ ~ ^ f *XLXLXH.I ^ Q ^ Q ! %.{ Q ..Q ..! Q Q ! Q W ~ ~ ! Q ^ ~ ~ Q Q Q ^ Q E Q ~ ~ ! Q R Q Q Q / T #.",
"| Q ! Q Q ! Q Q ~ ~ U z.KXLXSXA n -.@.-.-.C -.J.aXLXHXLX>X] Q Q Q ! Q ~ ! ~ ~ ^ ^ W ~ ~ ! Q ! Q ^ W Q Q ~ W ! Q ! ! ~ Q Q ~ ! ! ! f =XLXKXH.6 Q Q Q ! ~ ~ ~ ! ! ! ~ W Q ~ Q Q Q Q Q E R ~ ~ Q Q Q Q ~ W Q Q Q ~ ! Q Q Q Q Q Q Q | ",
"E { Q Q Q ! Q Q Q Q P z.KXLXbXa P R R I R I I 8 f 2XLXLXDX=.I Q E Q Q ~ ! Q W I I E Q Q Q ! Q Q Q ! ....Q Q Q E Q T Q Q Q Q Q E Q 8 :XLXLXG.8 ! Q E Q Q ! ! R W I W Q Q Q Q Q Q Q ......Q Q ~ Q Q Q ~ Q | E { ! Q Q Q Q ! Q Q E | ",
"E R R R ~ Q T R Q Q P z.KXLXCX .! Q Q Q Q Q Q Q T 7.GXLXKXr.6 Q ~ ~ ~ I 6 g O.-.O.p 6 | Q Q ~ Q Q I f 6 ] ] 7 [ -.@.g 8 I E Q Q ^ 7 *XLXLXG.8 ! Q ~ Q I 7 p b -.-.@.d 8 I ..W Q I 8 s I E W Q R R Q Q R 8 8 I Y Q Q Q W Q Q Q Q | ",
"f R Q R R Q R T W Q 7 k.KXLXCX[ ! R R Q ~ Q R R R o.FXLXKXG.6 { ! Q L m $XcXCXDXCXgX).l 8 ! W R T #.1XhXZ.k $XvXFXSXzX*XC s R Q ! 8 :XLXLXN.6 ! T Q 7 -.{.iXbXDXSXCXlX*XC 8 Q I P.fXfX).] Q E R W W W #.1XfX-X} Q R R Q W R Q I ] ",
"f E W R T Q Q W R Q 7 h.KXLXxX .! R R Q Q ! Q Q 7 s.KXLXKX9.L Q E 8 J.FXLXLXLXLXLXLXLXcXN 8 T E P 2.KXLXtXdXLXLXLXLXLXLXGXV.s Q Q 6 *XLXLXH.L Q Q 8 J.FXLXLXLXLXLXLXLXLXDX9.] L x.KXLXDXz I I R ! E 2 Q.LXLXqXs Q R T E R R R R ] ",
"f I Q I T R I W R R 5 h.KXLXBXp L L P K P P 7 2 l aXLXLXSXl R ! < u.GXLXLXFX:X].>XFXLXLXSXV L { P 2.KXLXLXLXKXqXF.`.CXLXLXJX;.' R 8 *XLXLXB.6 Q J 8.GXLXLXCX>X#X$XpXKXHXLXkXa Y  .vXKXLXH.6 E W ! R p aXLXLXG.= Q R T E R R W R f ",
"] I W R I W R I R R 7 k.KXLXAXS ;.>.:.4.-.5.9.I.cXLXHXLXW.s R W  .vXHXLXpXM = * > D cXLXLX>Xs Q U 2.KXKXJXKXI.u 7 3 n cXLXLXrX: { 8 *XLXKXN.6 R 4 =XLXLXpXz & 7 3 p Q.KXLXLXr.7 8 _.LXLX9Xd I R R K 6.GXLXCXl I I T E I T R I I f ",
"] I R R I W R R Q R 5 k.LXLXKXKXJXGXGXGXGXJXLXLXLXHXLX<Xl ' E 7 L.LXLXmXk 7 %.( Q K 5.GXLXGX;.L U 2.GXLXLX X; ..Q E 5 D GXLXKX,.L 8 *XLXLXN.6 R  .MXLXKX9.= Q ^ ! ! d gXLXLXN.4 L 4.KXLXJXn P R Q K _.LXLX X6 R R T I T I W W I 8 ",
"f I W I E T I W R Q J z.LXLXLXLXLXLXLXLXLXLXLXLXLXSX^.h I R Q 8 ,XLXLXF.@ L ' L L L ; >XLXLXU.3 P 3.GXLXJXV 7 I R R W s <XLXLXT.3 s OXLXLXm.6 R E 4.V.(.a { L K 7 L ; <XLXLXG.6 R 8 aXLXLXD.3 Q P f cXLXKX,.6 { W E I Q R R R E f ",
"f I W I I R R I R I < k.KXLXJXrXiXuXeXdXKXHXHXJXE.t : P W R T f nXLXLX'.w.b.y.N.y.i.H +XLXLX.Xu T 3.GXLXyXd T I I W T 5 Q.LXLX.X6 8 *XLXLXN.6 R P 7 6 . u p @.-.q.(.<XFXLXLXM.6 T < Q.LXLXyXi E 7 t.KXLXsXu R ! T I E I U I Q P f ",
"f U W I U W I U I R , k.KXLXBXq & 3 3 d y.vXLXLXVXS 8 R P R J c FXLXLXLXLXLXLXLXLXKXLXLXLXLX+Xu J 2.GXLX7Xu W U U W I 2 L.LXLX9Xs 8 *XLXLXm.* R I 7 g K.<XpXNXKXLXLXLXLXLXLXb.6 Q P +.NXLXJXV 7 5 $XLXLXU.= R L U T T P T T I 7 f ",
"f P I R U T P I I I 5 k.KXLXCXg I R R R % m NXLXLXDXN 8 I R U c FXLXLXLXJXLXKXKXKXKXLXLXKXLX%X6 P 2.KXLX9Xs Q I I I I 2 Z.KXLX0Xs 3 :XLXLXN.= Q P b hXLXLXLXLXLXLXKXsXBXLXLXb.5 ! L 3 =XLXLXW.3 c NXLXGXV L U P I I U I U I U I 8 ",
"8 P U I I T I P I R , k.LXLXCXg P R R L E * V.KXJXLXsXh L R P  .mXLXHXA.9.9.5.G F 5.9.G 5.9.-.s 5 2.GXLXXX: I 8 P U W , L.LXLX7Xu 6 *XLXLXm.6 I s fXLXHXLXdX>XT.b.-.q >XLXLXv.= R ] 2 u.LXLXkX- i.LXLX9X0 I T I I I I I I I I I 4 ",
"s I U P I U I P P I , h.KXLXCXp L I L P P R # *XLXJXLX].: L L f vXLXLXH + 6 2 2 2 5 2 4 a - # I J 3.GXLXsX0 L P P T P 2 /.LXLX[.& 8 *XLXLXv.6 2 i.KXHXLXT.; & 3 2 7 f gXLXKXM.= E L P [ mXLXKXA OXLXLXV.3 P I P P P P I L I I I 8 ",
"s P I P L I I P P I < h.KXLXCXp 8 P P P R U 7 b nXLXLXJXN 3 E 6 =XLXLX+X& R P ! R I > ;XFXgXI.7 P $.JXLXGXM 6 T I R 8 p cXLXLXb.= 4 *XLXLXv.6 2 ~.LXLX0X; I R I R 7 x FXLXLXM.& 7 I T < #XLXLX|.BXLXZXj 8 P I P P U I P I P I P p ",
"s 7 P P P L P 8 7 I , h.KXLXCXd L P 7 P I P T 2 V.KXJXLXuXq I 2 j.KXLXKXv.@ 7 Y U . q.KXLXLXn.2 1 @.KXLXLX.X- 6 U P + L.KXLXCXy 6 4 :XLXLXv.2 2 ~.LXLXwXO P I Y 5 O oXLXHXLXI.% P L U < 4.KXLXJXHXLX.X= P 8 P P P I P P 8 P K 7 4 ",
"p 7 P L P P P 7 8 P $ h.KXLXCXp 7 U P K K L P 8 > 1XLXHXLXS.% L s pXLXLXJXI.j ; h y.mXLXLXsXq 6 5 :.KXLXLXLX.Xk w h T.KXLXLXD.> P 2 *XLXLXv.* 2 K.LXJXLXC.0 + d v }.KXLXHXLXF.@ R L 7 P 8 gXLXHXLXKX<.* P 7 U P 7 8 K P 7 P P 8 4 ",
"s 7 7 7 7 P L 7 P 8 , f.KXLXzXp 7 L P K 8 P P P 5 n GXLXLXDXk 2 5 m mXLXLXLXCXwXzXLXLXLXJXZ 5 I , :.GXKXLXLXLXFXeXzXLXLXLXwX0 7 P 3 *XLXLXv.2 7 a lXLXLXLXsXOXeXDXLXLXAXLXLX'.O I P 7 P $ L.LXLXLXkXq P 8 L P 7 7 L 7 7 L 7 L 7 4 ",
" .5 P 7 7 K 7 7 7 P , k.KXLXSXp 7 7 P K P 5 7 K J 2 Z.LXHXLXqX3 P 2 B pXKXLXLXLXLXLXLXgXN & T L 5 1.GXLXVX8XLXLXLXLXLXJX:Xj 3 7 L 2 *XLXLXb.* I 2 C lXLXLXLXLXLXLXFXA.v.LXLXBXi 5 7 7 L P b FXLXLXW.@ 7 J L 5 7 L 7 7 L 7 7 L 6 c ",
"6.2 K 5 K K 5 7 6 7 5  .N.b.9.8 7 K K L 5 7 6 L P 5 w q.b.b.y.6 P P = 9 9.{.4XpXgX*X0.0 # 7 P Y * @.GXLXBXe q.:XgXpX].N O 6 7 7 7 6 -.V.y.l 6 L K * h C.3XiXpX>XC.k + u y.b.y.p 6 P 5 7 7 0 zXLXJXV % 7 K K K 7 7 L 7 P K 7 P 2 7.",
"Z.@ L 6 K K 7 5 K J K 2 @ @ % 6 5 7 5 7 K K 5 L J P 7 $ @ + % 7 K J K 7 % % 3 # > # $ 5 7 7 5 7 * $.GXLXBXi % * & = % % L 7 5 6 J K * % $ 2 L K K 7 2 % & > & & $ * L K $ @ % 7 6 K P P % 5.KXLX0X; 5 6 P 5 7 5 5 L 5 7 K 5 7 @ F.",
"iX0 7 6 5 K L 6 K J J J 7 8 L J K 6 5 K 7 5 7 5 7 5 P U K L L 7 7 7 J J P J J 7 K J P 5 5 5 7 6 2 1.GXLXBXd K K K K K L K K K 7 K 7 7 L 6 7 5 K 7 K 7 K 7 7 J K P 7 K K P 7 P 5 7 * * 2 @ =XLXLXn.% 7 7 K 5 L 5 7 K 7 5 5 7 5 u wX",
"KXN $ 7 7 2 5 6 2 7 J 5 5 7 5 K K 5 K 5 5 7 < 7 2 7 1 J 5 5 < 7 5 2 5 7 7 6 * 6 2 7 5 7 L 5 6 6 2 #.GXLXBXu 2 6 3 2 5 7 6 5 5 5 5 5 5 5 5 7 6 2 < 5 5 5 5 5 6 5 , 5 2 7 5 7 , 7 % -.9.M [.GXLXBXq 7 < 6 7 2 5 5 6 < 5 5 3 K % Z KX",
"LXOX@ J 2 2 < 7 6 2 5 K 5 6 5 5 5 7 5 5 5 K 5 5 6 * < 2 6 6 2 5 5 < 5 K 2 5 6 2 , 5 6 5 5 6 2 7 * #.GXHXBXu J 2 2 7 * K 6 5 5 7 5 5 5 7 5 5 5 5 7 5 K 5 K 5 K K 5 5 5 5 6 L K 7 . ~.KXKXLXHXLXA.@ P 6 * 5 5 K L 5 7 5 5 7 J O OXLX",
"LXKXS $ 8 2 J 2 3 2 6 5 K 5 * 5 < 5 7 < 5 5 * 6 K K K K * 5 5 K 5 K 5 5 K < K < J < 5 5 5 < 2 5 $ @.KXLXSXu * 5 < 5 5 5 < 5 5 5 5 5 7 , 5 5 5 2 2 5 * K 5 5 < 5 7 5 5 5 5 * < 5 . K.LXLXLXLX%X- 3 5 = 6 5 6 < 5 * 5 5 5 5 . S KXLX",
"LXLXlXr O 4 < < 5 5 5 < K < 5 < 5 5 5 5 5 5 5 2 < < * K 5 2 2 , 2 5 < 5 * K 5 * K * 5 K 7 , 5 5 5 f C.F.y.3 3 6 5 5 5 6 5 5 * 5 6 2 2 5 5 5 6 2 2 * 6 5 5 5 5 5 2 5 5 * 5 K 5 5 * c :XjXeXB.; = K 2 2 5 5 * < 5 = < 5 6 3 r kXLXLX",
"LXLXLX<X- * L 6 < 2 * 6 5 5 5 5 5 5 5 * 2 7 2 2 6 6 5 * 7 , 7 6 5 5 5 2 6 2 5 6 6 2 5 2 5 5 5 5 5 ,     $ 3 2 , 6 6 * 5 5 5 5 5 5 5 5 5 5 5 5 5 5 K 5 , 2 5 5 * 6 5 5 < 5 2 2 6 6 * & > #   6 * 2 5 2 , 5 6 5 2 2 K L % 9 <XLXLXLX",
"LXLXHXLX2Xq + K J 2 7 2 2 5 2 6 5 5 , 5 5 5 5 5 5 5 5 5 5 < < 5 5 5 5 5 5 5 2 2 < 5 2 2 5 < 2 7 2 2 7 7 7 , 5 < , 5 5 , 7 5 5 < 5 5 5 5 5 < < 5 < 5 5 5 2 2 2 7 , 5 < 5 2 7 2 2 5 K K * < 7 5 K 5 2 2 , 7 5 5 6 2 7 @ r 2XLXLXLXLX",
"LXLXLXLXLXlXZ + $ 2 5 5 < < 2 2 2 2 2 2 2 2 2 , 2 2 2 2 2 2 5 2 2 2 * 5 2 5 2 5 2 5 2 5 2 2 5 2 5 2 * 5 2 5 2 2 2 2 2 2 2 2 2 2 2 2 < 2 5 2 2 2 2 2 2 2 5 < 2 2 2 2 5 2 2 2 2 5 2 2 2 2 2 2 2 2 < , * 5 < 5 2 * % X N lXLXLXLXLXLX",
"LXLXLXLXHXLXGX}.B - X @ * 2 , * * , 2 * , * 2 5 , 2 2 , * 2 * 2 2 , 2 * , 2 * 2 * 2 < * 2 * , 2 2 * 2 , 2 * , 2 * , 5 * 2 * * 5 * , 2 * 2 * 2 , * 5 , 5 2 * , 2 * 2 2 * < * 2 , < 2 * , * 2 2 * 2 2 2 2 % . + - M }.KXLXHXLXLXLXLX",
"HXLXLXLXLXHXLXLXGXqXC.C h # & & & & = & & & & & & & = & & & & & & & & & & & & & & & & & & & & & & & & & & & & & & & & & & & & & & & & & = & & & & & & & & & # = & & & & & & & & & & & & & & & & : & ; & a -.C.<XKXLXLXLXLXLXLXLXLX"
};
