/* XPM */
static char *img_ship3[] = {
/* columns rows colors chars-per-pixel */
"137 36 122 2 ",
"   c #00262C",
".  c #012D2E",
"X  c #00302D",
"o  c #002E32",
"O  c #003334",
"+  c #0C3837",
"@  c #003738",
"#  c #0A3639",
"$  c #023C3D",
"%  c #0D3C3C",
"&  c #133B3C",
"*  c #202020",
"=  c #223634",
"-  c #20393E",
";  c #2F3F3F",
":  c #333333",
">  c #373739",
",  c #3B3B3B",
"<  c #01423E",
"1  c #0A413F",
"2  c #14413D",
"3  c #0F3F41",
"4  c #113847",
"5  c #044141",
"6  c #0C4340",
"7  c #004B45",
"8  c #004D4C",
"9  c #124544",
"0  c #1F4341",
"q  c #124A46",
"w  c #194A47",
"e  c #1D4B49",
"r  c #00504F",
"t  c #014753",
"y  c #004A56",
"u  c #005250",
"i  c #254949",
"p  c #444444",
"a  c #565657",
"s  c #585653",
"d  c #575759",
"f  c #59595A",
"g  c #446264",
"h  c #45656A",
"j  c #506361",
"k  c #456A70",
"l  c #486873",
"z  c #557572",
"x  c #70726F",
"c  c #667675",
"v  c #6F7B7B",
"b  c #757676",
"n  c #797675",
"m  c #767876",
"M  c #777779",
"N  c #797778",
"B  c #747B7B",
"V  c #787879",
"C  c #1C9993",
"Z  c #179D9C",
"A  c #199F9D",
"S  c #27948F",
"D  c #279596",
"F  c #2A9897",
"G  c #2D959E",
"H  c #26989A",
"J  c #369091",
"K  c #369A92",
"L  c #359A98",
"P  c #13A69C",
"I  c #1BA29E",
"U  c #24A29D",
"Y  c #28A19A",
"T  c #24AA9F",
"R  c #00AFA4",
"E  c #0DACA4",
"W  c #01AEAD",
"Q  c #0BACA9",
"!  c #13A7A5",
"~  c #1EA4A2",
"^  c #13ADA3",
"/  c #14ACAA",
"(  c #1AACA9",
")  c #02B0AF",
"_  c #0BB1AF",
"`  c #04AEB1",
"'  c #08ADB1",
"]  c #01B1B1",
"[  c #08B5B3",
"{  c #04B1B8",
"}  c #21A5A3",
"|  c #22A8A7",
" . c #23A7A9",
".. c #2EA0AA",
"X. c #24AAA9",
"o. c #32A0A1",
"O. c #728081",
"+. c #8F8A87",
"@. c #8A8A8B",
"#. c #AEBCBD",
"$. c #B6B7B4",
"%. c #B8B6B7",
"&. c #B7B9B6",
"*. c #BFBAB7",
"=. c #B3B7BA",
"-. c #B8B7BC",
";. c #B5BCBD",
":. c #BBBBBB",
">. c #C1B9B7",
",. c #C2B7BB",
"<. c #C1B8BC",
"1. c #BCBEC1",
"2. c #DCEFED",
"3. c #DFF4F5",
"4. c #EBEBE9",
"5. c #E2F2F7",
"6. c #E2F5FA",
"7. c #E9F4FA",
"8. c #F9FBF6",
"9. c #F9F7F8",
"0. c #F5FFFF",
"q. c #FEFFFE",
/* pixels */
"+.s ;.:.1.1.-.-.:.:.*.*.>.>.*.*.*.*.&.;.:.<.,.,.:.:.:.*.<.<.1.1.:.:.f @.1.:.:.:.1.:.:.1.:.:.:.1.:.:.:.:.1.:.:.1.:.:.:.:.1.:.:.:.1.:.-.1.d @.;.:.1.:.:.:.1.:.:.1.:.:.:.:.1.:.:.:.1.:.:.1.:.:.:.1.:.:.:.1.-.:.d @.:.:.:.:.1.:.:.:.1.-.:.:.:.:.:.:.1.:.:.:.1.:.:.1.:.:.*.;.*.:.:.:.: ",
"s , b V m m M B b B m n n n m b n n m m N n n n N n n n n n b v M b > f M V M N M M M M M n N M M M M N M M M M M N N M M M M N M M N N > d B N N N M N M M M M M N N M M M M N M M M M M n N M M M b M V M , d M N N M M M M N M M M M M n N M M M M N M M M M b N B n M V b N * ",
":.m q.q.q.q.q.q.q.q.q.q.q.q.q.q.q.q.8.q.q.q.q.q.q.q.q.q.q.q.q.q.q.q.V &.q.q.q.9.q.q.q.q.q.q.q.q.q.q.q.q.q.q.q.q.q.q.q.q.q.q.q.q.q.q.q.q.V *.q.q.q.q.q.q.q.q.q.q.q.q.q.q.q.q.q.q.q.q.q.q.q.q.q.q.q.q.q.q.q.q.M -.q.q.q.q.q.q.q.q.q.q.q.q.q.q.q.q.q.q.q.q.q.q.q.q.q.q.q.q.q.q.q.q.p ",
";.V 8.q.q.9.q.q.q.q.q.q.q.q.q.q.q.q.q.q.q.q.q.q.q.q.8.q.q.8.q.q.q.8.V :.q.q.q.q.q.q.q.q.q.q.q.q.q.q.q.q.q.q.q.q.q.q.q.q.q.q.q.q.q.q.q.9.V <.9.q.q.q.q.q.q.q.q.q.q.q.q.q.q.q.q.q.q.q.q.q.q.q.q.q.q.q.9.q.q.9.N <.q.q.q.q.q.q.q.q.q.q.q.q.q.q.q.q.q.q.q.q.q.q.q.q.q.q.q.q.q.q.q.q.p ",
"1.V q.q.9.q.9.q.q.q.q.q.q.q.q.q.q.q.q.q.q.q.q.q.q.q.q.q.q.q.q.q.q.q.V *.8.q.q.8.q.9.q.q.q.8.q.q.q.q.q.8.q.9.q.q.q.q.q.8.q.8.q.q.q.8.q.q.V &.q.q.q.q.q.8.q.9.q.q.q.q.q.8.q.q.q.8.q.9.q.q.q.8.q.q.q.8.q.8.q.8.V &.q.8.q.q.q.q.q.8.q.q.q.q.q.8.q.q.q.q.q.8.q.9.q.q.q.q.q.q.q.q.q.q.p ",
"1.x q.9.9.q.q.q.q.q.q.q.q.q.q.q.q.q.q.q.q.q.q.q.q.q.q.q.q.q.q.q.9.q.x &.q.q.q.q.q.q.q.q.q.q.q.q.q.q.q.q.q.q.q.q.q.q.q.q.q.q.q.q.q.q.9.q.x *.8.q.q.q.q.q.q.q.q.q.q.q.q.q.q.q.q.q.q.q.q.q.q.q.q.q.q.q.q.q.q.q.x *.q.q.q.q.q.q.q.q.q.q.q.q.q.q.q.q.q.q.q.q.q.q.q.q.q.q.q.q.q.q.q.q.p ",
"1.M q.q.q.q.8.8.q.q.q.q.q.q.q.q.q.q.q.q.q.q.q.q.q.q.q.q.q.q.q.q.q.q.N ;.q.9.q.q.q.q.q.q.q.q.q.q.q.q.q.q.q.q.q.q.q.q.q.q.q.q.q.q.q.q.q.q.m ;.q.q.q.q.q.q.q.q.q.q.q.q.q.q.q.q.q.q.q.q.q.q.q.q.q.q.q.9.q.q.q.q.B <.q.q.q.q.q.q.q.q.q.q.q.q.q.q.q.q.q.q.q.q.q.q.q.q.q.q.q.q.q.q.q.q.p ",
"1.M q.8.q.8.q.q.q.q.q.q.q.q.q.q.q.q.q.q.q.q.q.q.q.q.q.q.q.q.q.q.q.q.B ;.q.q.q.q.q.q.q.q.q.q.q.q.q.q.q.q.q.q.q.q.q.q.q.q.q.q.q.q.q.q.q.0.V 1.q.q.q.q.q.q.q.q.q.q.q.q.q.q.q.q.q.q.q.q.q.q.q.q.q.q.q.q.q.q.q.q.V ;.q.q.q.q.q.q.q.q.q.q.q.q.q.q.q.q.q.q.q.q.q.q.q.q.q.q.q.q.q.q.q.q.p ",
"1.M q.q.q.q.q.q.q.q.q.q.8.q.8.q.8.0.q.q.q.q.q.q.0.0.q.q.0.q.0.0.q.0.v =.q.0.q.q.q.0.0.q.0.q.0.q.q.0.0.q.0.q.0.0.q.0.0.q.0.q.0.0.0.0.0.q.v ;.0.q.q.0.q.0.0.q.0.0.0.q.0.0.q.0.0.q.q.0.0.q.0.q.0.0.0.0.0.q.0.0.B ;.q.0.q.0.q.0.0.q.0.0.q.0.q.0.0.q.q.0.q.0.0.q.0.q.q.q.q.q.q.q.q.q.p ",
"-.b q.q.q.q.q.q.q.q.q.q.q.q.q.8.0.z 2 2 % 9 3 9 6 6 6 1 6 9 6 3 1 q X $ 1 1 6 6 6 6 6 1 6 6 1 1 1 6 6 6 6 6 6 6 6 6 6 6 6 6 6 6 1 6 6 6 X $ 1 6 6 1 6 1 6 6 6 6 6 6 6 6 6 6 6 6 6 6 6 1 6 6 6 6 1 6 6 1 6 q X $ 1 6 6 6 6 6 6 6 6 6 6 1 6 6 1 1 6 1 6 1 6 6 6 & c q.q.q.q.q.q.q.p ",
"%.b q.q.q.q.q.q.q.q.0.q.9.q.q.0.k   S T P P } H } I ~ ^ ~ ~ ~ ~ } I } } I } } I ~ ~ U ~ ~ ~ } ~ } I ~ ~ U ~ ~ ~ } I ~ ~ U ~ ~ ~ } I ~ I | U U ~ ~ ~ U ~ ~ U ~ } U ~ } ~ ~ I } U ~ ~ U ~ ~ ~ ~ U ~ } } ~ U I } I ~ U ~ ~ U ~ ~ ~ } ~ U ~ ~ ~ ~ } ~ ~ U ~ I ~ ~ L 0 q.q.q.q.q.q.q.p ",
">.n q.q.q.q.q.q.q.q.q.q.q.q.q.h o G ^ R ) ) R _ W W ) ) W ] ] ] W ) ) ) ) R ] ] ) ) ) ) ) ) ) W ) ) ) ) ) ) W ) ) ) ) ) ) ) W ) _ ] ) ] R ) ] ) ) ) ) ) ) ) ) W ) ) W ) ) ) ) ) ) ) ) ) ) ) ) ) W ] R ) ) { R [ ) ) ) ) ) ) ) ) ) W ) ) ) ) ) ) ) ) ) ) ) ) ) } w q.q.q.q.q.q.q.p ",
">.n q.q.q.q.q.q.0.9.9.q.q.0.h o H ! Q W ) ] ] ) ) ) ] ) ) ) ) ] ) ) ) ) ) ] W W ) ) ) ) ) ) ) ] ) ) ) ) ) ] ) ) ) ) ) ) ) ] ) ) ) R ] ] ] ] ] W ) ) ) ] ) ) ) ) ) ) ] W W ) ] ) ) ) ) ) ) ) ) ) ] ] W W ] R ] W ) ) ) ) ) ) ] W ) ) ) ) ) ) ) W ) ) ] ) ) ) ) } w q.q.0.q.q.q.q.p ",
">.n q.q.q.q.q.q.8.q.q.q.0.k X F / W ] W ] ] ] { ] ) ) ) ) ) ) ) ] ) ] W ) ) ] ] ) ) W ) ) ) ] W ) ) ) ) W ) ) ) ) ) ) ) ) W ) ] ] ) ] ] W W ] W ) ] W ) ) ) ) ) ) ) W ] ] ) ) ) ) ) W ) ) ) W ] W ) ] ] ] ] ] W ) ) ) ) ] ) ) W ) ) ) ) ) ) ) ] W ] W W ) ) W } e q.q.q.q.q.q.q.p ",
">.n q.0.q.q.q.q.q.8.q.0.h o C ^ Q [ W ] ] ] ] ` ] ] ) ) ) ) ) ) ) ] W ) [ ] ] W ] ] ] ] ] ] ] ] ] ] ] ] ] ] ] ] ) ] ] ] ] ] ] ] W [ W ] ] [ W ] ] ] ] ] ] ] ] ] ] ] ] ] ] ] ] ] ] ] ] ] ] ] ] ] ] ] ] ] ] ] W { ] ] ] ] ] ] ] ] ] ] ] ] ] ] ] ] ] ] ] ] ] ] ] ~ 9 q.q.q.q.q.q.q.p ",
"*.n q.q.q.q.q.q.q.8.q.g O D / W W W ] ] ] { ] ] ] ) ) ) ) ) ) ) W W { ] W ] ] ] ] ) ] ) ] ) ] ) ) ) ] ) ] ] ] ) ] ) ] ) ] ) ] ) ] W ` ] ] W W ] ] ) ] ) ] ) ] ) ] ) ] ) ] ) ] ) ] ) ] ) ] ) ] ) ] ) ] ) ] W { R ] ) ] ) ] ) ] ) ] ) ] ) ] ) ] ) ] ] ] ] ] ] ] ~ q 0.q.9.q.q.q.q.p ",
"*.n q.q.q.q.q.q.q.0.h o H / ` ` ] W ` ` ] ] ] ) ) ) W ) ) ) ) ) ) ) ) ) ) ) ) ) ) ) ) ) W ) ) ) ) ) ) ) W ) ) ) ) ) ) ) ) ) ) ) ] ) ) ) ) ) ) ) ) ) ) ) W ) ) ) ) ) ) ) ) W ) ) ) ) ) ) W ) ) ) ) ) ) ) W ) ) ) ) ) ) ) ) ) ) ) ) ) ) ) W ) ) ) ) ) W ) ) ) ) ~ w q.q.q.q.q.q.q.p ",
"*.b q.q.q.q.q.8.q.j   J ( W { ` ] ` ` ] ] ] ] ) ) ) _ ) ) ) ] ] W ) ) ) W ) ) ) ) ) W ) ) ) ) ) ) ) ) ) ) ) ) W W ) ) ) ) ) W ) ) W ) ) ) ) ) W ) ) ) ) ) ) ) ) ) ) ) ) ) ) ) ) ) ) ) ) ) ) ) ) ) ) ) ) ) ) ) W W ) ) ) ) ) W ) ) W ) ) ) ) ) ) ) ) ) ) ) ) ) ~ q q.0.q.q.q.q.q.p ",
":.m q.q.q.q.q.q.4.= q K P W W { ] ) ] ] { ] ` ] ' ' ) W ) ] ] ] ] ) ] ) ] ) ] ) ] ) ] ) ] ) ] ) ] ) ] ) ] ) ] ) ] ) ] ) ] ) ] ) ] ) ] ) ] ) ] ) ] ) ] ) ] ) ] ) ) ) ] ) ] ) ] ) ] ) ] ) ] ) ] ) ] ) ] ) ] ) ] ) ] ) ] ) ] ) ] ) ] ) ] ) ] ) ] ) ] ) ] ) ] ) ] ~ w q.0.q.q.q.q.q.p ",
"&.m q.q.q.q.q.q.q.2.+ 7 Y ^ W ) ) ) ) ] ] ` ' ' _ W W ] ` ` ` ` ` ] ] ] ] ] ] ] ] ] ] ] ] ] ] ] ] ] ] ] ] ] ] ] ] ] ] ] ] ] ] ] ] ] ] ] ] ] ] ] ] ] ] ] ] ] ] ] ] ] ] ] ] ] ] ] ] ] ] ] ] ] ] ] ] ] ] ] ] ] ] ] ] ] ] ] ] ] ] ] ] ] ] ] ] ] ] ] ] ] ] ] ] ] ] ~ q q.q.q.q.q.q.q.p ",
"*.m q.q.q.q.q.q.q.q.3.% u Y E R W W ) ) ) ) _ ] ] ) ) ) ) W ] ) ) W ] ] ) ) W ) ) ) ) ) ) W ) ) ) ] ) ) W ] ) ] ) ) ) W ) ) ) ) W ) W ] ) ) ] W ) ) ) ) ) ] ) ) ) ) ) ) ) ) ) ) ) ) ) ) ) ] ) ) ) ] ) ) W ] ) ] ) ) ) W ) ) ) ) ) ) ) ) ) W ] ) ) ) ) ) W ) ) ~ w q.q.q.q.q.q.q.p ",
":.V q.q.q.q.q.q.q.8.q.6.# r U ^ Q R ) ) ] ) ) ) ) ) ) ) ) ) ) ) ) ) ) ) ] ) ] ) ) ) ) ] ) ] ] W ) W ) ) ) ) ) ) ] ) ) ] ] W W ] ] ] ) W ) ) ) ] ] W ) ` ) W ) ] ) ] W ) ) ) W ) ] W ) ` ) W ) ] ) W ) ) ) ) ) ) ] ) ) ] ] W W ] ) ) ] W ) ] ) W ) ) ` ) ] ) ] ~ w q.q.q.q.q.q.9.p ",
":.n q.q.q.q.q.q.q.q.q.q.7.& r H E ) W ) ) ) ] ] ] ) W ` ) ) ] W W ] ) W W ) ] ) ) ] W W ) W ] ] W ] ] W ] ) ] W W ] ) ) ) ) ] W ) ) ) ] ) ) ) ) ) ) ] ) ) ] ] W ` ) ] ) W ] ] ) ) ) ] ) ) ] ] W W ] ] W ] ) ] W W ] ) ) ) ) ] W ) ] W ) ) W ) ] ) ) W ] W ] W ~ w q.q.q.q.q.q.q.p ",
":.n q.q.q.q.q.q.q.q.9.q.q.5.% 8 } ^ Q W ) ) ] ] ] ) ) ) ) ) ) ] ) ) ] ] W ] W ] ) ) ] ) ) ] W ) ] ) W ] W ) ) ] ) ) ] W ] ) W ] W ) ) ] W ) ] W ) ] W W ] W W ] ) ) W ) ] ) W ] ) ] W W ] W W ] ] ) W ] W ) ) ] ) ) ] W ] ) W ] ] W ) ] ) ] ] W ) ) ] W ] W ] } w q.q.q.q.q.q.q.p ",
":.N q.8.q.q.q.q.q.q.8.q.q.8.3.3 y ..^ ) ) ) ] W W ) ) ) ) W ) ) ) R ] W ` W W ) ) ) ) ) ) ) ) ) ) ) W W ) ] ) W ) ) ) ) ) ) ) ) ) W ) W W W ] W W ] W ) ) ) ) ) ) ) ) ) ) ) ) ) ) ] W ) ) ) ) ) ) W W ] ) W ) W ) ) ) ) ) ) ) ) ) ) ) ) ) ) ) ) W ) ) ) ) ) W } w q.q.q.q.q.q.q.p ",
":.N q.q.q.q.q.q.q.q.q.8.q.q.q.6.4 t o.I ^ ! ~ ~ ~ ~ ~ ! ! U ~ ~ ~ | ~ ~ } A X.~ } ~ ~ ~ ~ ~ ~ ~ } } ~ ~ ~ ~ ~ } ~ ~ ~ ~ ~ ~ ~ ~ ~ | ~ X.~ } ~ ~ ~ ~ ~ ~ ~ ~ ~ ~ ~ ~ ~ } ~ ~ ~ ~ ~ ~ ~ } ~ ~ ~ ~ ~ } } ~ } X.Z | ~ ~ ~ ~ ~ ~ ~ ~ } ~ ~ ~ ~ ~ ~ ~ ~ } ~ ~ ~ ~ } L i q.q.q.q.q.q.q.p ",
":.V q.q.q.q.q.q.q.8.q.q.q.q.q.q.5.- X O < < @ 4 3 $ $ $ $ $ < $ $ $ o @ $ $ @ $ $ $ $ $ $ $ $ $ $ $ $ $ $ $ $ $ $ $ $ $ $ $ $ $ $ $ $ O O @ $ 3 $ $ $ $ $ $ $ $ $ $ $ $ $ $ $ $ $ $ $ $ $ $ $ $ $ @ $ $ $ @ O @ $ $ $ $ $ $ $ $ $ $ $ $ $ $ $ $ $ $ $ $ $ $ $ + ; q.q.q.q.9.q.q.p ",
";.m q.q.q.q.q.q.q.q.q.q.9.9.q.q.q.q.0.0.0.0.q.0.0.q.0.0.0.0.0.q.0.0.O.#.0.0.0.0.0.0.0.0.0.0.0.0.0.0.0.0.0.0.0.0.0.0.0.0.0.0.0.0.0.0.0.0.v #.0.0.0.0.0.0.0.0.0.0.0.0.0.0.0.0.0.0.0.0.0.0.0.0.0.0.0.0.0.0.0.0.O.#.0.0.0.0.0.0.0.0.0.0.0.0.0.0.0.0.0.0.0.0.0.0.0.0.q.q.q.q.9.q.q.q.p ",
":.m q.q.q.q.q.q.q.9.q.q.q.q.9.q.q.0.q.q.q.q.q.q.q.q.q.q.q.q.q.q.q.q.m 1.q.0.q.q.q.q.q.q.q.q.q.q.q.q.q.q.q.q.q.q.q.q.q.q.q.q.q.q.q.q.q.q.b ;.q.q.q.q.q.q.q.q.q.q.q.q.q.q.q.q.q.q.q.q.q.q.q.q.q.q.q.q.q.q.q.q.b ;.q.q.q.q.q.q.q.q.q.q.q.q.q.q.q.q.q.q.q.q.q.q.q.q.q.q.q.q.q.q.q.q.p ",
":.M q.q.q.q.9.q.9.0.q.q.q.q.q.q.q.8.8.q.q.q.q.q.q.q.q.q.q.q.q.q.q.q.b $.q.q.q.q.q.q.q.q.q.q.q.q.q.q.q.q.q.q.q.q.q.q.q.q.q.q.q.q.q.q.q.q.M :.q.q.q.q.q.q.q.q.q.q.q.q.q.q.q.q.q.q.q.q.q.q.q.q.q.q.q.q.q.q.q.q.m :.q.q.q.q.q.q.q.q.q.q.q.q.q.q.q.q.q.q.q.q.q.q.q.q.q.q.q.q.q.q.q.q.p ",
"*.b q.q.q.q.q.q.q.q.0.q.q.q.q.8.q.q.q.q.q.q.8.q.q.8.q.q.q.q.q.q.q.q.V ;.q.q.q.q.q.q.q.q.q.q.q.q.q.q.q.q.q.q.q.q.q.q.q.q.q.q.q.q.q.q.q.q.b :.q.q.q.q.q.q.q.q.q.q.q.q.q.q.q.q.q.q.q.q.q.q.q.q.q.q.q.q.q.8.q.q.M ;.q.q.q.q.q.q.q.q.q.q.q.q.q.q.q.q.q.q.q.q.q.q.q.q.q.q.q.q.q.q.q.q.p ",
"*.b q.q.q.q.q.q.q.q.0.0.0.q.q.q.q.9.q.q.q.q.q.q.q.q.q.q.q.q.q.q.q.q.b :.q.q.q.q.q.q.q.q.q.q.q.q.q.q.q.q.q.q.q.q.q.q.q.q.q.q.q.q.q.q.q.q.B &.q.q.q.q.q.q.q.q.q.q.q.q.q.q.q.q.q.q.q.q.q.q.q.q.q.q.q.q.q.q.q.q.V :.q.q.q.q.q.q.q.q.q.q.q.q.q.q.q.q.q.q.q.q.q.q.q.q.q.q.q.9.q.9.q.q.p ",
":.b q.q.q.q.q.q.q.q.q.q.q.q.q.q.q.q.q.q.q.q.q.q.q.q.q.q.q.q.q.q.q.q.b :.q.q.q.q.q.q.q.q.q.q.q.q.q.q.q.q.q.q.q.q.q.q.q.q.q.q.q.q.q.q.q.q.b ;.q.q.q.q.q.q.q.q.q.q.q.q.q.q.q.q.q.q.q.q.q.q.q.q.q.q.q.q.q.q.q.q.b :.q.q.q.q.q.q.q.q.q.q.q.q.q.q.q.q.q.q.q.q.q.q.q.q.q.q.q.q.q.q.q.q.p ",
":.V q.q.q.q.q.q.q.q.q.q.q.q.q.q.q.q.q.q.q.q.q.q.q.q.q.q.q.q.q.q.q.q.V :.q.q.q.q.q.q.q.q.q.q.q.q.q.q.q.q.q.q.q.q.q.q.q.q.q.q.q.q.q.q.q.q.V *.q.q.q.q.q.q.q.q.q.q.q.q.q.q.q.q.q.q.q.q.q.q.q.q.q.q.q.q.q.q.q.q.V %.q.q.q.q.q.q.q.q.q.q.q.q.q.q.q.q.q.q.q.q.q.q.q.q.q.q.q.q.q.q.q.q.p ",
"@.d :.*.:.:.;.*.:.:.:.:.:.:.:.:.:.:.:.:.:.:.:.:.:.:.:.:.:.:.:.:.:.*.f @.:.:.:.*.:.:.:.:.:.:.:.:.:.:.:.:.:.:.:.:.:.:.:.:.:.:.:.:.:.*.*.:.d @.:.:.:.:.*.:.:.:.*.:.:.:.*.:.:.:.*.:.:.:.*.:.:.:.:.:.:.:.:.;.:.:.f @.:.:.:.*.:.:.:.:.:.:.:.:.:.:.:.:.:.:.:.:.:.:.:.:.:.:.:.:.:.:.:.:.: ",
"f : V M b N V V V V n m m V n V V V b N V V n m m V n V V V b N B V : f V b b V V V n m m V n V V V b N V V n m m V n V V V b N n B n V : f V b n V B V n V B V n V B V n V B V n V B V n V V N V b V n V V : f V V V V V V n m m V n V V V b N V V n m m V n V V m M N V V n m * "
};
