/* XPM */
static char *img_ship1[] = {
/* columns rows colors chars-per-pixel */
"70 36 108 2 ",
"   c #00100D",
".  c #001617",
"X  c #001D1E",
"o  c #001C22",
"O  c #002422",
"+  c #002B26",
"@  c #002F2D",
"#  c #002C33",
"$  c #002D3A",
"%  c #013333",
"&  c #0D3736",
"*  c #023B36",
"=  c #033C3C",
"-  c #093C3D",
";  c #103F39",
":  c #273C35",
">  c #353535",
",  c #3B3A3A",
"<  c #05403E",
"1  c #0C423E",
"2  c #1A413C",
"3  c #0C3F42",
"4  c #0C4242",
"5  c #124643",
"6  c #194140",
"7  c #2E7C7C",
"8  c gray34",
"9  c #595553",
"0  c #575759",
"q  c gray35",
"w  c #4C5F65",
"e  c #43656A",
"r  c #426C69",
"t  c #526060",
"y  c #486575",
"u  c #6F7B7B",
"i  c #767676",
"p  c #797775",
"a  c #757876",
"s  c #797A77",
"d  c #777679",
"f  c #79757A",
"g  c #747A7B",
"h  c #787878",
"j  c #17827C",
"k  c #207F81",
"l  c #7D7C81",
"z  c #1B8383",
"x  c #199F9E",
"c  c #23848B",
"v  c #3A958E",
"b  c #289791",
"n  c #229C92",
"m  c #2C9996",
"M  c #249C9B",
"N  c #2C9898",
"B  c #369D99",
"V  c #1CA39E",
"C  c #16A89C",
"Z  c #23A39F",
"A  c #37A09C",
"S  c #1D9FA1",
"D  c #2B96A0",
"F  c #03ACA6",
"G  c #09ACA7",
"H  c #03AEAE",
"J  c #09AEAC",
"K  c #13A7A3",
"L  c #1EA4A2",
"P  c #13AAA1",
"I  c #1CA9A3",
"U  c #1BA7A8",
"Y  c #1CAAAB",
"T  c #04B0A7",
"R  c #02B1AE",
"E  c #03AFB2",
"W  c #09ABB0",
"Q  c #01AFB8",
"!  c #02B1B1",
"~  c #0BB5B5",
"^  c #05B2B8",
"/  c #22A4A3",
"(  c #23A8A7",
")  c #24AAA9",
"_  c #7E9A9E",
"`  c #7F97A1",
"'  c #8F8A87",
"]  c #8A8A8B",
"[  c #819794",
"{  c #819D9E",
"}  c #8E999B",
"|  c #819CA1",
" . c #B7B7B5",
".. c #B6B8B7",
"X. c #BEBAB7",
"o. c #B6B5BA",
"O. c #BBB6BD",
"+. c #B5BDBE",
"@. c #BBBBBB",
"#. c #C1B9B5",
"$. c #B7BCC0",
"%. c #BDBAC0",
"&. c #C0BBC2",
"*. c #EEFFFF",
"=. c #F5FDF6",
"-. c #FBFDF6",
";. c #F5FFFF",
":. c #FEFEFE",
/* pixels */
"' 9 @.+.O.%.%.O.%.O.@.@.X.X.X.X.X. .X.@.+.#.&.%.$.+.@.@.#.@.#.@.%.@.] 0 %.@.@.%.@.@.%.+.@.@.@.@.%.%.+.@.#.#.%.@.#.#.X.X.@.%.@.@.O.@.@.@.] 8 ",
"9 , a h f f f f d i i a p p a a p p a a f f f f g g d d p p f f d f 0 , d d d d d d h d h f h d g f i a d d g d p p p a f f i d i p i d q > ",
"@.i :.:.:.:.:.:.:.:.:.:.:.:.:.:.:.:.:.:.:.:.:.:.:.;.:.:.:.:.:.:.:.:.@.p :.:.:.:.:.:.:.:.:.:.:.:.:.:.:.-.:.:.:.:.:.-.:.:.:.:.-.:.:.:.:.-.@.s ",
"+.d :.:.:.-.:.:.:.:.:.:.:.:.:.:.:.:.:.:.:.:.:.:.:.:.:.:.-.:.:.;.:.:.@.p :.:.:.:.:.:.:.:.:.:.:.:.:.:.:.:.:.;.:.:.:.:.:.;.:.:.:.-.:.:.:.:.&.p ",
"o.l :.:.:.-.:.;.:.:.:.:.:.:.:.:.:.:.:.:.:.:.:.:.-.-.-.:.:.:.:.:.:.-. .i -.-.-.:.:.:.-.-.:.:.:.:.:.:.:.:.:.:.:.:.:.:.:.:.:.:.:.-.:.:.:.-.@.p ",
"%.i :.-.:.-.:.-.:.:.:.:.:.:.:.:.:.:.:.:.:.:.:.:.:.-.:.:.:.:.:.;.:.:.@.i :.:.:.:.:.:.:.:.:.-.:.:.:.:.:.:.:.;.:.:.:.:.:.:.:.:.:.:.:.:.:.:.@.i ",
"&.f :.:.:.:.=.-.:.:.:.:.:.:.:.:.:.:.:.:.:.:.:.:.:.:.:.:.:.:.:.:.:.:.@.f :.:.:.:.:.:.:.:.:.:.:.:.:.:.-.-.:.:.:.:.:.:.:.:.:.:.:.:.:.:.:.:.@.i ",
"O.f :.:.:.-.:.:.:.:.:.:.:.:.:.:.:.:.:.:.:.:.:.:.:.:.:.:.:.:.:.;.:.;.$.f ;.:.:.:.:.:.:.:.:.:.:.:.:.:.:.:.:.:.:.:.:.:.:.:.:.:.:.:.:.:.:.:.@.i ",
"O.f :.:.:.:.:.:.:.:.:.:.:.-.;.;.:.-.:.-.:.:.;.;.:.;.:.:.;.;.:.:.;.;.+.u :.;.;.;.:.;.:.;.:.;.;.;.;.;.:.:.;.:.;.;.-.;.:.;.:.:.-.-.:.:.:.:.@.h ",
"O.f :.:.:.:.:.:.:.:.:.:.=.-.-.=.;.[ 2 1 5 - 4 4 4 4 3 4 4 4 4 1 5 1 = @ 4 4 4 1 4 1 4 4 1 4 4 4 4 4 1 1 4 4 1 1 3 3 - 2 : :.-.-.:.:.:.:.@.p ",
"o.p :.:.:.:.:.:.:.:.-.:.-.:.-.;.` o j Z C I / S U L I L / Z L V V V V ( V V L L V / L V / V L L L L / / / L L L S I L B * ;.:.:.:.:.:.:.+.p ",
"@.p :.:.:.:.:.:.:.-.:.-.:.:.;.| O c C R R R ~ F E ! R R R R T R E E R F H H H ! H H H R R R H R ! ! H W E E ! ! ! H F V = *.:.:.:.:.:.:.@.p ",
"#.p :.:.:.:.:.:.:.:.:.:.:.;.| o z U F F ! R H ~ ! ! ! ! R R R R R ! R H H R F ! R R ! R R R R ! ! ! H E Q Q ! E ! ! R Z = :.;.:.:.:.:.:.@.p ",
"@.p :.:.:.:.:.:.=.=.:.:.;.| o k I F E R R ! ! H E ! ! R R R R R H ! R R ! ! R ! R ! R R R ! H ! ! ! R ! ! Q E ! ! H F Z * :.:.:.:.:.:.:.@.d ",
"X.a :.:.:.:.-.:.:.=.:.;.` o k S J R R R ! ! E H J R R R R R H ! E R ! ! H R ~ R ! ! ! ! ! ! ! ! R H R R ! ! R R ! ! E / = ;.;.:.:.:.:.:.@.h ",
"@.i :.:.:.:.:.:.:.;.;.{ X k L J R ! ! R ! R R H J R R R R ! H H ! R R ! ! ! ! R ! R ! R ! R ! H H R R R ! R R R ! ! H V = ;.;.:.:.:.:.:.@.a ",
"@.p :.:.:.:.:.;.:.*.{ X k Y W E E W ! ! R ! R R H J R T R R E H H R R R ! H R H ! H H R H R R R R R R H ! ! ! E ! ! E L * ;.:.-.:.:.:.:.@.h ",
"@.i :.:.:.:.:.:.:.} . 7 V F ^ E W E E ! ! R R R R R R R R R H H ! R H R H R R R R R R R R R R R R R H J ! ! ! ! E H E ( = *.:.-.:.:.:.:.@.p ",
"@.a :.:.:.:.-.:.:.t + v C F H ^ ! ! E E E ! ! ! W ! H H R E E H ! R ! R ! R ! R ! R ! R ! R ! E ! H H H R R R R R J J / = ;.:.:.:.:.:.:.+.p ",
"@.a :.:.:.:.:.:.:.;.r + n P G H ! R ! ! E ^ W E ! ! R H H J E E ! ! ! ! ! ! ! ! ! ! ! ! ! ! ! ! E R R R R R R R R H J ( = ;.:.:.:.:.:.:.@.p ",
"#.p :.:.:.:.:.:.:.:.*.e @ m P F T R ! R ! E W E ! ! ! ! W E ! ! ! R ! H ! H R R H H R R R R ! E R R R R R R R R R T R / = *.:.:.:.:.:.:.@.p ",
"O.f :.:.:.:.:.:.:.:.:.*.e # n C G R R R R E E E ! ! ! ! E E ! ! R H ! R R H ! H R ! R E H ! H R R R R R R R R ! R R R L = *.;.:.:.:.:.:.@.d ",
"O.p :.:.:.:.:.:.:.:.:.:.;.e @ b P T H H E E E E ! E ! ! ! R ! ! H R H R R R H ! ! R R H H R R ! ! E R R R ! ! ! R R R V * ;.:.:.:.:.:.:.@.h ",
"@.p :.:.:.:.:.:.:.:.:.:.:.;.e # Z P F R R ! E E ! ! ! ! H R R R R R E R E R R R H H R ! ! H R H H H E E ! ! ! ! H R R L - ;.:.:.:.:.:.:.@.a ",
"#.p :.:.:.:.:.:.:.:.-.:.:.;.;.e $ D K R R R ! H H R R R H H H R H E H H H ! H H ! R H R H R ! H E W W E E E E E R F J V = ;.:.:.:.:.:.:.@.h ",
"@.p :.:.:.:.:.:.:.:.:.:.:.:.:.;.y # m V C K L / / I V I L L L L I V U L ( V L L L L L L L L L L L L L L L L L L ( L V A & :.:.:.:.:.:.:.@.p ",
"@.i :.:.:.:.:.:.:.:.:.:.:.:.-.:.:.w O * * = 3 - = = = = - - - = 3 = % % * = 3 * = = = = = = = = = = = = = = - - = = = %   -.:.:.:.:.:.:.+.p ",
"X.i :.:.:.:.:.:.=.:.:.=.:.:.:.:.:.:.:.;.:.;.;.;.;.:.;.;.;.:.;.:.;.;.+.l ;.;.*.;.;.;.;.;.;.;.;.;.;.;.*.*.;.;.;.:.:.;.;.;.:.-.-.:.:.:.:.:.@.p ",
"@.a :.:.:.:.:.:.:.:.:.:.:.:.-.:.:.:.-.:.:.:.:.:.:.:.:.:.:.:.:.:.:.:.+.i :.:.:.;.:.:.:.:.:.:.:.:.:.:.;.;.:.-.-.:.:.:.:.:.-.-.:.:.:.:.:.:.@.a ",
"X.a :.:.:.:.:.:.:.-.:.:.-.:.:.:.:.=.:.:.:.:.:.-.:.:.:.:.:.:.:.:.:.:.@.i :.:.:.:.:.:.:.:.:.:.:.:.:.:.:.:.:.:.:.:.:.:.:.:.:.:.:.:.:.:.:.:.@.h ",
"@.p :.:.:.:.:.:.:.:.=.:.:.:.-.:.;.:.:.:.:.:.:.:.:.:.:.-.:.:.:.:.:.:.@.i :.:.:.:.:.:.:.:.:.:.:.:.:.:.:.:.:.=.:.:.:.:.:.:.:.:.:.:.:.:.:.:.@.h ",
"X.p -.:.:.:.:.:.:.:.:.:.:.:.:.:.:.:.:.:.:.:.:.:.-.:.:.:.:.:.:.:.:.:...d :.:.:.:.:.:.:.:.:.:.:.:.:.:.:.:.:.:.:.:.:.:.:.:.:.:.:.:.:.:.:.:.@.i ",
"@.i :.:.:.:.:.:.:.:.:.:.:.:.:.:.:.:.:.:.:.:.:.:.:.:.:.:.:.:.:.:.:.:.@.i :.:.:.:.:.:.:.:.:.:.:.:.:.:.:.:.:.:.:.:.:.:.:.:.:.:.:.:.:.:.:.:.@.d ",
"@.h :.:.:.:.:.:.:.:.:.:.:.:.:.:.:.:.:.:.:.:.:.:.:.:.:.:.:.:.:.:.:.:.@.h :.:.:.:.:.:.:.:.:.:.:.:.:.:.:.:.:.:.:.:.:.:.:.:.:.:.:.:.:.:.:.:.@.p ",
"] 8 @.@.@.@.@.@.@.@.@.@.@.@.@.@.@.@.@.@.@.@.@.@.@.@.@.@.@.@.@.@.@.@.] 8 @.@.@.@.@.@.@.@.@.@.@.@.@.@.@.@.@.@.@.@.@.@.@.@.@.@.@.@.X.@.@.@.] q ",
"q > h h i h d p h h h p h h h p h h h p h h h p h h h p h h h a i h q > h i i h p h h h h h i h d p h h h h a a h h i h d p h h d i p h q > "
};
