/* XPM */
static char *img_ship2[] = {
/* columns rows colors chars-per-pixel */
"103 35 116 2 ",
"   c #001215",
".  c #001C1C",
"X  c #141414",
"o  c #1E1E1E",
"O  c #1F211E",
"+  c #001A22",
"@  c #001D29",
"#  c #002325",
"$  c #002C2C",
"%  c #00322F",
"&  c #013334",
"*  c #013739",
"=  c #043D3D",
"-  c #0C3A3C",
";  c #202123",
":  c #333333",
">  c #363739",
",  c #00433E",
"<  c #10413E",
"1  c #42413F",
"2  c #053D42",
"3  c #3E3E40",
"4  c #413F42",
"5  c #014343",
"6  c #154444",
"7  c #194647",
"8  c #174845",
"9  c #194A47",
"0  c #1E4648",
"q  c #174A4B",
"w  c #1A494A",
"e  c #1F4F51",
"r  c #204241",
"t  c #2C4240",
"y  c #27484D",
"u  c #3A4849",
"i  c #115F61",
"p  c #0C6A64",
"a  c #0E626C",
"s  c #07696C",
"d  c #0B6968",
"f  c #096771",
"g  c #444444",
"h  c #484545",
"j  c #444549",
"k  c #494748",
"l  c #484848",
"z  c gray34",
"x  c #565759",
"c  c #585859",
"v  c #446463",
"b  c #44646B",
"n  c #49646B",
"m  c #67747A",
"M  c #6B797A",
"N  c #767676",
"B  c #7A7675",
"V  c #767874",
"C  c #767779",
"Z  c #797579",
"A  c #75787A",
"S  c #7A7A7A",
"D  c #1E9791",
"F  c #1A9C9A",
"G  c #209994",
"H  c #239498",
"J  c #249E9C",
"K  c #289F99",
"L  c #369196",
"P  c #339B9E",
"I  c #3A989A",
"U  c #1CA39D",
"Y  c #24A19E",
"T  c #29A09C",
"R  c #259FA0",
"E  c #289FA4",
"W  c #0CAAA5",
"Q  c #03AFAE",
"!  c #0BACAC",
"~  c #17A3A2",
"^  c #1DA4A2",
"/  c #11ACA5",
"(  c #1BA8A2",
")  c #14AAAB",
"_  c #00B0A6",
"`  c #0CB0A7",
"'  c #02B0AE",
"]  c #08B2AF",
"[  c #14B3AF",
"{  c #03AFB2",
"}  c #11AFB0",
"|  c #02B1B1",
" . c #09B1B2",
".. c #22A4A3",
"X. c #28A0A1",
"o. c #21A8A4",
"O. c #22A4AA",
"+. c #449D9B",
"@. c #878988",
"#. c #898989",
"$. c #BBBAB6",
"%. c #B7BABB",
"&. c #BABBBB",
"*. c #B1BFC0",
"=. c #BDBCC1",
"-. c #BBCECD",
";. c #B7CFD1",
":. c #BDCED6",
">. c #BED0D4",
",. c #BFD2D9",
"<. c #CBCED3",
"1. c #E6FFFF",
"2. c #ECFFFF",
"3. c #FDFCF7",
"4. c #F5FFFF",
"5. c #FEFFFE",
/* pixels */
"O V N N A A A A A Z N N N Z N N Z Z Z Z Z A A A A A A A N Z N Z S N ; N A A N N S N A Z A A S N N N A N S N A Z A A S N N N A N A N A x > A Z N A A Z N N A N Z B B B B Z Z N N N V V V Z V A A N N Z N S c > ",
": $.&.&.%.%.=.&.$.$.$.$.$.$.%.%.&.$.&.&.&.%.%.%.%.%.&.%.&.&.%.&.&.%.: &.=.&.=.%.%.&.%.&.%.&.%.&.=.&.%.%.%.&.%.&.%.&.%.&.=.&.%.%.=.$.=.@.c &.&.%.&.%.&.%.&.&.%.&.$.$.&.&.$.&.&.$.&.$.$.$.&.&.=.%.=.%.&.&.&.#.c ",
"k 5.5.5.5.5.5.3.5.5.5.5.5.5.5.5.5.3.5.5.5.5.5.5.5.5.5.5.5.5.5.5.5.3.k 5.5.5.5.5.5.3.5.5.5.5.5.5.5.5.5.5.5.3.5.5.5.5.5.5.5.5.5.5.5.3.5.&.S 3.5.3.5.5.5.5.5.5.5.5.5.5.5.5.5.5.5.5.5.5.5.3.3.5.5.5.5.5.5.5.3.&.S ",
"4 5.5.5.5.5.5.5.5.5.5.5.5.5.5.5.5.5.3.5.5.5.5.5.5.5.5.5.5.3.5.3.5.5.g 3.5.3.5.5.5.5.5.5.5.5.5.3.5.5.5.5.5.5.5.5.5.5.5.3.5.5.5.5.5.5.5.$.N 5.5.5.5.5.5.5.5.5.5.5.5.5.5.4.4.5.5.5.5.5.5.5.5.5.5.5.5.5.5.5.5.&.N ",
"j 5.5.5.5.3.5.5.5.5.5.5.5.4.5.5.5.4.5.5.5.5.5.5.5.5.5.5.5.5.5.4.5.5.h 5.5.5.5.5.5.5.5.5.5.5.5.5.5.5.5.5.5.5.5.5.5.5.5.5.5.5.5.5.5.5.5.$.A 5.5.5.5.5.5.5.5.5.5.5.5.5.5.5.5.5.5.5.5.5.5.3.5.3.3.5.5.5.5.5.5.&.S ",
"j 5.5.3.3.5.3.5.5.5.5.5.5.5.5.5.5.5.5.4.5.5.5.5.5.5.5.5.5.5.5.5.5.5.g 5.5.5.5.5.5.5.5.5.5.5.5.5.5.5.5.5.5.5.5.5.5.5.5.5.5.5.5.5.5.5.5.%.S 5.5.5.5.5.5.5.5.5.5.5.5.5.5.5.5.5.5.5.5.5.5.5.5.5.5.5.5.5.5.5.5.&.Z ",
"u 5.5.5.5.3.5.5.5.5.5.5.5.5.5.5.5.5.5.5.5.5.5.5.5.5.5.5.5.5.5.5.5.5.u 5.5.5.5.5.5.5.5.5.5.5.5.5.5.5.5.5.5.5.5.5.5.5.5.5.5.5.5.5.5.5.5.%.S 5.5.5.5.5.5.5.5.5.5.5.5.4.5.5.5.5.5.5.5.5.5.5.5.5.5.3.5.5.5.5.5.%.Z ",
"g 5.5.5.5.5.5.5.5.5.5.5.5.5.5.3.5.5.5.5.5.5.5.5.5.5.5.5.5.5.5.4.5.5.j 4.5.5.5.5.5.5.5.5.5.5.5.5.5.5.5.5.5.5.5.5.5.5.5.5.5.5.5.5.5.4.5.%.A 5.5.5.5.5.5.5.5.5.5.5.5.3.5.5.5.5.5.5.5.5.5.5.5.5.5.5.5.5.5.5.5.$.Z ",
"h 5.5.5.5.5.5.5.5.5.5.4.5.5.3.3.3.5.5.5.4.4.4.4.4.4.4.5.4.5.4.5.4.2.u 4.4.4.4.4.4.4.4.4.4.4.4.4.4.4.4.4.4.4.4.4.4.4.4.4.4.4.4.4.4.4.4.-.m 4.4.4.4.4.4.4.4.4.4.4.4.4.5.4.4.4.4.2.4.4.2.4.5.4.5.3.5.5.5.5.5.&.N ",
"h 5.5.5.5.5.5.5.5.5.5.5.3.4.5.5.v # - * - = - , = = = = = = = = = = % & = = = = = = = = = = = = = = = = = = = = = = = = = = = = * = = * % * * * = = = = = = = = = = 2 = = = = = = = 2 2 -   4.3.5.5.5.5.5.&.N ",
"g 5.5.5.5.5.5.5.5.5.4.5.5.5.5.v * K J Y U U F ( U ^ ^ U U U U U ^ ^ o.^ U U o.U U ^ ^ ^ ^ ^ ^ U ^ ^ U ^ ^ ^ U ^ ^ ^ U ^ U ^ ^ ^ ^ ^ U U o.U o.^ ^ ^ U ^ ^ ^ ^ U ^ ^ ^ R ^ ..^ U ( ( ^ R I 2 4.5.5.5.5.5.5.&.N ",
"1 5.5.5.5.5.5.5.5.5.4.4.5.4.v % F ! ! Q ] ] | _ ' ' ' ' ' ] ' ' ' Q | ] Q Q ' | ' ' ' ' ' ' ' ' ' ' ' ] ' ' ' ' ' ' | ] ' ' ' ' ' ' ] ' _ ' ' Q ' ' ] ' ' ' ' ' | | { { { ] ] ! | _ | [ R = 4.5.5.5.5.5.5.&.Z ",
"h 3.5.5.5.5.5.5.4.4.5.5.4.n $ D ) ! Q ] ' ' ' | ' ' ' ' ' ' ' Q | ' ' ' | | ' ' ' ' ' ' ' ' ' ' ' ' ' ' ' ' ' ' ' ' ' ' ' ' ' ' | ' ' ' | Q ' | ' ' ' ' ' ' Q Q ' ' { { | Q Q Q Q ' ] W ..5 1.5.5.5.5.5.5.&.N ",
"h 5.5.5.5.5.5.5.3.3.4.4.b & D ) ! | ] Q ' | | | | | | ' | | | | | | | | | ' | | | | | | | | | | | | | ' | | | | ' | | | | | | | ' | | ' | | | | | | | ' | | | ' ' ' { | | ' _ Q ! { { W Y 5 2.3.5.5.5.5.5.&.N ",
"g 5.5.5.5.5.5.5.3.3.5.v % G / Q ' _ _ ] ' ' | ' Q Q ' ' ' ' ' ' ' ] ' | | | | Q ' ' | ' ' ' ' ' ' | ' ' ' ' ' ' ' ' ' | | ' ' ' ' ' ] | Q ' ' | ' | ' ' ' ' ' ' ' Q Q | | ' ' ' ' | { ) Y , 2.5.5.5.5.5.5.&.N ",
"g 5.5.5.5.5.4.3.5.5.n % D / Q ' ' ' | Q ' Q | ] ' { ' ' ' ' ' ' ] ' ] ' ' ' ] | ' ' ' ' ' ' ' | ' ' ' ' | ' ' | ' ' ' ' ' ' ' ' ' | ' ' | Q ] ' ' ' ' ' { ' ' Q ' ' | | | ' ' Q ] { { ! J 5 2.3.5.5.5.5.5.&.N ",
"g 5.5.5.5.3.5.5.4.b & H ) ] Q Q _ ' ' ] ] ! ' ' ' ' ' ' ' ' ' ' ' Q Q Q Q Q ' Q Q Q Q Q Q Q { Q ' Q Q Q { Q Q { Q ' Q Q Q Q Q { Q { ' { ' Q Q Q { Q { Q { Q ' ' | | { { | ' ` ] { { { ! Y , 2.3.5.5.5.5.5.&.N ",
"g 5.5.5.5.5.3.5.m @ L O.! ' Q ' ' ' ' ] Q Q ' ' ' ' ' ' _ ' ' ' ' { ' Q | Q { Q Q ' { Q | Q ' Q ' | Q { Q Q ' Q { Q Q Q { Q Q Q Q Q Q Q Q Q Q Q Q Q Q Q Q Q Q | | | { | ] ] _ _ { { { ! ..5 2.5.5.5.5.5.5.&.N ",
"j 5.5.5.5.3.5.5.<.  i K W _ ' ] ' ' ' ' | | | | { { { Q | ' ' ' ' ' ' Q ' ' ' Q ' Q Q ' ' Q ' Q ' Q ' ' ' ' ' ' ' ' ' ' ' ' ' ' ' ' ' ' ' ' Q ' ' ' ' ' ' ' ' ' ' ' | { ' ' ' _ { { { } X.5 4.5.5.5.5.5.5.&.N ",
"j 5.5.5.5.5.5.5.5.,.. p U ` ] Q ' | ' | | | | { { { { { | | | | Q ' ' ' ' Q ' ' ' ' ' ' ' ' ' ' ' ' ' ' ' Q ' ' ' ' Q ' Q ' Q ' Q ' ' Q | ' ' ' ' Q ' ' Q ' ' Q ' ' ' ] ' ' ' ' { { { } E 5 2.5.5.5.5.5.5.&.N ",
"g 5.5.5.5.3.5.5.5.4.-.. p U ! { ! Q ' ' | ' | | { { ! { Q { ' ' | ' | Q { ' | Q | Q | | | ' | Q | ' | Q | ' | Q { ' | ' | ' | ' | Q | ' | ' | | | Q | Q | ' | ' _ ! ' ' ' ' ' ' | | { ! R 5 2.5.5.5.5.5.5.&.Z ",
"j 5.5.5.5.5.5.5.5.5.5.-.. d ~ ! ! Q ' ' | ' | | { { { { Q Q ' ' | { { | | | { | | | | { | | | | | { { | { | { | | | { { | | | | | { { | | | | | | | { | | { { ' { Q ' ' ' ' ' ' | | | ) Y 5 2.5.5.5.5.5.5.&.N ",
"j 5.5.5.5.5.5.5.5.3.3.5.>.. s ^ ! ' ' ' ' ' ' ' ' ' Q Q Q { ' ' ' | ' ' Q ' ' | ' | Q ' | ' ' | ' ' ' | ' ' | ' ' ' ' ' ' ' Q ' ' ' ' Q ' Q ' ' ' ' ' | ' ' ' ' | | | | | ' { ' Q { | W Y 5 2.5.5.5.5.5.5.$.N ",
"g 5.5.5.5.5.5.5.5.3.3.5.5.:.+ s ( ! Q ] _ ' ' ' ' ' ] ' ' ' ' ' Q Q ' ' | ' Q Q ' Q ' ' ' ' ' | ' ' ' Q ' Q Q ' ' Q ' ' { Q | ' Q | ' | ' ' | | ' | Q ' Q ' | Q | { { | | ' Q ] Q Q ' W Y 5 2.5.5.5.5.5.5.&.N ",
"g 5.5.5.5.5.5.5.5.3.5.5.5.5.:.+ f O.) ! _ | _ ] ] Q ' _ ' ' ' ] | | | | | | | | | | | | | | | | | | | | | | | | | | | | | | | | | { | ' | | | | | | | | | | | | Q { { | | | ' ' | ' _ / T 5 4.5.5.5.5.5.5.&.N ",
"h 5.5.5.5.5.5.5.3.5.5.5.5.5.5.:.@ a P J ^ U o.U Y ....^ ^ ^ U ^ ^ ^ ^ ^ O.^ ^ ^ ^ ^ ^ ^ ^ ^ ^ ^ ^ ^ ^ ^ O.^ ^ ^ ^ ^ ^ ^ ^ ^ O.^ ^ o.O.^ O.o.^ ^ O.^ ^ ^ ^ ^ ^ ......^ ^ O.^ ....^ o.F K +.* 4.5.5.5.5.5.5.&.N ",
"h 5.5.5.5.4.4.5.5.5.3.3.5.5.3.5.;.y 0 7 w w 2 e 7 w w q q q q w 7 q # 6 w 9 6 8 w 9 w w w w w 8 w w w 8 w 9 w 9 7 w 7 w 9 q w 8 w 9 7 2 $ 8 7 9 w 8 w 8 w w w w 7 q q q q q q q q q q w r t 4.3.5.5.5.5.5.$.N ",
"1 5.5.5.5.4.5.5.3.5.3.5.5.5.3.5.5.4.5.5.5.5.5.4.5.4.5.5.5.5.4.4.5.3.g 5.5.5.5.5.5.5.5.5.5.5.5.5.5.5.5.5.5.5.5.5.5.5.5.5.5.5.5.5.5.5.5.$.S 5.5.5.5.5.5.5.5.5.5.5.5.5.5.4.4.4.5.5.5.4.5.4.5.5.3.4.5.5.5.5.5.&.N ",
"h 3.5.4.5.5.5.5.5.5.5.5.5.4.3.3.4.4.5.5.5.5.5.5.5.5.5.5.5.5.5.5.5.5.g 5.5.5.3.5.5.5.5.3.3.5.5.5.5.5.5.3.5.5.5.3.3.5.5.5.5.3.5.5.5.3.5.$.N 5.5.5.5.5.5.3.5.5.5.3.5.5.3.5.5.5.5.5.5.4.4.5.5.5.3.5.5.5.5.5.5.&.N ",
"g 5.5.5.5.5.5.5.3.4.4.5.5.5.5.5.4.4.3.5.5.5.5.5.5.5.5.5.5.5.5.5.5.5.g 3.5.5.3.5.5.5.5.5.5.5.5.5.5.5.5.5.5.5.5.5.5.5.5.5.5.5.5.5.5.5.5.%.Z 5.3.5.5.5.5.5.5.5.5.5.5.5.5.3.3.5.5.5.5.5.5.5.5.5.5.5.5.5.5.5.5.&.N ",
"j 5.5.5.5.5.5.5.4.4.5.3.5.3.3.5.3.5.5.5.5.5.5.5.5.4.5.5.5.5.5.5.5.5.3 5.5.5.5.5.5.5.5.5.5.5.5.5.5.5.5.5.5.5.5.5.5.5.5.5.5.5.5.5.5.5.5.&.S 3.5.5.5.5.5.5.5.5.5.5.5.5.5.5.5.5.5.5.3.5.5.5.5.5.5.5.5.5.5.5.5.&.Z ",
"g 5.5.5.5.5.5.5.5.5.5.5.3.3.5.5.5.5.5.5.5.5.5.5.5.5.5.5.5.5.5.5.5.5.j 5.5.5.5.5.5.5.5.5.5.5.5.5.5.5.5.5.5.5.5.5.5.5.5.5.5.5.5.5.5.5.5.%.N 5.5.5.5.5.5.5.5.5.5.5.5.5.5.5.5.5.5.5.5.3.5.3.3.5.5.5.5.5.5.5.5.&.N ",
"g 5.5.5.5.5.5.5.5.5.5.5.5.5.5.5.5.5.5.5.5.5.5.5.5.5.5.5.5.5.5.5.5.5.h 5.5.5.5.5.5.5.5.5.5.5.5.5.5.5.5.5.5.5.5.5.5.5.5.5.5.5.5.5.5.5.5.&.N 5.5.5.5.5.5.5.5.5.5.5.5.5.5.5.5.5.5.5.5.5.5.5.5.5.5.5.5.5.5.5.5.&.N ",
"g 5.5.3.5.5.5.5.5.5.5.5.5.5.5.5.5.5.5.5.5.5.5.5.5.5.5.5.5.5.5.5.5.5.k 5.5.5.5.5.5.5.5.5.5.5.5.5.5.5.5.5.5.5.5.5.5.5.5.5.5.5.5.5.5.5.3.%.S 5.5.5.5.5.5.5.5.5.5.5.5.5.5.5.5.5.5.5.5.5.5.5.5.5.5.5.5.5.5.5.5.$.S ",
"X g 4 g 4 g g g g g g g g g g g g g g g g g g g g g g g g g g g g g X > g g g h g g g g g g g g g g g g g g g g g g g g g g g g g h g : o 4 h g g g h g g g g g g g g g g g g g g g g g g g g g g g g 3 h : o "
};
