/* XPM */
static char *img_thermometer[] = {
/* columns rows colors chars-per-pixel */
"35 131 256 2 ",
"   c #565455",
".  c #767576",
"X  c #6B6969",
"o  c #F10311",
"O  c #F1092E",
"+  c #F22932",
"@  c #CE201A",
"#  c #F04239",
"$  c #ED1544",
"%  c #B7726E",
"&  c #DE5447",
"*  c #FF4759",
"=  c #DF6354",
"-  c #D77278",
";  c #F77070",
":  c #D5B33A",
">  c #F7CD2D",
",  c #D9B54B",
"<  c #EABB46",
"1  c #F5B648",
"2  c #E7B753",
"3  c #DCB973",
"4  c #E6BE68",
"5  c #E8BC75",
"6  c #E6B37E",
"7  c #D4D24E",
"8  c #ECC44A",
"9  c #ECCB5D",
"0  c #E8CB56",
"q  c #F5C659",
"w  c #EFD356",
"e  c #DEC46E",
"r  c #DCC271",
"t  c #DCD873",
"y  c #D2D06B",
"u  c #EAC363",
"i  c #ECCA66",
"p  c #EDC46B",
"a  c #EBC969",
"s  c #E4C967",
"d  c #F2CB64",
"f  c #F3C96A",
"g  c #EAD062",
"h  c #EAD36C",
"j  c #E9D76A",
"k  c #F7D569",
"l  c #E0CA75",
"z  c #EBCB74",
"x  c #EBC57A",
"c  c #E6CD79",
"v  c #EDCE7B",
"b  c #E6C474",
"n  c #F4CC75",
"m  c #F2CC7B",
"M  c #F8C876",
"N  c #E6D07B",
"B  c #E9D37D",
"V  c #E3DD7B",
"C  c #EBD878",
"Z  c #F3DA72",
"A  c #F1D37B",
"S  c #F3D97C",
"D  c #F8D678",
"F  c #E7E27D",
"G  c #DA7E89",
"H  c #EA788A",
"J  c #FA7A94",
"K  c #FF6987",
"L  c #858685",
"P  c #939293",
"I  c #9C9B9B",
"U  c #989796",
"Y  c #8E918E",
"T  c #A09E9F",
"R  c #9EA699",
"E  c #A1A69F",
"W  c #9B9EA1",
"Q  c #A39CA1",
"!  c #9DA3A4",
"~  c #A5A4A4",
"^  c #ACACAC",
"/  c #A8A7A8",
"(  c #B3A9AF",
")  c #B8ADB6",
"_  c #AEB1B2",
"`  c #B3B2B3",
"'  c #BDBBBC",
"]  c #B7B8B7",
"[  c #B1B9AC",
"{  c #DF828D",
"}  c #EA868E",
"|  c #E48487",
" . c #E88B96",
".. c #ED929E",
"X. c #E59699",
"o. c #F2929D",
"O. c #ECB885",
"+. c #F9A492",
"@. c #F494A2",
"#. c #F994A2",
"$. c #F59CA6",
"%. c #EB9BA4",
"&. c #C4ACAA",
"*. c #C5B6BB",
"=. c #CCB3AF",
"-. c #EBA4AB",
";. c #FAA5A7",
":. c #EDACB3",
">. c #F2A6B0",
",. c #F3AEB4",
"<. c #FDA8B5",
"1. c #E9B7B7",
"2. c #F6B5BB",
"3. c #E8B8AA",
"4. c #BCC3BA",
"5. c #DFD883",
"6. c #DCD781",
"7. c #E5C583",
"8. c #E9CB8A",
"9. c #EAC986",
"0. c #F5CD86",
"q. c #ECD383",
"w. c #EBD38D",
"e. c #E3DD8A",
"r. c #EBDB8D",
"t. c #E3D886",
"y. c #F4D482",
"u. c #F3DC84",
"i. c #F3DB8C",
"p. c #F8D788",
"a. c #EFCC96",
"s. c #E6C496",
"d. c #E9D796",
"f. c #F3D592",
"g. c #F4DA95",
"h. c #F1D39C",
"j. c #F8DE9C",
"k. c #F1CC97",
"l. c #E9E38E",
"z. c #E8E388",
"x. c #F4E286",
"c. c #EBE591",
"v. c #EBE596",
"b. c #F5E997",
"n. c #F5F09C",
"m. c #C6C5BC",
"M. c #CEC5A6",
"N. c #EBDDAA",
"B. c #F3DBA5",
"V. c #F2CDBD",
"C. c #F2D1B2",
"Z. c #F5D7BD",
"A. c #F7DAB5",
"S. c #E4C3B0",
"D. c #EAE3A2",
"F. c #EEE5A9",
"G. c #F4EAAB",
"H. c #F4E5B7",
"J. c #EAF9BE",
"K. c #C2BCC1",
"L. c #CCBBC3",
"P. c #C7BCC6",
"I. c #D2BDC9",
"U. c #F9BCC2",
"Y. c #BEC3C4",
"T. c #BED8CD",
"R. c #C4C3C4",
"E. c #C8C5C6",
"W. c #C9C4CA",
"Q. c #CCCBCB",
"!. c #C6C8C6",
"~. c #D2CDCE",
"^. c #D9C1CF",
"/. c #CDD2CA",
"(. c #D7D7CA",
"). c #CDCBD2",
"_. c #CEC6D0",
"`. c #D3CDD2",
"'. c #DCC8D4",
"]. c #CCD2D3",
"[. c #CFD6D5",
"{. c #D4D3D3",
"}. c #DADAD6",
"|. c #DAD5DB",
" X c #D5DADB",
".X c #DCDBDC",
"XX c #D7D6D7",
"oX c #F7C3C2",
"OX c #E8DACA",
"+X c #FBD8C4",
"@X c #E2DDDD",
"#X c #E7DDD7",
"$X c #FBDDD5",
"%X c #F9DAD5",
"&X c #F2C6D5",
"*X c #DEE4DB",
"=X c #D8E6DD",
"-X c #DDFDD8",
";X c #F5E5C4",
":X c #F3EBCD",
">X c #F6E7CA",
",X c #FBF5CB",
"<X c #E3E4DD",
"1X c #ECE5D7",
"2X c #F4E5D4",
"3X c #FCE4D3",
"4X c #FCECD3",
"5X c #FFE5DD",
"6X c #F4EDDE",
"7X c #FCECDA",
"8X c #F4E7D8",
"9X c #FCF3DD",
"0X c #FAF4D5",
"qX c #E6E3C5",
"wX c #DCDDE1",
"eX c #D6DBE1",
"rX c #E3DDE2",
"tX c #DEE6E4",
"yX c #DCFFF9",
"uX c #E4E4E4",
"iX c #E8E5E5",
"pX c #EAE6E9",
"aX c #E3ECEB",
"sX c #ECECEC",
"dX c #EAEBE3",
"fX c #F5ECE4",
"gX c #FAEDE5",
"hX c #FEE6ED",
"jX c #F2EEEE",
"kX c #FCEDEB",
"lX c #F8E6E7",
"zX c #EEF3EC",
"xX c #E8F6E8",
"cX c #F6F1E5",
"vX c #FBF2E5",
"bX c #FCFAE5",
"nX c #FBF4EC",
"mX c #F1FDEB",
"MX c #FEFDED",
"NX c #F4F7E9",
"BX c #EAEDF1",
"VX c #F2EFF0",
"CX c #FDECF5",
"ZX c #FDEDFC",
"AX c #F8E5F4",
"SX c #EDF4F3",
"DX c #EDFCFB",
"FX c #E9F8F8",
"GX c #F4F4F4",
"HX c #FCF6F5",
"JX c #F5FEF4",
"KX c #FCFDF5",
"LX c #F6F6FC",
"PX c #FEF5FD",
"IX c #F4FEFC",
"UX c #FEFDFE",
/* pixels */
"KXUXUXLXPXUXUXUXUXUXUXUXUXJXHXHXUXUXUXKXKXUXIXUXUXUXUXKXUXUXUXUXUXUXUX",
"UXUXUXUXUXUXJXJXJXUXUXIXLXUXUXUXUXUXUXUXUXUXUXUXPXLXUXPXUXUXUXUXUXUXUX",
"UXUXUXUXUXGXGXJXJXLXUXHXHXUXUXHXgX9XvX9XnXMXUXUXUXUXPXUXLXKXMXbXUXUXUX",
"UXUXUXUXmXGXUXUXUXHXfXqXN.d.w.w.q.t.9.w.d.h.B.H.9XbXUXPXUXUXUXJXUXUXUX",
"UXUXUXIXLXPXUXPX4XC.s.O.4 , , q d q i u 4 4 3 4 d.N.>XvXUXUXUXUXUXUXUX",
"KXGXIXLXUXUX5X+Xd 2 2 q d 2 q k k M M M M M M x s 9.d.H.7XHXLXLXUXUXUX",
"UXGXLXUXMXA.9.i q < q D D f p n u p m 0.0.0.y.v A A q.g.F.:XGXLXUXUXUX",
"UXSXIXUX4Xr : > M p 4 p a s h D s h A u.u.F h j 0.0.m B D.;XMXUXUXUXUX",
"UXPXbXJXHX6 1 z i a a i a i a a B q.i.g.c.i.y.B q.q.b c q.H.MXLXUXUXUX",
"UXPXMXJXHX6 1 z 9 9 9 9 9 9 9 9 8.w.f.B.B.h.w.8.B q.z x q.F.JXIXUXUXUX",
"UXUXJXIXPXO.< s f f f f f f f f p.f.g.j.j.g.f.0.u.D m y.i.G.MXUXUXUXUX",
"KXUXUXIXHX9.8 e d i d d d d i i A S u.x.u.S S v p.p.y.0.8.F.bXUXUXUXUX",
"KXUXUXIXUX9.q w.g g g g g g g g w.w.r.r.r.d.w.w.f.f.a.h.d.N.6XGXUXUXUX",
"JXPXLXIXHX5 z ;XH.H.H.H.H.H.H.H.2X2X:X:X:X:X:X2XH.;X;X4X;XqXbXHXUXUXUX",
"IXLXLXIXbX3 8.HXUXUXPXUXZXUXPXUXUXLXLXUXUXUXPXUXMXMXKXKXbX1XJXUXUXUXUX",
"IXZXHXJXbX3 k.PXUXKXKXKXUXJXKXUXUXUXUXJXJXIXUXUXJXIXUXUXHXdXnXLXUXUXUX",
"KXUXLXJXCX5 a.UXUXUXUXUXUXUXUXUXUXGXLXLXUXUXUXUXUXUXIXJXMX2XHXUXUXUXUX",
"MXUXLXJXHX5 a.UXUXUXUXUXUXUXUXUXUXUXUXKXUXGXUXUXUXUXDXUXKX7XMXUXUXUXUX",
"KXUXLXJXPX5 a.UXLXUXUXUXUXUXUXUXHXGXUXUXUXLXUXUXjXUXUXUXcX1XHXGXUXUXUX",
"KXUXLXJXPX5 a.UXUXUXUXUXUXUXUXUXUXLXUXUXUXUXUXGXUXLXIXUXMX2XnXUXUXUXUX",
"MXUXLXJXPX5 a.UXUXUXUXUXUXUXUXHXUXUXLXLXUXUXHXGXUXUXIXJXbXOXfXGXUXUXUX",
"KXUXLXJXPX5 a.UXUXUXUXUXUXUXLXGXuXUXJXUXUXHXzXVXHXLXIXUXMX1XHXUXUXUXUX",
"MXUXLXJXPX5 a.UXUXUXUXUXUXUXGXGXR.GXLXUXUXLX/.].`.T ! zXMXOX1XUXUXUXUX",
"KXUXLXJXHX5 a.UXUXUXUXUXUXUXGXVX{.UXHXUXUXsX` ~ U !.BXSXcX2XKXUXUXUXUX",
"UXUXLXmXUXx h.UXUXUXUXUXLXUXUXGX<XUXHXUXUXUXLXGX) UXMXUXPXD.nXGXUXUXUX",
"UXUXUXmXHXx h.UXUXUXUXLXUXUXJXjX<XUXLXUXUXUXLXGX) I R zXPXD.HXUXUXUXUX",
"KXUXUXmXHXx h.UXUXUXUXUXLXUXUXjX<XUXHXUXUXUXLXLXZX X}.UXLXn.HXUXUXUXUX",
"UXUXLXmXHXx h.UXUXUXUXUXKXUXGXUXdXUXLXUXUXUXUXLXAXLXJXHXZXG.HXUXUXUXUX",
"UXUXUXmXHXx h.UXUXLXUXGXUXUXsXUXdXUXHXUXUXUXUXLXUXsXNXUXPXF.nXLXUXUXUX",
"KXUXLXmXHXx h.UXUXLXUXHX~ UXUXHXdXUXUXUXUXUXUXUXrX~ [ zXPXD.UXKXUXUXUX",
"UXUXLXmXHXx h.UXUXUXGX!.  zXUXGXdXUXUXUXUXUXUXUX) _.4.!.ZXD.UXKXUXUXUX",
"KXUXUXmXHXx h.UXUXUX{.X P XXsXUXzXUXUXUXUXUXUXUXQ UX/.~ UXF.fXUXUXUXUX",
"UXUXLXIXHXi V.KXLXUX*XQ.. {.UXLXHXUXUXUXUXUXLXUX*./ E |.PXn.HXUXUXUXUX",
"UXUXUXIXHXi V.KXUXUXLXUX].dXsXdXuXUXVXLXsXsXsXsX<X].!.pXUXv.HXLXUXUXUX",
"UXUXUXDXHXa V.KXUXsX!.` ` ^ ` R.( uX{.rX` ( E.E.' ' ]  XAXv.KXUXUXUXUX",
"UXUXUXDXHXs V.KXLXUXUXHXUXUXsX.X' GXGXUXQ.Q.UXUXHXUXnXUXPXc.HXLXUXUXUX",
"UXUXUXDXHXa V.KXJXLXLXHXGXUXUXGX!.GXjXGX|.{.UXGXHXUXUXUXZXv.KXUXUXUXUX",
"LXUXUXDXHXa V.KXUXUXUXUXGXUXLXGX!.jXVXsXXX~.HXGXUXUXUXUXPXc.HXIXUXUXUX",
"UXUXUXIXHXa V.UXUXHXHXUXLXUXHXLX` sXVXGX{.).VXUXVXLXzXGXZXe.HXUXUXUXUX",
"UXUXLXIXMXa V.KXLXUXUXLXUXUXdX.X~.GXjXjX!.E.Q.GXUXUXJXUXZXr.nXLXUXUXUX",
"IXMXUXJXMX7.C.KXUXUXUX/ / GXUXrX' uXjXGX).Q.sXjXGX4.4.UXZXl.vXGXUXUXUX",
"IXMXPXJXHX7.C.UXjXUX X~.~ ' GXLX~.jXsXVX!.Q.LXUX_ _ [ ' UX5.fXUXUXUXUX",
"UXMXPXJXHX7.C.KXUXUXUXsXP K.UXsXR.GXGXHX~.!.pXGXU BXzXI ZXb.KXGXUXUXUX",
"IXMXUXJXKX7.C.UXjXUX~.Q.R.~ UXnXQ.jXjXGX~.Q.GXUX_ Y.4.m.CXz.KXUXUXUXUX",
"IXMXUXJXKX7.C.KXUXUXUX` / iXUX.X~.GXLXUXXX`.VXUXZX_ E iXUXz.fXLXUXUXUX",
"IXMXUXJXHX7.C.UXGXUXK.E.`.K.` R.` .XsXVXE.` R.R.R.Y.4.R.AXb.MXLXUXUXUX",
"IXMXPXJXMX7.C.KXUXLXUXUXGXUXGXiXE.jXGXLX{.~.LXUXSXUXmXGXCX5.vXUXUXUXUX",
"IXMXUXJXHX7.C.UXUXHXHXUXUXLXUXGX' uXjXHX{.{.GXUXUXUXNXUXAXl.HXUXUXUXUX",
"UXMXPXJXHX8.Z.UXUXzXUXUXLXUXUXsXR.sXUXUX`.{.UXGXUXUXUXUXPXe.vXUXUXUXUX",
"UXMXPXUXHX8.Z.UXsXUXGXUXUXUXUXUXQ.sXGXLX~.`.UXUXUXzXUXUXZX5.MXSXUXUXUX",
"UXMXPXIXLX8.Z.UXUXVXUXLXUXUXsXsX!.jXVXGX~.R.@XsXUXGXUXUXPXz.KXGXUXUXUX",
"UXMXPXJXHX9.Z.UXVXLXUXXX` UXdXuXR.sXjXGX`.' {.iXUX{./.LXPXc.vXSXUXUXUX",
"UXMXPXUXJX8.Z.UXUXUX' . Y U VXGXR.sXdXGX{.Q.jXUXI L L ` PXv.KXUXUXUXUX",
"UXMXPXIXMX8.Z.UXHXUXUXsXL I UXGX' iXsXHX{.`.GXUXX {.!.. UXv.nXJXUXUXUX",
"UXMXPXJXHX8.Z.UXVXUXuX  / LXUXsX' uXjXLX).~.VXVX  Q.m.. PXb.vXUXUXUXUX",
"UXMXPXJXHX8.Z.JXUXLX!.. ^ XXUXLXK.uXGXGXQ.{.UXUX{.P U rXUXc.nXGXUXUXUX",
"IXUXUXIXUXN $XKXUXLX!.] ' ` ' 4.] <XU.gXT.*.) R.] ` [ Q.lXe.HXUXUXUXUX",
"UXLXUXDXUXN %XJXLXUXsXsXGXdXjX.X] }.{ 1.T.P.AXsXBXLXzXsXPXl.MXLXUXUXUX",
"UXUXKXIXLXN $XKXUXUXUXUXUXUXUXGXR.lXG 2.=X'.UXUXLXUXKXHXPXl.HXUXUXUXUX",
"IXUXUXJXUXN $XKXLXLXUXUXLXGXUXzX*.lXH oX=XI.UXxXUXJXJXUXUXt.vXUXUXUXUX",
"UXUXKXIXUXN $XJXUXGXLXUXGXLXUXUXL.5XH 2.].I.VXIXUXIXKXUXHX6.nXLXUXUXUX",
"UXPXUXDXLXN $XJXUXUXUXUXLXKXGXVX^.lXJ 1.[.'.sXDXLXLXKXUXCXt.KXUXUXUXUX",
"IXUXUXDXUXN $XKXGXUXUXUXUXUXuX/.m.lXH :.[.^.*XaXUXwX*XJXUXe.MXLXUXUXUX",
"UXUXUXJXUXN %XKXUXUXHX!.}.UXLXVX4.gXH 1.}.^.BXDXwXY Y }.PX5.gXLXUXUXUX",
"IXUXHXUXHXe %XJXUXGXUXL !.UXGXjX&.aX .;.eX_.MXUX^ wXXXI UXt 6XUXUXUXUX",
"IXUXHXUXPXe %XKXUXUXUX/ ~.UXGXjX=.zX} ;.[.W.nXUX~  X*X~ vXz.MXIXUXUXUX",
"IXUXHXUXUXe %XJXLXUXGXE.].UXUXGX&.aX} ;.eX_.nXIX|./ ^ ~.HXy fXUXUXUXUX",
"LXUXUXUXPXe %XKXUXVX{.R.'  X<XQ.&.aX .;.].) (. XrX` ^ {.HXt 6XUXUXUXUX",
"IXUXUXLXPXe %XKXUXsXXX{.].{.uX!.&.aX} ;.].) ]. X}.BXwX@XfXF vXIXUXUXUX",
"UXUXUXUXUXe %XUXLXJXHXUXUXGXUXGX&.aX| ;.eX_.nXUXHXUXVXHXUXF 6XUXUXUXUX",
"UXUXHXUXUXe %XUXUXUXUXUXUXLXUXzX=.aX} $.].P.cXUXUXUXJXLXHXz.MXUXUXUXUX",
"IXUXUXUXUXe $XKXUXUXLXUXUXUXLXVX&.dX} ;.eX_.MXUXUXLXLXUXgXt vXLXUXUXUX",
"UXUXKXIXUXl $XKXUXHXUXUXLXUXUXsX( cX..-.}.'.BXUXUXUXIXLXHXt 6XUXUXUXUX",
"IXPXHXIXUXl $XUXUXUXUXpXUXUX`.{.*.dX .-.{.K.).@XUXBXSXUXgXF MXUXUXUXUX",
"UXUXHXIXUXl $XKXGXUXQ.T / VXUXuX( dX .,.|.P.sXUX<XW U .XUXV 9XUXUXUXUX",
"IXUXHXIXUXl $XJXUXGXP pX/ *.UXLX*.1X{ %..X{.SXUXU !.].T UXt vXLXUXUXUX",
"UXPXHXIXUXl $XKXUXsXP UXR.' GXjX*.zX;.2.@X|.IXUXY tXLXT gXt MXLXUXUXUX",
"UXUXKXIXUXl $XUXsXUX' T ^ sXUXpX~ <X$.2.`.).LXUX!.! I ].UXV vXUXUXUXUX",
"IXUXKXIXUXl $XKXUXUX{.~ K.iXiX@X^.dX .:..X|.BXuX<X_ ^ pXkXV bXUXUXUXUX",
"LXUXHXIXUXl $XJXLXuXK.{.' ' ~.m.[ }.%.2.Q.^ Y.Q..X].!.XXkXV vXUXUXUXUX",
"IXUXUXUXUXc 5XJXUXLXUXUXHXUXUXsX) dX%.U.uX{.FXJXUXUXUXLXZXl.HXUXUXUXUX",
"UXUXUXIXPXc 5XJXGXHXGXUXJXUXGX<X( *X .1. X).FXHXUXUXJXGXPXt.fXHXUXUXUX",
"IXUXHXUXUXc 5XJXUXLXUXsXGXUXUXuXK.zX$.U.dX|.DXUXLXUXJXHXPXc.vXUXUXUXUX",
"IXUXUXIXUXc 5XJXUXUXUXUXUXUXLXuXP.nX$.U.*X`.BXHXGXUXJXLXAXt.fXUXUXUXUX",
"UXUXKXUXUXc 5XJXLXUXjXUXUXUXQ.Q.K.iX..:.{.W.tXfXUXLXJXUXPXc.MXUXUXUXUX",
"IXPXUXIXUXc 5XJXUXUXUX4.VXUXUXsX*.dX..,.}.`.SXUX.X4.4.wXPX5.6XGXUXUXUX",
"IXUXUXUXPXc 5XJXGXGXLX. `.sXUXaX*.<X .,.}.`.SXUX/ R.4.] PXc.fXUXUXUXUX",
"IXUXUXLXUXc 5XLXUXUXGX` dXUXiXuXK.sX..,.}.`.GXUXP GX*XI PXn.vXUXUXUXUX",
"UXHXUXDXUXq.5XJXzXLXGX` *XVXUXuX*.dXo.;. XwXGXUXm._ ` {.CXv.cXKXUXUXUX",
"UXUXKXJXUXN $XUXUXUXsX~.uXiXaXuX*.dX@.<. X_. XaXrX^ / iXUXn.cXUXUXUXUX",
"UXLXUXDXUXN 3XJXGXiXQ.].Q.].R.).*.dX .$. X_.~.].XXR.m..XZXe.dXLXUXUXUX",
"UXUXUXDXUXq.$XUXUXUXGXUXGXUXHXUXCXUX#.U.JXUXUXLXjXUXUXUXZXn.MXUXUXUXUX",
"UXPXUXIXUXB $XJXUXUXUXUXUXUXUXUXCXKX .$.GXUXUXIXUXUXUXUXZXc.fXUXUXUXUX",
"IXUXKXDXUXq.8XUXUXLXUXUXUXUXUXUXhXJXo.<.IXPXUXUXUXLXJXUXUXc.fXUXUXUXUX",
"UXHXUXJXUXN 3XUXUXUXUXUXLXUXUXUXhXJX@.<.JXUXUXJXUXUXKXUXZXc.nXUXUXUXUX",
"UXUXUXDXUXB $XKXLXUXUXUXsXUXUXUXhXLX .<.JXUXUXJXUXUXUXUXPXl.cXUXUXUXUX",
"IXUXUXIXUXB $XKXUXUXUXUXUXUXUXUXGXKX#.>.JXUXIXHXUXUXUXUXPXc.vXUXUXUXUX",
"UXPXKXDXUXN 3XKXUXUXUXUXUXUXUXUXGXKX#.>.UXUXIXUXUXUXUXUXPXc.vXUXUXUXUX",
"UXUXUXIXUXB $XUXUXUXUXUXUXUXUXUXHXKX#.>.UXUXIXUXUXUXUXUXPXc.gXUXUXUXUX",
"IXUXUXIXUXN $XKXUXUXUXUXUXUXUXUXGXKX#.>.UXUXIXPXUXUXJXUXPXc.vXUXUXUXUX",
"UXUXUXIXUXN $XUXUXUXUXUXUXUXUXUXLXMX#.>.UXUXIXHXUXJXUXUXZXc.gXUXUXUXUX",
"UXUXKXDXUXN 8XKXUXUXUXUXUXUXUXUXGXKX#.>.UXUXIXUXUXUXUXUXPXc.vXUXUXUXUX",
"IXUXUXJXUXB $XUXUXUXUXUXUXUXUXUXLXKX#.>.JXUXDXHXUXUXUXUXPXc.vXUXUXUXUX",
"UXPXUXIXUXB $XKXUXUXUXUXUXUXUXUXJXMX#.>.UXUXIXUXUXUXUXUXPXv.vXUXUXUXUX",
"IXUXUXIXUXN $XKXJXUXUXUXUXUXUXLXZXUX$.-.UXUXJXUXUXUXKXUXPXc.nXUXUXUXUX",
"UXUXUXIXUXq.$XUXUXUXUXUXUXUXUXUXCXUX..>.HXUXIXKXUXUXUXUXPXc.fXUXUXUXUX",
"UXUXKXIXUXN 3XKXUXUXUXUXUXUXUXUXPXUX..-.HXUXSXUXUXIXUXUXPXc.vXUXUXUXUX",
"UXUXKXDXLXq.$XKXLXUXUXUXUXUXUXHXHXMX@.%.KXPXIXUXUXUXUXUXPXl.vXUXUXUXUX",
"IXUXUXIXUXB $XUXUXUXUXUXUXUXUXUXCXMX$.X.UXGXIXHXUXUXUXUXZXc.fXUXUXUXUX",
"UXPXKXDXUXN 3XKXUXUXUXUXUXUXUXUXfXNX$.X.UXHXIXUXUXIXKXUXPXc.gXUXUXUXUX",
"IXPXUXIXUXB $XKXHXUXUXUXUXUXUXLX1X0X .-.KXUXIXUXUXJXKXUXZXl.fXUXUXUXUX",
"UXUXUXIXUXN $XUXUXUXUXUXUXUXUXUX}.bX| ,.HXUXDXUXUXLXLXUXPXz.fXUXUXUXUX",
"JXUXUXUXPX8.5XJXPXPXUXIXyXDXUXfX+.6 * M.hXDXZXyXUXUXJXLXPXz.0XMXUXUXUX",
"IXPXUXIXUXB $XmXUXMXUXKXKXMXMX3.# o o & | 5XzXKXUXUXUXUXZXr.fXLXUXUXUX",
"IXPXUXJXUXj >XmXUXUXUXUXUXMXoX% O o + ; O 1.UXCXUXUXMXUXPXr.5XUXUXUXUX",
"UXUXKXmXUXB 1XDXSXIXUXUXHXgX1.% $ # @ & o m.IXPXMXmXmXMXHXF 8XKXUXUXUX",
"UXUXMXFXUXr.hXUXJXKXUXJXmXxXqXM.K O + @ & -XyXHXUXIXJXUXUXz.6XJXUXUXUX",
"JXPXHXDXUXg.lXUXUXPXPXUXIXIXzXiX&XJ ; - 3XMXCXLXUXLXUXZXZXl.GXIXUXUXUX",
"UXPXLXIXUXA A.H.>X4X3X5XvX7XZ.S.M.A.+.J.+X+X+X,XA.A.F.H.+XF nXUXUXUXUX",
"JXPXUXIXUX0 p h 7 k k f d k u 2 < 8 w w : q 7 1 < w 0 s 9.w 0XKXUXUXUX",
"UXLXUXUXUXd.0 S a y.p.y.S C B q.y.f k 9 u f 4 u f f m v z g.9XLXUXUXUX",
"UXUXKXUXPXd.0 D w D D h j j h N D i w 0 9 f d d < 0 i j g x.,XUXUXUXUX",
"UXUXKXUXLXe.7 m g D x.D Z Z Z u.n s g 9 u n z k 8 0 j Z j b.0XUXUXUXUX",
"UXLXJXKXUXd.0 A h p.f.0.y.u.q.f.y.z d i b m M M q a N v z g.9XIXUXUXUX",
"UXUXMXJXUXD.j 8.F b.j.i.p.i.p.j.p.M k k f M f f k n y.m z g.4XUXUXUXUX",
"UXLXmXHXUXH.u.B.Z b.b.u.x.x.x.b.D k k 9 u a u 9 k h y.S n p.,XMXUXUXUX",
"UXLXJXUXUX,XD.Z.r.F.N.d.r.v.B.B.D.r.x.q.w.d.w.i.u.d.N.B.d.D.0XFXUXUXUX",
"UXUXMXLXUX9XG.3X:XbXvX8X3X4X7XkXvX1X:X:X2XgX8X7X4XbXUXMXvXNXIXDXUXUXUX",
"UXUXUXUXUXUXUXUXUXUXUXUXUXUXUXUXUXUXUXUXUXUXUXUXUXUXUXUXUXUXUXUXUXUXUX",
"UXUXUXUXUXUXUXUXUXUXUXUXUXUXUXUXUXUXUXUXUXUXUXUXUXUXUXUXUXUXUXUXUXUXUX",
"UXUXUXUXUXUXUXUXUXUXUXUXUXUXUXUXUXUXUXUXUXUXUXUXUXUXUXUXUXUXUXUXUXUXUX"
};
